<svg width="240" height="158" viewBox="0 0 240 158" fill="none" xmlns="http://www.w3.org/2000/svg">
<g clip-path="url(#clip0)">
<path d="M158.892 158.322L156.228 113.154C156.228 113.154 129.93 109.752 120 109.752C110.07 109.752 83.772 113.154 83.772 113.154L81.108 158.322H158.892Z" fill="#BB86FC"/>
<path d="M131.328 115.89L123.3 143.622L120 155.022L116.694 143.574L108.672 115.866C114.108 114.282 125.898 114.282 131.328 115.89Z" fill="#231F20"/>
<path d="M99.642 68.808C99.426 71.172 99.39 73.704 99.39 76.338C99.39 89.4 108.6 99.9601 120 99.9601C131.4 99.9601 140.61 89.382 140.61 76.338C140.61 73.704 140.574 71.172 140.358 68.808H99.642Z" fill="white"/>
<path d="M120 100.272C108.462 100.272 99.078 89.532 99.078 76.338C99.078 73.866 99.108 71.238 99.336 68.778C99.3449 68.7017 99.3816 68.6313 99.4392 68.5803C99.4968 68.5294 99.5711 68.5015 99.648 68.502H140.358C140.434 68.5017 140.508 68.5297 140.564 68.5808C140.621 68.6318 140.657 68.7022 140.664 68.778C140.892 71.238 140.922 73.866 140.922 76.338C140.922 89.532 131.538 100.272 120 100.272ZM99.93 69.12C99.726 71.472 99.696 73.974 99.696 76.32C99.696 89.172 108.804 99.636 120 99.636C131.196 99.636 140.304 89.172 140.304 76.32C140.304 73.956 140.274 71.454 140.07 69.12H99.93Z" fill="#231F20"/>
<path d="M133.008 84.456C134.022 78.162 144.462 76.614 143.946 84.03C143.766 86.574 142.95 89.172 141.162 90.99C139.374 92.808 136.488 93.678 134.16 92.634" fill="white"/>
<path d="M136.338 93.3901C135.545 93.3952 134.76 93.2337 134.034 92.9161C133.997 92.8995 133.964 92.8758 133.936 92.8464C133.908 92.8169 133.886 92.7823 133.872 92.7444C133.857 92.7065 133.85 92.6661 133.851 92.6256C133.852 92.585 133.861 92.5451 133.878 92.5081C133.895 92.471 133.918 92.4376 133.948 92.4097C133.977 92.3819 134.012 92.36 134.05 92.3456C134.088 92.3311 134.128 92.3242 134.168 92.3253C134.209 92.3264 134.249 92.3355 134.286 92.3521C136.374 93.2821 139.086 92.6401 140.94 90.7741C142.92 88.7641 143.502 85.9741 143.64 84.0061C143.82 81.4021 142.542 79.6861 140.226 79.4221C137.388 79.0861 133.86 81.1021 133.314 84.5041C133.301 84.5849 133.256 84.6574 133.19 84.7056C133.124 84.7539 133.041 84.7742 132.96 84.7621C132.879 84.7488 132.807 84.7042 132.758 84.638C132.71 84.5717 132.69 84.4891 132.702 84.4081C133.302 80.6581 137.19 78.4501 140.298 78.8041C142.368 79.0441 144.498 80.5441 144.252 84.0541C144.108 86.1301 143.496 89.0581 141.384 91.2061C140.057 92.5729 138.243 93.3582 136.338 93.3901V93.3901Z" fill="#231F20"/>
<path d="M106.992 84.456C105.978 78.162 95.538 76.614 96.054 84.03C96.234 86.574 97.05 89.172 98.838 90.99C100.626 92.808 103.512 93.678 105.84 92.634" fill="white"/>
<path d="M103.662 93.3901C101.757 93.3582 99.9429 92.5729 98.616 91.2061C96.504 89.0581 95.892 86.1301 95.748 84.0541C95.502 80.5441 97.632 79.0441 99.702 78.8041C102.804 78.4501 106.692 80.6581 107.298 84.4081C107.31 84.4891 107.29 84.5717 107.242 84.638C107.193 84.7042 107.121 84.7488 107.04 84.7621C107 84.7689 106.959 84.7676 106.919 84.7582C106.879 84.7489 106.842 84.7317 106.809 84.7077C106.776 84.6836 106.748 84.6532 106.727 84.6183C106.706 84.5833 106.692 84.5445 106.686 84.5041C106.14 81.1021 102.612 79.1041 99.774 79.4221C97.458 79.6861 96.174 81.4021 96.36 84.0061C96.498 85.9861 97.08 88.7641 99.06 90.7741C100.89 92.6401 103.626 93.2881 105.714 92.3521C105.751 92.3355 105.791 92.3264 105.832 92.3253C105.872 92.3242 105.912 92.3311 105.95 92.3456C105.988 92.36 106.023 92.3819 106.052 92.4097C106.082 92.4376 106.105 92.471 106.122 92.5081C106.139 92.5451 106.148 92.585 106.149 92.6256C106.15 92.6661 106.143 92.7065 106.129 92.7444C106.114 92.7823 106.092 92.8169 106.064 92.8464C106.036 92.8758 106.003 92.8995 105.966 92.9161C105.24 93.2337 104.455 93.3952 103.662 93.3901Z" fill="#231F20"/>
<path d="M108.672 115.89C108.672 115.89 111.498 122.046 119.742 122.046C127.986 122.046 131.328 115.89 131.328 115.89L130.23 91.716H109.8L108.672 115.89Z" fill="white"/>
<path d="M119.742 122.358C111.396 122.358 108.42 116.088 108.39 116.022C108.371 115.976 108.361 115.928 108.36 115.878L109.464 91.704C109.467 91.6239 109.502 91.5482 109.56 91.4933C109.618 91.4383 109.696 91.4084 109.776 91.41H130.2C130.28 91.4084 130.358 91.4383 130.416 91.4933C130.474 91.5482 130.509 91.6239 130.512 91.704L131.616 115.878C131.618 115.935 131.603 115.991 131.574 116.04C130.308 118.018 128.555 119.638 126.483 120.744C124.411 121.85 122.09 122.406 119.742 122.358V122.358ZM108.984 115.83C109.314 116.472 112.254 121.74 119.742 121.74C121.971 121.787 124.175 121.266 126.147 120.227C128.119 119.188 129.795 117.665 131.016 115.8L129.93 92.01H110.07L108.984 115.83Z" fill="#231F20"/>
<path d="M109.566 102.066C110.988 104.346 113.34 106.146 115.752 107.466C119.802 109.704 125.862 112.224 130.752 111.474L130.542 99.138C127.02 99.642 122.898 101.67 119.1 101.322C115.92 101.046 112.65 100.722 109.74 99.522C109.26 99.306 108.942 101.076 109.566 102.066Z" fill="#231F20"/>
<path d="M128.904 111.93C123.972 111.93 118.584 109.392 115.608 107.73C112.632 106.068 110.592 104.268 109.314 102.21C108.774 101.358 108.828 99.912 109.266 99.408C109.335 99.3195 109.431 99.2558 109.539 99.2266C109.647 99.1973 109.762 99.2042 109.866 99.246C112.788 100.446 116.154 100.77 119.13 101.046C121.452 101.262 123.93 100.554 126.33 99.846C127.707 99.4213 129.11 99.0866 130.53 98.844C130.572 98.8381 130.614 98.8411 130.655 98.8527C130.695 98.8643 130.733 98.8844 130.765 98.9116C130.798 98.9388 130.824 98.9725 130.842 99.0104C130.861 99.0484 130.871 99.0899 130.872 99.132L131.082 111.468C131.084 111.54 131.06 111.611 131.013 111.666C130.967 111.721 130.902 111.758 130.83 111.768C130.193 111.871 129.549 111.925 128.904 111.93V111.93ZM109.704 99.828C109.568 100.161 109.509 100.521 109.53 100.88C109.552 101.24 109.655 101.59 109.83 101.904V101.904C111.03 103.872 113.094 105.66 115.902 107.22C119.154 109.02 125.316 111.9 130.482 111.234L130.278 99.504C129.008 99.7464 127.752 100.059 126.516 100.44C124.068 101.136 121.542 101.862 119.1 101.64C116.094 101.4 112.698 101.076 109.698 99.828H109.704Z" fill="#231F20"/>
<path d="M104.742 68.808V89.256C104.742 93.0752 106.259 96.7379 108.96 99.4384C111.66 102.139 115.323 103.656 119.142 103.656H120.822C124.641 103.656 128.304 102.139 131.004 99.4384C133.705 96.7379 135.222 93.0752 135.222 89.256V68.808H104.742Z" fill="white"/>
<path d="M135.258 68.808V89.256C135.258 93.0751 133.741 96.7378 131.04 99.4383C128.34 102.139 124.677 103.656 120.858 103.656H119.178C115.359 103.656 111.696 102.139 108.996 99.4383C106.295 96.7378 104.778 93.0751 104.778 89.256V68.808H135.294H135.258ZM135.294 68.208H104.742C104.583 68.208 104.43 68.2712 104.318 68.3837C104.205 68.4963 104.142 68.6489 104.142 68.808V89.256C104.145 93.2434 105.73 97.0666 108.549 99.8867C111.368 102.707 115.191 104.293 119.178 104.298H120.858C124.845 104.293 128.668 102.707 131.487 99.8867C134.306 97.0666 135.891 93.2434 135.894 89.256V68.808C135.894 68.6489 135.831 68.4963 135.718 68.3837C135.606 68.2712 135.453 68.208 135.294 68.208Z" fill="#231F20"/>
<path d="M120 128.43L116.112 125.43L120 122.436L123.888 125.43L120 128.43Z" fill="white"/>
<path d="M123.306 143.622L120.006 155.046L116.694 143.598L118.692 126.804L118.74 126.45H121.272L121.308 126.816L123.306 143.622Z" fill="white"/>
<path d="M140.484 69.168C140.484 71.712 135.624 73.908 128.616 74.91C122.899 75.694 117.101 75.694 111.384 74.91C104.376 73.908 99.516 71.712 99.516 69.168C99.516 66.768 103.812 64.698 110.142 63.618C112.609 63.211 115.101 62.9645 117.6 62.88C118.392 62.88 119.202 62.838 120 62.838C120.798 62.838 121.482 62.838 122.208 62.874C124.772 62.9425 127.327 63.1851 129.858 63.6C136.2 64.698 140.484 66.774 140.484 69.168Z" fill="#231F20"/>
<path d="M120 75.798C117.101 75.8072 114.206 75.6067 111.336 75.198C103.86 74.13 99.216 71.82 99.216 69.162C99.216 66.66 103.284 64.476 110.094 63.318C112.577 62.9076 115.085 62.663 117.6 62.586C119.118 62.526 120.726 62.52 122.25 62.586C124.826 62.6619 127.394 62.9124 129.936 63.336C136.746 64.494 140.814 66.678 140.814 69.18C140.814 71.838 136.17 74.148 128.688 75.216C125.81 75.6203 122.906 75.8148 120 75.798V75.798ZM120 63.138C119.19 63.138 118.38 63.138 117.6 63.18C115.119 63.2613 112.645 63.5058 110.196 63.912C103.896 64.986 99.822 67.05 99.822 69.168C99.822 71.436 104.484 73.626 111.432 74.616C117.121 75.4 122.891 75.4 128.58 74.616C135.528 73.626 140.19 71.436 140.19 69.168C140.19 67.05 136.116 64.968 129.816 63.912C127.3 63.4934 124.758 63.2448 122.208 63.168C121.476 63.144 120.744 63.138 120 63.138V63.138Z" fill="#231F20"/>
<path d="M119.202 81.762C119.202 81.762 122.352 89.832 121.926 90.882C121.5 91.932 118.038 91.722 118.038 91.722" fill="white"/>
<path d="M118.8 92.052C118.44 92.052 118.152 92.052 118.008 92.052C117.967 92.0505 117.927 92.0408 117.89 92.0236C117.853 92.0064 117.82 91.982 117.793 91.9519C117.765 91.9217 117.744 91.8863 117.731 91.8479C117.717 91.8094 117.712 91.7687 117.714 91.728C117.715 91.687 117.725 91.6467 117.743 91.6096C117.761 91.5725 117.786 91.5395 117.817 91.5125C117.848 91.4855 117.884 91.4651 117.923 91.4526C117.962 91.4402 118.003 91.4359 118.044 91.44C119.346 91.518 121.386 91.368 121.644 90.792C121.902 90.216 120.444 85.812 118.92 81.9C118.891 81.8228 118.893 81.7372 118.927 81.6618C118.961 81.5865 119.023 81.5276 119.1 81.498C119.138 81.4836 119.178 81.4768 119.219 81.4781C119.259 81.4794 119.299 81.4887 119.336 81.5054C119.372 81.5221 119.406 81.546 119.433 81.5756C119.461 81.6053 119.482 81.6401 119.496 81.678C120.03 83.04 122.67 89.916 122.214 91.026C121.836 91.908 119.958 92.052 118.8 92.052Z" fill="#231F20"/>
<path d="M121.038 97.938C120.657 97.9387 120.277 97.9187 119.898 97.878C116.634 97.518 113.682 95.622 111.114 92.226C111.09 92.1937 111.072 92.1569 111.062 92.1177C111.051 92.0785 111.049 92.0377 111.055 91.9976C111.06 91.9575 111.074 91.9189 111.094 91.8839C111.115 91.849 111.142 91.8185 111.174 91.794C111.206 91.7696 111.243 91.7518 111.282 91.7416C111.322 91.7314 111.362 91.729 111.402 91.7346C111.443 91.7401 111.481 91.7535 111.516 91.774C111.551 91.7945 111.582 91.8217 111.606 91.854C114.066 95.1 116.874 96.924 119.958 97.254C124.644 97.77 128.4 94.644 128.436 94.614C128.498 94.5607 128.579 94.5343 128.66 94.5404C128.742 94.5466 128.818 94.585 128.871 94.647C128.924 94.7091 128.951 94.7898 128.945 94.8714C128.938 94.953 128.9 95.0287 128.838 95.082C126.616 96.8543 123.879 97.8566 121.038 97.938V97.938Z" fill="#231F20"/>
<path d="M135.288 56.1661C137.224 53.3759 138.359 50.1091 138.57 46.7198C138.781 43.3305 138.06 39.948 136.486 36.9392C134.911 33.9304 132.543 31.41 129.638 29.6515C126.733 27.8929 123.402 26.9632 120.006 26.9632C116.61 26.9632 113.279 27.8929 110.374 29.6515C107.469 31.41 105.101 33.9304 103.526 36.9392C101.952 39.948 101.231 43.3305 101.442 46.7198C101.653 50.1091 102.788 53.3759 104.724 56.1661V56.1661C105.198 56.8447 105.715 57.4921 106.272 58.1041C107.046 59.1781 109.158 60.5461 109.53 61.8121C110.174 63.8194 110.945 65.7834 111.84 67.6921H128.136C129.031 65.7834 129.802 63.8194 130.446 61.8121C130.818 60.5461 132.93 59.1781 133.704 58.1041C134.261 57.4921 134.778 56.8447 135.252 56.1661H135.288Z" fill="#BB86FC"/>
<path d="M121.8 69.1321C121.761 69.1298 121.722 69.1197 121.686 69.1025C121.651 69.0852 121.619 69.0612 121.593 69.0316C121.567 69.0021 121.547 68.9676 121.534 68.9303C121.521 68.893 121.516 68.8535 121.518 68.8141C121.548 68.2141 122.118 57.5821 123.366 50.2141C121.046 50.3523 118.719 50.3383 116.4 50.1721C118.104 57.8161 118.026 67.9501 118.02 68.6221C118.017 68.7011 117.983 68.7759 117.926 68.8307C117.869 68.8855 117.793 68.9161 117.714 68.9161C117.675 68.9161 117.636 68.9083 117.6 68.8931C117.564 68.878 117.531 68.8558 117.504 68.8278C117.477 68.7999 117.455 68.7668 117.441 68.7304C117.426 68.694 117.419 68.6552 117.42 68.6161C117.425 64.2254 117.177 59.8381 116.676 55.4761C116.432 53.4761 116.132 51.6921 115.776 50.1241C109.746 49.6321 107.742 46.3561 107.88 44.2501C107.895 43.8735 107.987 43.5041 108.152 43.1651C108.317 42.8262 108.55 42.5251 108.837 42.2809C109.124 42.0367 109.459 41.8548 109.82 41.7465C110.18 41.6383 110.56 41.6061 110.934 41.6521C113.562 41.8081 115.212 45.2161 116.256 49.5601C118.652 49.7431 121.057 49.7632 123.456 49.6201C123.882 47.2201 124.374 45.2521 124.95 44.1601C126.264 41.6521 128.184 40.2721 129.852 40.6441C131.208 40.9441 132.036 42.3481 132.132 44.4961C132.177 45.1131 132.087 45.7327 131.867 46.3111C131.647 46.8895 131.304 47.4128 130.86 47.8441C129.57 49.0981 127.296 49.8721 123.972 50.1721C122.712 57.6061 122.112 68.7001 122.1 68.8501C122.095 68.9265 122.062 68.9982 122.006 69.0506C121.95 69.1031 121.877 69.1322 121.8 69.1321V69.1321ZM129.33 41.1841C128.208 41.1841 126.684 42.1441 125.484 44.4361C124.794 46.0777 124.32 47.8022 124.074 49.5661C127.158 49.2781 129.264 48.5641 130.44 47.4181C130.825 47.0474 131.123 46.5955 131.312 46.0952C131.501 45.595 131.576 45.0589 131.532 44.5261C131.448 42.6661 130.788 41.4661 129.732 41.2261C129.598 41.1981 129.461 41.184 129.324 41.1841H129.33ZM110.73 42.2461C110.448 42.2282 110.166 42.2673 109.9 42.3611C109.633 42.4549 109.389 42.6013 109.181 42.7918C108.972 42.9822 108.804 43.2127 108.687 43.4694C108.57 43.7261 108.506 44.0039 108.498 44.2861C108.378 46.1401 110.196 49.0021 115.65 49.5121C114.522 44.8561 112.92 42.3721 110.916 42.2521L110.73 42.2461Z" fill="#231F20"/>
<path d="M127.644 67.7161H112.356C111.806 67.7161 111.36 68.162 111.36 68.7121V69.3901C111.36 69.9401 111.806 70.3861 112.356 70.3861H127.644C128.194 70.3861 128.64 69.9401 128.64 69.3901V68.7121C128.64 68.162 128.194 67.7161 127.644 67.7161Z" fill="white"/>
<path d="M127.644 70.686H112.356C112.012 70.6844 111.682 70.5466 111.439 70.3026C111.196 70.0586 111.06 69.7283 111.06 69.384V68.712C111.06 68.3683 111.197 68.0387 111.44 67.7956C111.683 67.5526 112.012 67.416 112.356 67.416H127.644C127.988 67.416 128.317 67.5526 128.56 67.7956C128.803 68.0387 128.94 68.3683 128.94 68.712V69.384C128.94 69.7283 128.804 70.0586 128.561 70.3026C128.318 70.5466 127.988 70.6844 127.644 70.686V70.686ZM112.356 68.016C112.171 68.016 111.994 68.0893 111.864 68.2199C111.733 68.3504 111.66 68.5274 111.66 68.712V69.384C111.659 69.4759 111.677 69.5671 111.711 69.6522C111.746 69.7373 111.797 69.8148 111.862 69.88C111.926 69.9453 112.003 69.9971 112.088 70.0325C112.173 70.0678 112.264 70.086 112.356 70.086H127.644C127.736 70.086 127.827 70.0678 127.912 70.0325C127.997 69.9971 128.074 69.9453 128.138 69.88C128.203 69.8148 128.254 69.7373 128.289 69.6522C128.323 69.5671 128.341 69.4759 128.34 69.384V68.712C128.34 68.5274 128.267 68.3504 128.136 68.2199C128.006 68.0893 127.829 68.016 127.644 68.016H112.356Z" fill="#231F20"/>
<path d="M127.644 70.386H112.356C111.806 70.386 111.36 70.832 111.36 71.382V72.06C111.36 72.6101 111.806 73.056 112.356 73.056H127.644C128.194 73.056 128.64 72.6101 128.64 72.06V71.382C128.64 70.832 128.194 70.386 127.644 70.386Z" fill="white"/>
<path d="M127.644 73.356H112.356C112.012 73.3544 111.682 73.2165 111.439 72.9725C111.196 72.7285 111.06 72.3983 111.06 72.054V71.4C111.06 71.0563 111.197 70.7266 111.44 70.4836C111.683 70.2405 112.012 70.104 112.356 70.104H127.644C127.814 70.104 127.983 70.1375 128.14 70.2027C128.297 70.2678 128.44 70.3633 128.56 70.4836C128.681 70.6039 128.776 70.7468 128.841 70.904C128.907 71.0613 128.94 71.2298 128.94 71.4V72.072C128.935 72.4132 128.797 72.7388 128.555 72.9789C128.312 73.2191 127.985 73.3545 127.644 73.356ZM112.356 70.686C112.263 70.686 112.171 70.7046 112.085 70.7407C112 70.7767 111.922 70.8296 111.857 70.8962C111.793 70.9627 111.742 71.0416 111.708 71.1281C111.674 71.2147 111.658 71.3071 111.66 71.4V72.072C111.659 72.1639 111.677 72.2551 111.711 72.3402C111.746 72.4253 111.797 72.5028 111.862 72.568C111.926 72.6333 112.003 72.6851 112.088 72.7205C112.173 72.7558 112.264 72.774 112.356 72.774H127.644C127.736 72.774 127.827 72.7558 127.912 72.7205C127.997 72.6851 128.074 72.6333 128.138 72.568C128.203 72.5028 128.254 72.4253 128.289 72.3402C128.323 72.2551 128.341 72.1639 128.34 72.072V71.4C128.34 71.2154 128.267 71.0384 128.136 70.9079C128.006 70.7773 127.829 70.704 127.644 70.704L112.356 70.686Z" fill="#231F20"/>
<path d="M128.64 74.052V74.73C128.649 74.7897 128.649 74.8504 128.64 74.91C122.923 75.694 117.125 75.694 111.408 74.91C111.399 74.8504 111.399 74.7897 111.408 74.73V74.052C111.41 73.7884 111.515 73.5359 111.701 73.3495C111.888 73.163 112.14 73.0576 112.404 73.056H127.692C127.947 73.0698 128.188 73.1806 128.364 73.3658C128.54 73.5509 128.639 73.7964 128.64 74.052V74.052Z" fill="white"/>
<path d="M120 75.798C117.101 75.8041 114.206 75.6036 111.336 75.198C111.279 75.1872 111.225 75.1608 111.182 75.1216C111.138 75.0824 111.107 75.0321 111.09 74.976C111.07 74.8915 111.06 74.8049 111.06 74.718V74.04C111.06 73.6963 111.197 73.3667 111.44 73.1236C111.683 72.8806 112.012 72.744 112.356 72.744H127.644C127.988 72.744 128.317 72.8806 128.56 73.1236C128.803 73.3667 128.94 73.6963 128.94 74.04V74.718C128.94 74.8049 128.93 74.8915 128.91 74.976C128.893 75.0321 128.862 75.0824 128.818 75.1216C128.775 75.1608 128.721 75.1872 128.664 75.198C125.794 75.6036 122.899 75.8041 120 75.798ZM111.66 74.646C117.196 75.382 122.804 75.382 128.34 74.646V74.046C128.34 73.8614 128.267 73.6844 128.136 73.5539C128.006 73.4234 127.829 73.35 127.644 73.35H112.356C112.171 73.35 111.994 73.4234 111.864 73.5539C111.733 73.6844 111.66 73.8614 111.66 74.046V74.646Z" fill="#231F20"/>
<path d="M113.256 81.864C113.73 81.864 114.114 80.9668 114.114 79.86C114.114 78.7532 113.73 77.856 113.256 77.856C112.782 77.856 112.398 78.7532 112.398 79.86C112.398 80.9668 112.782 81.864 113.256 81.864Z" fill="#231F20"/>
<path d="M126.744 81.864C127.218 81.864 127.602 80.9668 127.602 79.86C127.602 78.7532 127.218 77.856 126.744 77.856C126.27 77.856 125.886 78.7532 125.886 79.86C125.886 80.9668 126.27 81.864 126.744 81.864Z" fill="#231F20"/>
<path d="M74.622 67.716C74.622 67.716 90.078 60.9 89.622 59.064C89.166 57.228 82.116 60.522 82.116 60.522C82.116 60.522 91.482 43.638 90.342 39.204C89.202 34.77 79.8 49.65 75.768 52.65C71.736 55.65 64.326 61.95 64.326 61.95L74.622 67.716Z" fill="white"/>
<path d="M74.628 68.022C74.5739 68.0223 74.5205 68.01 74.472 67.986L64.2 62.22C64.1558 62.1966 64.1181 62.1626 64.09 62.1212C64.062 62.0798 64.0446 62.0321 64.0392 61.9824C64.0339 61.9326 64.0409 61.8823 64.0595 61.8359C64.0781 61.7895 64.1078 61.7483 64.146 61.716C64.224 61.65 71.64 55.38 75.606 52.404C77.034 51.336 79.158 48.732 81.414 45.978C85.614 40.848 88.26 37.758 89.814 38.1C90.0445 38.1675 90.2505 38.3003 90.407 38.4824C90.5635 38.6645 90.6639 38.888 90.696 39.126C91.722 43.116 84.75 56.406 82.896 59.868C84.582 59.142 88.188 57.738 89.496 58.362C89.6262 58.4205 89.7411 58.5084 89.8317 58.6187C89.9223 58.7291 89.9861 58.8589 90.018 58.998C90.468 60.93 78.498 66.378 74.814 67.998C74.7569 68.028 74.6909 68.0365 74.628 68.022V68.022ZM64.866 61.902L74.64 67.368C82.968 63.69 89.55 60.006 89.346 59.136C89.3349 59.0876 89.3121 59.0427 89.2797 59.005C89.2473 58.9674 89.2062 58.9382 89.16 58.92C88.152 58.428 84.396 59.814 82.272 60.804C82.2118 60.8298 82.1451 60.8368 82.0808 60.8239C82.0166 60.8111 81.9577 60.779 81.912 60.732C81.8676 60.6843 81.8395 60.6237 81.832 60.5589C81.8244 60.4941 81.8378 60.4287 81.87 60.372C81.966 60.204 91.164 43.572 90.066 39.282C89.928 38.766 89.718 38.718 89.652 38.682C88.368 38.388 84.762 42.804 81.852 46.344C79.578 49.134 77.43 51.744 75.942 52.878C72.492 55.5 66.372 60.63 64.866 61.902Z" fill="#231F20"/>
<path d="M72.81 73.374L76.818 68.622L66.516 59.064L55.944 67.716L72.81 73.374Z" fill="#231F20"/>
<path d="M105.234 110.682C105.234 110.682 61.368 106.836 59.634 102.582C57.9 98.328 75.738 73.374 75.738 73.374L62.178 59.808C62.178 59.808 16.296 100.338 27.03 117.978C37.764 135.618 90.954 138.51 90.954 138.51L105.234 110.682Z" fill="#BB86FC"/>
<path d="M165.378 67.716C165.378 67.716 149.922 60.9 150.378 59.064C150.834 57.228 157.884 60.522 157.884 60.522C157.884 60.522 148.518 43.638 149.658 39.204C150.798 34.77 160.2 49.65 164.232 52.65C168.264 55.65 175.674 61.95 175.674 61.95L165.378 67.716Z" fill="white"/>
<path d="M165.372 68.022C165.333 68.031 165.292 68.031 165.252 68.022C161.568 66.402 149.598 60.954 150.048 59.022C150.08 58.8829 150.144 58.753 150.234 58.6427C150.325 58.5323 150.44 58.4445 150.57 58.386C151.854 57.786 155.46 59.166 157.17 59.892C155.304 56.43 148.332 43.14 149.37 39.15C149.402 38.912 149.502 38.6885 149.659 38.5064C149.816 38.3243 150.022 38.1915 150.252 38.124C151.812 37.782 154.452 40.872 158.652 46.002C160.908 48.756 163.032 51.36 164.46 52.428C168.426 55.428 175.86 61.674 175.92 61.74C175.958 61.7723 175.988 61.8134 176.007 61.8599C176.025 61.9063 176.032 61.9566 176.027 62.0063C176.021 62.0561 176.004 62.1037 175.976 62.1452C175.948 62.1866 175.91 62.2205 175.866 62.244L165.57 68.01C165.507 68.0331 165.438 68.0373 165.372 68.022V68.022ZM151.428 58.8C151.223 58.7883 151.018 58.8232 150.828 58.902C150.782 58.9202 150.741 58.9494 150.708 58.987C150.676 59.0247 150.653 59.0696 150.642 59.118C150.438 59.988 157.02 63.672 165.348 67.35L175.122 61.884C173.616 60.612 167.496 55.482 164.034 52.884C162.546 51.768 160.398 49.14 158.124 46.35C155.226 42.81 151.608 38.394 150.324 38.688C150.258 38.688 150.048 38.748 149.91 39.288C148.812 43.554 158.01 60.21 158.106 60.378C158.138 60.4347 158.152 60.5001 158.144 60.5649C158.136 60.6296 158.108 60.6903 158.064 60.738C158.018 60.785 157.959 60.8171 157.895 60.8299C157.831 60.8428 157.764 60.8358 157.704 60.81C155.904 59.952 152.892 58.8 151.428 58.8Z" fill="#231F20"/>
<path d="M167.19 73.374L163.182 68.622L173.484 59.064L184.056 67.716L167.19 73.374Z" fill="#231F20"/>
<path d="M134.766 110.682C134.766 110.682 178.632 106.836 180.366 102.582C182.1 98.328 164.262 73.374 164.262 73.374L177.834 59.808C177.834 59.808 223.716 100.338 212.982 117.978C202.248 135.618 149.058 138.51 149.058 138.51L134.766 110.682Z" fill="#BB86FC"/>
<path d="M81.318 153.99C81.798 141.924 82.368 129.948 83.052 118.182Z" fill="#231F20"/>
<path d="M81.318 154.29C81.2789 154.289 81.2403 154.281 81.2045 154.265C81.1688 154.249 81.1365 154.226 81.1097 154.198C81.0829 154.169 81.062 154.136 81.0483 154.099C81.0346 154.062 81.0284 154.023 81.03 153.984C81.528 141.438 82.116 129.384 82.764 118.17C82.77 118.094 82.804 118.023 82.8595 117.971C82.915 117.919 82.9879 117.889 83.064 117.888V117.888C83.1431 117.894 83.2166 117.931 83.2692 117.99C83.3218 118.049 83.3494 118.127 83.346 118.206C82.692 129.42 82.11 141.468 81.612 154.008C81.6075 154.083 81.5747 154.154 81.5202 154.207C81.4657 154.259 81.3935 154.289 81.318 154.29Z" fill="#231F20"/>
<path d="M158.7 155.046C158.7 155.046 155.922 115.8 155.922 116.4Z" fill="#231F20"/>
<path d="M158.7 155.346C158.624 155.346 158.552 155.318 158.496 155.267C158.44 155.216 158.406 155.145 158.4 155.07C157.482 142.062 155.736 117.462 155.634 116.436C155.631 116.414 155.631 116.392 155.634 116.37C155.634 116.292 155.664 116.217 155.717 116.16C155.771 116.103 155.844 116.069 155.922 116.064C156.078 116.064 156.156 116.064 156.21 116.37C156.213 116.392 156.213 116.414 156.21 116.436C156.252 116.712 156.288 117.186 156.348 118.002C156.426 119.058 156.534 120.57 156.666 122.388C156.93 125.988 157.266 130.848 157.62 135.684C158.31 145.356 158.994 155.028 158.994 155.028C158.999 155.107 158.973 155.184 158.921 155.244C158.87 155.303 158.797 155.34 158.718 155.346H158.7Z" fill="#231F20"/>
<path d="M143.448 35.316C143.386 35.3167 143.326 35.2983 143.275 35.2635C143.225 35.2287 143.186 35.1791 143.164 35.1214C143.142 35.0637 143.139 35.0008 143.154 34.9412C143.17 34.8815 143.203 34.8281 143.25 34.788L151.554 27.6721C151.614 27.6203 151.693 27.5948 151.772 27.6009C151.852 27.6071 151.925 27.6446 151.977 27.7051C152.029 27.7655 152.054 27.8441 152.048 27.9234C152.042 28.0027 152.004 28.0763 151.944 28.1281L143.64 35.244C143.587 35.2903 143.519 35.3159 143.448 35.316V35.316Z" fill="#D1D3D4"/>
<path d="M133.56 27.408C133.503 27.4084 133.447 27.394 133.398 27.366C133.331 27.323 133.284 27.2552 133.267 27.1776C133.251 27.1 133.265 27.0189 133.308 26.952L137.166 20.826C137.186 20.7919 137.213 20.7621 137.245 20.7387C137.277 20.7152 137.314 20.6985 137.352 20.6895C137.391 20.6806 137.431 20.6795 137.47 20.6865C137.509 20.6934 137.547 20.7083 137.58 20.73C137.647 20.7731 137.694 20.8404 137.712 20.9176C137.73 20.9949 137.717 21.076 137.676 21.144L133.8 27.27C133.775 27.3113 133.74 27.3456 133.698 27.3697C133.656 27.3939 133.608 27.407 133.56 27.408V27.408Z" fill="#D1D3D4"/>
<path d="M96.552 35.316C96.4815 35.3159 96.4133 35.2903 96.36 35.2441L88.056 28.1281C87.9956 28.0763 87.9581 28.0027 87.9519 27.9234C87.9457 27.8441 87.9713 27.7655 88.023 27.7051C88.0748 27.6446 88.1484 27.6071 88.2277 27.6009C88.307 27.5948 88.3856 27.6203 88.446 27.6721L96.75 34.8C96.7968 34.8401 96.8302 34.8935 96.8456 34.9532C96.8609 35.0128 96.8576 35.0757 96.836 35.1334C96.8143 35.1911 96.7755 35.2407 96.7247 35.2755C96.6739 35.3103 96.6136 35.3287 96.552 35.3281V35.316Z" fill="#D1D3D4"/>
<path d="M106.44 27.408C106.39 27.4091 106.34 27.3969 106.296 27.3727C106.251 27.3485 106.214 27.3131 106.188 27.27L102.324 21.144C102.283 21.076 102.27 20.9949 102.288 20.9176C102.306 20.8404 102.353 20.7731 102.42 20.73C102.453 20.7083 102.491 20.6934 102.53 20.6865C102.569 20.6795 102.609 20.6806 102.648 20.6895C102.686 20.6985 102.723 20.7152 102.755 20.7387C102.787 20.7621 102.814 20.7919 102.834 20.826L106.692 26.952C106.735 27.0189 106.749 27.1 106.733 27.1776C106.716 27.2552 106.669 27.323 106.602 27.366C106.553 27.394 106.497 27.4084 106.44 27.408V27.408Z" fill="#D1D3D4"/>
<path d="M120 23.85C119.92 23.85 119.844 23.8184 119.788 23.7622C119.732 23.7059 119.7 23.6296 119.7 23.55V13.278C119.7 13.1985 119.732 13.1222 119.788 13.0659C119.844 13.0096 119.92 12.978 120 12.978C120.08 12.978 120.156 13.0096 120.212 13.0659C120.268 13.1222 120.3 13.1985 120.3 13.278V23.55C120.3 23.6296 120.268 23.7059 120.212 23.7622C120.156 23.8184 120.08 23.85 120 23.85Z" fill="#D1D3D4"/>
</g>
<defs>
<clipPath id="clip0">
<rect width="240" height="158" fill="white"/>
</clipPath>
</defs>
</svg>
