<svg width="160" height="120" viewBox="0 0 160 120" fill="none" xmlns="http://www.w3.org/2000/svg">
<path d="M91.904 104.076C72.2316 104.076 56.284 102.774 56.284 101.168C56.284 99.562 72.2316 98.26 91.904 98.26C111.576 98.26 127.524 99.562 127.524 101.168C127.524 102.774 111.576 104.076 91.904 104.076Z" fill="#E6E7E8"/>
<path d="M32.476 73.868H57.804V94.504H32.476V73.868Z" fill="white"/>
<path d="M32.476 94.708H57.804C57.857 94.708 57.9079 94.6869 57.9454 94.6494C57.9829 94.6119 58.004 94.561 58.004 94.508V73.868C58.004 73.8149 57.9829 73.7641 57.9454 73.7266C57.9079 73.689 57.857 73.668 57.804 73.668H32.476C32.4232 73.669 32.373 73.6904 32.3357 73.7277C32.2984 73.765 32.277 73.8152 32.276 73.868V94.508C32.277 94.5607 32.2984 94.611 32.3357 94.6483C32.373 94.6856 32.4232 94.707 32.476 94.708V94.708ZM57.604 94.308H32.676V74.068H57.6L57.604 94.308Z" fill="#D1D3D4"/>
<path d="M32.476 76.7201H57.804C57.857 76.7201 57.9079 76.699 57.9454 76.6615C57.9829 76.624 58.004 76.5731 58.004 76.5201C58.004 76.467 57.9829 76.4162 57.9454 76.3786C57.9079 76.3411 57.857 76.3201 57.804 76.3201H32.476C32.4229 76.3201 32.3721 76.3411 32.3346 76.3786C32.297 76.4162 32.276 76.467 32.276 76.5201C32.277 76.5728 32.2984 76.6231 32.3357 76.6604C32.373 76.6977 32.4232 76.7191 32.476 76.7201V76.7201Z" fill="#D1D3D4"/>
<path d="M102.264 35.312C102.81 35.3487 103.355 35.2245 103.832 34.9547C104.308 34.6849 104.695 34.2813 104.944 33.794C105.194 33.3066 105.295 32.7568 105.235 32.2126C105.175 31.6684 104.957 31.1536 104.608 30.732C106.136 30.028 106.944 28.22 106.832 26.544C106.72 24.868 105.836 23.344 104.732 22.056C103.824 21.004 102.684 20.056 101.32 19.796C101.062 19.7703 100.81 19.6999 100.576 19.588C100.392 19.4584 100.232 19.2973 100.104 19.112C99.108 17.84 97.88 16.672 96.344 16.16C94.808 15.648 92.928 15.94 91.9 17.192C91.3861 16.7459 90.7489 16.4663 90.0727 16.3903C89.3965 16.3143 88.7131 16.4454 88.113 16.7662C87.5129 17.0871 87.0244 17.5826 86.7121 18.1872C86.3998 18.7918 86.2784 19.4769 86.364 20.152C85.2818 20.3118 84.2671 20.775 83.4373 21.4879C82.6076 22.2008 81.9969 23.1342 81.676 24.18C81.104 26.284 82.076 28.756 84.016 29.752C84.24 29.868 84.508 30.02 84.5 30.268C84.4779 30.4177 84.411 30.5572 84.308 30.668C83.684 31.56 83.996 32.852 84.708 33.66C85.42 34.468 86.484 34.896 87.508 35.304C87.2802 35.5324 87.1284 35.8255 87.0733 36.1433C87.0182 36.4612 87.0624 36.7882 87.2 37.08C87.4968 37.6641 87.9585 38.1481 88.528 38.472C90.752 39.908 93.504 39.46 95.996 39.512C98.296 39.56 100.58 38.092 102.104 36.428C102.4 36.112 102.636 35.536 102.264 35.312Z" fill="white"/>
<path d="M93.24 39.74C93.64 39.74 94.04 39.74 94.408 39.74C94.928 39.74 95.472 39.716 95.984 39.74C98.072 39.776 100.384 38.604 102.248 36.592C102.379 36.4604 102.482 36.3036 102.551 36.131C102.62 35.9585 102.653 35.7737 102.648 35.588C102.65 35.5734 102.65 35.5586 102.648 35.544C103.187 35.5181 103.708 35.3468 104.157 35.0483C104.606 34.7498 104.966 34.3352 105.198 33.8486C105.43 33.3621 105.526 32.8217 105.476 32.2849C105.425 31.7481 105.231 31.2349 104.912 30.8C106.292 30.04 107.152 28.324 107.032 26.532C106.932 25 106.208 23.452 104.884 21.924C103.732 20.596 102.58 19.836 101.356 19.6L101.22 19.576C101.028 19.5684 100.84 19.5124 100.675 19.4131C100.51 19.3138 100.373 19.1745 100.276 19.008C99.02 17.408 97.76 16.424 96.408 15.972C94.74 15.416 92.912 15.804 91.876 16.912C91.3308 16.491 90.6753 16.2371 89.9887 16.1809C89.3022 16.1247 88.6141 16.2687 88.0077 16.5954C87.4012 16.9221 86.9025 17.4175 86.5717 18.0217C86.241 18.626 86.0924 19.3131 86.144 20C85.0633 20.1953 84.0568 20.6835 83.2344 21.4114C82.412 22.1393 81.8052 23.079 81.48 24.128C80.872 26.364 81.948 28.928 83.924 29.932C84.124 30.032 84.304 30.144 84.3 30.264C84.2802 30.347 84.2404 30.4239 84.184 30.488L84.148 30.54C83.436 31.548 83.84 32.96 84.58 33.776C85.312 34.4944 86.1947 35.041 87.164 35.376C86.9889 35.6381 86.8831 35.9403 86.8565 36.2544C86.8299 36.5685 86.8834 36.8842 87.012 37.172C87.3181 37.7887 87.8015 38.2998 88.4 38.64C89.884 39.6 91.564 39.74 93.24 39.74ZM95.54 39.308C95.16 39.308 94.776 39.308 94.4 39.308C92.4 39.348 90.34 39.392 88.632 38.288C88.0938 37.9881 87.6577 37.534 87.38 36.984C87.2559 36.7292 87.2143 36.442 87.2609 36.1625C87.3075 35.8829 87.44 35.6248 87.64 35.424C87.6662 35.4017 87.6862 35.3731 87.6981 35.3409C87.71 35.3087 87.7135 35.2739 87.708 35.24C87.7024 35.2056 87.6881 35.1731 87.6664 35.1458C87.6447 35.1185 87.6163 35.0972 87.584 35.084C86.648 34.708 85.584 34.284 84.876 33.484C84.24 32.784 83.884 31.584 84.476 30.744L84.512 30.7C84.6211 30.5743 84.6882 30.4177 84.704 30.252C84.704 29.852 84.324 29.66 84.112 29.552C82.296 28.616 81.312 26.272 81.872 24.208C82.1885 23.2049 82.781 22.3112 83.5818 21.6292C84.3826 20.9472 85.3593 20.5046 86.4 20.352C86.4518 20.3441 86.4984 20.3162 86.5298 20.2743C86.5612 20.2324 86.5749 20.1799 86.568 20.128C86.4894 19.4943 86.6042 18.8517 86.8972 18.2844C87.1902 17.7171 87.6478 17.2515 88.21 16.9488C88.7722 16.6461 89.4128 16.5203 90.0477 16.588C90.6826 16.6556 91.2823 16.9136 91.768 17.328C91.7881 17.3457 91.8116 17.359 91.8371 17.3673C91.8625 17.3756 91.8894 17.3785 91.916 17.376C91.9424 17.374 91.9681 17.3666 91.9916 17.3542C92.015 17.3418 92.0355 17.3247 92.052 17.304C92.952 16.208 94.692 15.808 96.276 16.34C97.552 16.764 98.752 17.708 99.944 19.224C100.085 19.4292 100.263 19.6068 100.468 19.748C100.679 19.8604 100.91 19.931 101.148 19.956L101.276 19.98C102.408 20.2 103.488 20.916 104.58 22.172C105.844 23.632 106.532 25.104 106.628 26.544C106.744 28.272 105.88 29.912 104.52 30.544C104.492 30.5568 104.468 30.5757 104.449 30.5993C104.429 30.6228 104.415 30.6504 104.408 30.68C104.402 30.7101 104.402 30.7413 104.41 30.7711C104.418 30.801 104.432 30.8286 104.452 30.852C104.782 31.2418 104.989 31.7204 105.047 32.2277C105.106 32.735 105.013 33.2482 104.78 33.7028C104.548 34.1573 104.186 34.5329 103.74 34.7823C103.295 35.0316 102.785 35.1435 102.276 35.104C102.23 35.0993 102.185 35.1108 102.147 35.1364C102.109 35.162 102.081 35.2 102.068 35.244C102.054 35.2869 102.056 35.3332 102.072 35.3753C102.088 35.4174 102.117 35.4529 102.156 35.476C102.181 35.4897 102.202 35.5093 102.217 35.533C102.232 35.5567 102.242 35.5838 102.244 35.612C102.237 35.8673 102.131 36.1098 101.948 36.288C100.18 38.216 97.948 39.344 95.992 39.304L95.54 39.308Z" fill="#231F20"/>
<path d="M73.696 93.8921C72.78 93.8921 65.952 94.6321 62.756 96.2201C59.56 97.8081 58.868 97.9321 59.516 100.076C60.164 102.22 65.792 102.748 70.076 101.94C72.8352 101.373 75.4967 100.405 77.976 99.0681L73.696 93.8921Z" fill="white"/>
<path d="M66.036 102.512C67.4028 102.507 68.7662 102.373 70.108 102.112C72.886 101.54 75.5661 100.568 78.064 99.224C78.0872 99.21 78.1073 99.1914 78.1231 99.1694C78.1389 99.1474 78.1501 99.1225 78.156 99.096C78.1606 99.0699 78.1594 99.0431 78.1525 99.0175C78.1456 98.9919 78.1331 98.9682 78.116 98.948L73.836 93.772C73.8202 93.7508 73.7997 93.7335 73.7761 93.7217C73.7525 93.7099 73.7264 93.7038 73.7 93.704H73.66C72.544 93.704 65.876 94.464 62.676 96.052L61.956 96.408C59.392 97.664 58.7 98.008 59.34 100.128C59.744 101.472 62.376 102.512 66.036 102.512ZM77.692 99.012C75.2833 100.284 72.7073 101.209 70.04 101.76C65.74 102.56 60.284 101.992 59.688 100.024C59.14 98.2 59.536 98.004 62.116 96.74L62.836 96.384C65.888 94.868 72.416 94.096 73.612 94.072L77.692 99.012Z" fill="#231F20"/>
<path d="M72.78 93.8719C72.176 94.0199 71.6503 94.3907 71.3083 94.91C70.9663 95.4293 70.8333 96.0587 70.936 96.6719C71.236 98.9479 76.048 99.0439 76.324 99.0719C76.6 99.0999 72.78 93.8719 72.78 93.8719Z" fill="white"/>
<path d="M76.324 99.2001C76.3597 99.199 76.3945 99.1889 76.4253 99.1707C76.4561 99.1525 76.4818 99.1268 76.5 99.0961C76.56 98.9761 76.656 98.7921 72.9279 93.748C72.9066 93.7186 72.8768 93.6964 72.8425 93.6843C72.8082 93.6721 72.7711 93.6707 72.7359 93.68C72.7159 93.68 70.4359 94.2521 70.7359 96.6641C71.0399 98.9801 75.424 99.1841 76.3 99.2001H76.324ZM72.7239 94.068C73.8959 95.6681 75.64 98.0681 76.076 98.8281C74.98 98.7761 71.3759 98.4681 71.1319 96.6161C71.038 96.0741 71.1467 95.5166 71.4373 95.0496C71.7279 94.5827 72.1802 94.239 72.7079 94.0841L72.7239 94.068Z" fill="#231F20"/>
<path d="M108.444 99.084C108.584 99.156 109.892 100.856 115.596 101.536C121.3 102.216 123.416 103.444 124.688 100.448C125.96 97.452 125.088 95.516 122.288 94.66C119.488 93.804 111.732 93.096 110.212 94.528C108.692 95.96 108.444 99.084 108.444 99.084Z" fill="white"/>
<path d="M121.872 102.552C123.284 102.552 124.192 102.08 124.856 100.52C125.52 98.96 125.62 97.62 125.136 96.584C124.688 95.624 123.744 94.916 122.336 94.488C119.704 93.688 111.708 92.864 110.084 94.396C108.528 95.86 108.28 98.94 108.268 99.068C108.266 99.1019 108.273 99.1357 108.289 99.1659C108.304 99.1961 108.327 99.2217 108.356 99.24L108.412 99.288C110.056 100.784 113.212 101.436 115.58 101.716C116.808 101.864 117.864 102.036 118.78 102.188C119.8 102.385 120.834 102.507 121.872 102.552V102.552ZM114.488 93.888C117.228 93.888 120.548 94.324 122.22 94.836C123.532 95.236 124.404 95.876 124.804 96.74C125.244 97.676 125.148 98.9 124.52 100.376C123.58 102.596 122.192 102.376 118.848 101.828C117.912 101.676 116.848 101.504 115.616 101.356C113.304 101.08 110.22 100.448 108.648 99.016C108.704 98.492 109.048 95.904 110.34 94.672C110.916 94.104 112.56 93.888 114.488 93.888Z" fill="#231F20"/>
<path d="M106.624 97.86C106.624 97.86 109.212 100.02 110.936 99.764C112.66 99.508 115.044 98.564 114.084 96.704C113.124 94.844 106.944 93.724 106.944 93.724L106.624 97.86Z" fill="white"/>
<path d="M110.64 99.968C110.748 99.9682 110.857 99.9601 110.964 99.944C112.256 99.752 113.816 99.2 114.316 98.22C114.439 97.969 114.498 97.6909 114.486 97.4114C114.474 97.1318 114.392 96.8597 114.248 96.62C113.256 94.692 107.232 93.592 106.976 93.544C106.951 93.5397 106.925 93.5407 106.9 93.5469C106.875 93.5531 106.852 93.5644 106.832 93.58C106.812 93.5961 106.795 93.616 106.783 93.6387C106.77 93.6614 106.763 93.6863 106.76 93.712L106.44 97.844C106.438 97.8732 106.442 97.9025 106.454 97.9296C106.465 97.9567 106.482 97.9808 106.504 98C106.608 98.084 108.884 99.968 110.64 99.968ZM107.108 93.944C108.168 94.152 113.108 95.204 113.908 96.788C114.026 96.9762 114.095 97.1911 114.107 97.4128C114.12 97.6345 114.076 97.8558 113.98 98.056C113.54 98.908 112.1 99.404 110.896 99.584C109.428 99.804 107.224 98.116 106.8 97.78L107.108 93.944Z" fill="#231F20"/>
<path d="M75.536 79.716C75.536 79.716 78.264 90.356 88.22 92.388C98.176 94.42 103.328 93.884 106.856 87.164C110.384 80.444 108.056 76.332 108.056 76.332L76.636 75.708L75.536 79.716Z" fill="#231F20"/>
<path d="M96.432 93.632C101.232 93.632 104.564 91.9599 107.036 87.2559C110.572 80.5159 108.32 76.4039 108.236 76.2319C108.219 76.2017 108.193 76.1766 108.163 76.159C108.133 76.1415 108.099 76.1322 108.064 76.1319L76.644 75.5079C76.5987 75.5056 76.554 75.5191 76.5175 75.5461C76.481 75.5731 76.455 75.6119 76.444 75.6559L75.356 79.6559C75.348 79.6901 75.348 79.7257 75.356 79.7599C75.384 79.8679 78.228 90.5599 88.196 92.5799C91.344 93.2319 94.068 93.632 96.432 93.632ZM107.924 76.5279C108.236 77.1879 109.812 81.0999 106.68 87.0719C103.1 93.8719 97.88 94.1599 88.28 92.1919C78.908 90.2799 75.984 80.4999 75.764 79.7159L76.8 75.9119L107.924 76.5279Z" fill="#231F20"/>
<path d="M110.4 79.812C110.4 79.812 115.548 63.172 114.872 52.744C114.196 42.316 110.32 41.944 105.032 41.356C102.684 41.092 90.176 39.24 85.492 44.752C80.808 50.264 72.564 76.08 72.564 76.08L110.4 79.812Z" fill="#BB86FC"/>
<path d="M91.82 41.384L92.62 46.952C92.62 46.952 94.372 49.828 97.88 48.372C101.388 46.916 101.456 44.232 101.456 44.232L99.792 33.944C99.792 33.944 96.092 30.624 94.536 24.28C94.536 24.28 91.436 29.688 86.936 30.904C86.936 30.904 87.236 35.396 88.04 38.18C88.84 40.872 91.764 41.352 91.82 41.384Z" fill="white"/>
<path d="M96 48.98C96.6804 48.9718 97.3522 48.8276 97.976 48.556C101.576 47.068 101.672 44.352 101.676 44.236L100 33.912C99.9919 33.8662 99.9695 33.8242 99.936 33.792C99.9 33.76 96.264 30.44 94.736 24.232C94.725 24.1939 94.7034 24.1597 94.6736 24.1335C94.6439 24.1072 94.6072 24.0901 94.568 24.084C94.5289 24.0785 94.4891 24.0846 94.4535 24.1017C94.4179 24.1188 94.3882 24.146 94.368 24.18C94.336 24.236 91.252 29.532 86.896 30.708C86.851 30.72 86.8115 30.7473 86.7845 30.7853C86.7575 30.8233 86.7446 30.8695 86.748 30.916C86.748 30.96 87.06 35.464 87.86 38.236C88.52 40.52 90.66 41.304 91.636 41.544L92.436 46.98C92.4397 47.0065 92.4478 47.0322 92.46 47.056C92.8542 47.6354 93.3811 48.1123 93.9969 48.447C94.6126 48.7817 95.2994 48.9644 96 48.98V48.98ZM99.6 34.04L101.256 44.264C101.256 44.328 101.136 46.8 97.8 48.188C94.684 49.48 93 47.18 92.808 46.88L92.008 41.356C92.0043 41.3257 91.9933 41.2967 91.9758 41.2716C91.9584 41.2465 91.9351 41.2261 91.908 41.212C91.8712 41.1906 91.8303 41.177 91.788 41.172C90.928 40.968 88.856 40.26 88.24 38.124C87.536 35.688 87.216 31.88 87.156 31.052C90.916 29.948 93.644 26.072 94.46 24.788C95.98 30.42 99.168 33.6 99.6 34.04Z" fill="#231F20"/>
<path d="M97.636 34.1C97.6809 33.5796 97.8944 33.0881 98.244 32.7C98.5839 32.3514 98.9818 32.0645 99.42 31.852C99.6472 31.7115 99.9026 31.6228 100.168 31.592C100.356 31.5939 100.542 31.6305 100.716 31.7C101.142 31.8359 101.505 32.1197 101.74 32.5C101.895 32.8227 101.967 33.1785 101.952 33.536C101.968 33.9229 101.933 34.3102 101.848 34.688C101.754 35.0653 101.586 35.42 101.353 35.7313C101.12 36.0426 100.827 36.3043 100.492 36.501C100.157 36.6977 99.7856 36.8255 99.4002 36.8769C99.0148 36.9282 98.6231 36.9021 98.248 36.8" fill="white"/>
<path d="M99.008 37.0841C99.7041 37.0847 100.38 36.8529 100.93 36.4253C101.479 35.9978 101.87 35.399 102.04 34.7241C102.133 34.3312 102.17 33.9273 102.152 33.5241C102.166 33.1345 102.085 32.7473 101.916 32.3961C101.661 31.9779 101.265 31.6644 100.8 31.5121C100.601 31.4347 100.39 31.3941 100.176 31.3921C99.8797 31.4233 99.594 31.5203 99.34 31.6761C98.8827 31.8993 98.4673 32.1997 98.112 32.5641C97.7326 32.9855 97.5009 33.5191 97.452 34.0841C97.4487 34.1369 97.466 34.189 97.5003 34.2293C97.5346 34.2696 97.5833 34.295 97.636 34.3001C97.6886 34.3025 97.7402 34.2848 97.7803 34.2506C97.8203 34.2165 97.846 34.1684 97.852 34.1161C97.8913 33.6402 98.0835 33.1897 98.4 32.8321C98.7251 32.5019 99.1055 32.2311 99.524 32.0321C99.7235 31.9042 99.9489 31.8222 100.184 31.7921C100.346 31.7934 100.506 31.826 100.656 31.8881C101.034 32.0047 101.359 32.2494 101.576 32.5801C101.712 32.8755 101.775 33.1992 101.76 33.5241C101.779 33.8936 101.746 34.264 101.66 34.6241C101.572 34.9742 101.415 35.3034 101.199 35.5924C100.983 35.8815 100.711 36.1246 100.4 36.3078C100.089 36.4909 99.7442 36.6103 99.3864 36.6591C99.0287 36.7079 98.6648 36.6852 98.316 36.5921C98.2651 36.5786 98.2109 36.5857 98.1652 36.6119C98.1196 36.6381 98.086 36.6813 98.072 36.7321C98.0654 36.7576 98.0639 36.7841 98.0675 36.8102C98.0712 36.8362 98.08 36.8613 98.0934 36.884C98.1067 36.9066 98.1244 36.9265 98.1455 36.9423C98.1665 36.9581 98.1905 36.9696 98.216 36.9761C98.474 37.0473 98.7404 37.0837 99.008 37.0841V37.0841Z" fill="#231F20"/>
<path d="M92.608 32.512C92.608 32.512 91.036 35.612 91.552 36.056C92.068 36.5 93.308 36.012 93.308 36.012" fill="white"/>
<path d="M92.196 36.444C92.6069 36.4313 93.0127 36.3488 93.396 36.2C93.4204 36.1903 93.4427 36.1759 93.4616 36.1575C93.4804 36.1392 93.4955 36.1174 93.5059 36.0932C93.5163 36.0691 93.5218 36.0431 93.5222 36.0168C93.5226 35.9905 93.5177 35.9644 93.508 35.94C93.4876 35.8913 93.4491 35.8524 93.4006 35.8315C93.3521 35.8107 93.2974 35.8094 93.248 35.828C92.956 35.94 92.048 36.2 91.7 35.904C91.488 35.728 92.016 34.152 92.8 32.6C92.8123 32.5767 92.8198 32.5512 92.822 32.5249C92.8242 32.4987 92.8211 32.4723 92.8129 32.4473C92.8047 32.4223 92.7915 32.3992 92.7742 32.3794C92.7568 32.3596 92.7357 32.3434 92.712 32.332C92.6646 32.3093 92.6102 32.3058 92.5603 32.3222C92.5104 32.3386 92.4687 32.3736 92.444 32.42C91.952 33.396 90.864 35.716 91.436 36.208C91.6551 36.3708 91.9232 36.454 92.196 36.444V36.444Z" fill="#231F20"/>
<path d="M94.5608 31.8113C94.5306 31.4414 94.7204 31.1241 94.9846 31.1025C95.2488 31.081 95.4875 31.3634 95.5176 31.7333C95.5478 32.1032 95.358 32.4205 95.0938 32.4421C94.8296 32.4636 94.5909 32.1812 94.5608 31.8113Z" fill="#231F20"/>
<path d="M89.6052 32.496C89.5776 32.1259 89.7696 31.8099 90.0339 31.7902C90.2983 31.7705 90.5349 32.0546 90.5625 32.4247C90.5901 32.7948 90.3981 33.1108 90.1338 33.1305C89.8694 33.1502 89.6327 32.8661 89.6052 32.496Z" fill="#231F20"/>
<path d="M93.016 38.924C93.6276 38.9348 94.2328 38.7975 94.78 38.524C95.736 38.024 96.348 37.068 96.6 35.684C96.6046 35.658 96.604 35.6313 96.5982 35.6056C96.5924 35.5798 96.5816 35.5554 96.5663 35.5338C96.5511 35.5123 96.5317 35.4939 96.5094 35.4799C96.487 35.4659 96.462 35.4564 96.436 35.452C96.3842 35.4437 96.3311 35.4557 96.2879 35.4855C96.2447 35.5153 96.2146 35.5606 96.204 35.612C95.98 36.868 95.436 37.728 94.604 38.168C92.924 39.048 90.56 37.984 90.536 37.972C90.4877 37.9504 90.4328 37.9488 90.3833 37.9675C90.3339 37.9862 90.2938 38.0238 90.272 38.072C90.2607 38.0959 90.2544 38.1217 90.2533 38.148C90.2523 38.1744 90.2565 38.2006 90.2659 38.2253C90.2752 38.2499 90.2894 38.2724 90.3076 38.2915C90.3259 38.3105 90.3478 38.3257 90.372 38.336C91.2074 38.7 92.1051 38.8996 93.016 38.924V38.924Z" fill="#231F20"/>
<path d="M91.82 41.3841C91.82 41.3841 95.42 41.6801 97.276 40.2161C97.276 40.2161 95.696 45.2161 92.376 45.2001L91.82 41.3841Z" fill="#231F20"/>
<path d="M92.4 45.4C95.816 45.4 97.408 40.484 97.476 40.276C97.4878 40.235 97.4864 40.1913 97.4721 40.1512C97.4577 40.111 97.4311 40.0763 97.396 40.052C97.3623 40.0257 97.3208 40.0115 97.278 40.0115C97.2353 40.0115 97.1938 40.0257 97.16 40.052C95.372 41.448 91.8801 41.18 91.8441 41.176C91.8143 41.1739 91.7844 41.1785 91.7566 41.1895C91.7288 41.2004 91.7039 41.2175 91.6835 41.2393C91.6632 41.2612 91.648 41.2873 91.6391 41.3158C91.6302 41.3443 91.6278 41.3745 91.6321 41.404L92.1881 45.224C92.1966 45.2738 92.2227 45.3189 92.2616 45.3511C92.3004 45.3834 92.3495 45.4007 92.4 45.4V45.4ZM96.88 40.72C96.372 41.972 94.932 44.872 92.556 44.996L92.0641 41.6C92.8321 41.632 95.2 41.656 96.872 40.72H96.88Z" fill="#231F20"/>
<path d="M108.996 42.284C116.384 41.364 123.32 72.728 119.288 75.708C113 80.36 93.808 74.008 93.808 74.008L95.728 65.732C95.728 65.732 109.58 66.392 109.832 63.548C110.084 60.704 102.092 47.372 103.212 45.428C104.332 43.484 108.996 42.284 108.996 42.284Z" fill="#BB86FC"/>
<path d="M83.2 65.9641C83.2441 65.9654 83.2871 65.95 83.3204 65.9211C83.3537 65.8922 83.375 65.8519 83.38 65.8081C84.332 59.1201 86.42 47.9201 87.096 47.2641C87.1289 47.2297 87.1472 47.1838 87.147 47.1362C87.1469 47.0886 87.1283 47.043 87.0951 47.0088C87.062 46.9746 87.0169 46.9546 86.9693 46.953C86.9217 46.9514 86.8754 46.9682 86.84 47.0001C85.972 47.8441 83.74 60.6921 83.02 65.7561C83.0131 65.8043 83.0257 65.8533 83.055 65.8923C83.0842 65.9313 83.1277 65.9571 83.176 65.9641H83.2Z" fill="#231F20"/>
<path d="M90.268 81.788L103.02 78.216L79.6 73.812L66.924 79.124L90.268 81.788Z" fill="white"/>
<path d="M90.268 82C90.2852 82.0038 90.3029 82.0038 90.32 82L103.072 78.4C103.125 78.4 103.176 78.3789 103.213 78.3414C103.251 78.3039 103.272 78.253 103.272 78.2C103.272 78.147 103.251 78.0961 103.213 78.0586C103.176 78.0211 103.125 78 103.072 78L79.652 73.6C79.6157 73.5881 79.5764 73.5881 79.54 73.6L66.864 78.912C66.8235 78.9292 66.7897 78.9593 66.768 78.9976C66.7463 79.036 66.7379 79.0804 66.744 79.124C66.75 79.1682 66.7706 79.2091 66.8025 79.2403C66.8343 79.2714 66.8757 79.2911 66.92 79.296L90.244 82H90.268ZM102.14 78.268L90.252 81.6L67.708 79.028L79.624 74.036L102.14 78.268Z" fill="#231F20"/>
<path d="M97.792 68.592C94.992 68.9 92.396 69.1 89.792 70.192C88.304 70.817 86.8987 71.6231 85.608 72.592C84.9503 73.0587 84.3358 73.5835 83.772 74.16C83.324 74.648 83.468 75.124 84.22 74.888C85.0944 74.6141 85.9225 74.2095 86.676 73.688C84.8743 75.1579 83.2774 76.8624 81.928 78.756C81.776 78.972 81.628 79.28 81.808 79.472C81.988 79.664 82.388 79.472 82.608 79.272L86.564 75.52C85.5167 76.4235 84.626 77.494 83.928 78.688C83.828 78.86 83.732 79.088 83.836 79.244C84.012 79.536 84.46 79.316 84.7 79.072C85.8849 77.8756 86.9624 76.5772 87.92 75.192L85.784 78.392C85.8042 78.451 85.8359 78.5055 85.8773 78.5522C85.9187 78.5988 85.9689 78.6369 86.0251 78.664C86.0812 78.6912 86.1422 78.7069 86.2045 78.7104C86.2668 78.7138 86.3292 78.7048 86.388 78.684C86.6232 78.5869 86.8268 78.4262 86.976 78.22L89.564 75.248L88.036 77.352C87.796 77.68 87.556 78.152 87.832 78.46C88.108 78.768 88.732 78.46 89.084 78.148C90.4998 76.856 92.0547 75.7251 93.72 74.776C94.324 74.42 94.84 73.936 95.508 73.732C96.468 73.436 97.668 73.476 98.668 73.364" fill="white"/>
<path d="M82 79.744C82.2672 79.7138 82.5159 79.5923 82.704 79.4L83.984 78.2C83.9 78.332 83.816 78.468 83.74 78.6C83.659 78.7042 83.6077 78.8284 83.5915 78.9593C83.5753 79.0903 83.5948 79.2232 83.648 79.344C83.6838 79.4056 83.7336 79.458 83.7933 79.4969C83.8531 79.5358 83.9211 79.5602 83.992 79.568C84.1433 79.5661 84.2925 79.5327 84.4302 79.4701C84.5679 79.4074 84.6911 79.3168 84.792 79.204C85.056 78.94 85.312 78.672 85.564 78.404C85.5622 78.4186 85.5622 78.4334 85.564 78.448C85.5791 78.522 85.6098 78.592 85.6539 78.6534C85.698 78.7147 85.7546 78.7661 85.82 78.804C85.9063 78.8557 86.0023 78.889 86.1021 78.9021C86.2018 78.9152 86.3032 78.9077 86.4 78.88C86.6691 78.7745 86.9023 78.594 87.072 78.36L87.544 77.82C87.4851 77.9503 87.4643 78.0946 87.4842 78.2362C87.504 78.3778 87.5636 78.5109 87.656 78.62C87.7136 78.6845 87.7837 78.7365 87.8621 78.773C87.9405 78.8094 88.0255 78.8295 88.112 78.832C88.5297 78.7864 88.9165 78.5902 89.2 78.28C90.6019 76.995 92.1451 75.8731 93.8 74.936C94.004 74.816 94.2 74.68 94.392 74.536C94.7414 74.2635 95.1315 74.0475 95.548 73.896C96.2454 73.7195 96.9607 73.6229 97.68 73.608C98.024 73.588 98.36 73.568 98.676 73.536C98.7242 73.53 98.768 73.5052 98.798 73.467C98.828 73.4288 98.8416 73.3803 98.836 73.332C98.8335 73.3083 98.8263 73.2854 98.8149 73.2645C98.8035 73.2435 98.788 73.2251 98.7694 73.2102C98.7508 73.1954 98.7294 73.1843 98.7065 73.1777C98.6836 73.1712 98.6596 73.1692 98.636 73.172C98.324 73.204 97.996 73.224 97.66 73.244C96.9109 73.2583 96.166 73.359 95.44 73.544C94.9891 73.7089 94.5656 73.9408 94.184 74.232C94 74.364 93.812 74.492 93.616 74.608C91.9384 75.5612 90.3727 76.699 88.948 78C88.7316 78.22 88.4519 78.3668 88.148 78.42C88.1108 78.4187 88.0742 78.4099 88.0406 78.394C88.0069 78.3782 87.9768 78.3558 87.952 78.328C87.736 78.092 88.032 77.632 88.168 77.444L89.696 75.344C89.7103 75.3257 89.7208 75.3047 89.7269 75.2823C89.733 75.2598 89.7346 75.2364 89.7317 75.2133C89.7287 75.1903 89.7212 75.168 89.7096 75.1479C89.6979 75.1278 89.6824 75.1101 89.664 75.096C89.6303 75.063 89.5851 75.0446 89.538 75.0446C89.4909 75.0446 89.4456 75.063 89.412 75.096L86.82 78.068C86.6935 78.245 86.5204 78.3835 86.32 78.468C86.2726 78.4813 86.2231 78.4849 86.1743 78.4788C86.1255 78.4726 86.0785 78.4567 86.036 78.432C86.0105 78.4187 85.9885 78.3995 85.972 78.376L88.056 75.244C88.083 75.2042 88.0932 75.1553 88.0842 75.1081C88.0752 75.0608 88.0478 75.0191 88.008 74.992C87.9682 74.965 87.9193 74.9548 87.872 74.9638C87.8248 74.9728 87.783 75.0002 87.756 75.04C86.8027 76.4154 85.7321 77.7056 84.556 78.896C84.4257 79.039 84.2481 79.1299 84.056 79.152C84.0402 79.1516 84.0247 79.1469 84.0114 79.1385C83.998 79.13 83.9871 79.1181 83.98 79.104C83.936 79.036 83.98 78.908 84.072 78.732C84.5535 77.908 85.1294 77.1428 85.788 76.452L86.68 75.604C86.7088 75.5697 86.7242 75.526 86.7231 75.4812C86.7221 75.4364 86.7047 75.3935 86.6742 75.3606C86.6438 75.3277 86.6023 75.307 86.5577 75.3025C86.5131 75.298 86.4684 75.3099 86.432 75.336C86.116 75.608 85.816 75.892 85.528 76.192L82.472 79.092C82.3532 79.227 82.19 79.315 82.012 79.34C81.9958 79.3407 81.9797 79.3374 81.965 79.3304C81.9504 79.3234 81.9377 79.313 81.928 79.3C81.836 79.204 81.928 78.988 82.06 78.812C83.3995 76.9323 84.9842 75.24 86.772 73.78C86.8047 73.7489 86.8249 73.7068 86.8286 73.6618C86.8323 73.6168 86.8194 73.572 86.7922 73.5359C86.765 73.4998 86.7255 73.475 86.6812 73.4662C86.6369 73.4574 86.5909 73.4651 86.552 73.488C85.8165 73.9999 85.0072 74.3965 84.152 74.664C83.872 74.752 83.724 74.716 83.696 74.664C83.668 74.612 83.696 74.436 83.892 74.228C84.447 73.6585 85.0536 73.1417 85.704 72.684C86.982 71.7252 88.374 70.9285 89.848 70.312C92.196 69.332 94.544 69.08 97.048 68.812L97.828 68.724C97.8517 68.7215 97.8746 68.7144 97.8955 68.7029C97.9164 68.6915 97.9349 68.6761 97.9498 68.6574C97.9646 68.6388 97.9757 68.6175 97.9822 68.5946C97.9888 68.5717 97.9907 68.5477 97.988 68.524C97.9855 68.5003 97.9783 68.4774 97.9669 68.4565C97.9555 68.4355 97.94 68.4171 97.9214 68.4022C97.9028 68.3874 97.8814 68.3763 97.8585 68.3698C97.8356 68.3632 97.8116 68.3612 97.788 68.364L96.988 68.448C94.472 68.72 92.1 68.976 89.704 69.976C88.2021 70.5982 86.7832 71.4043 85.48 72.376C84.8113 72.8516 84.1874 73.3872 83.616 73.976C83.328 74.288 83.24 74.628 83.384 74.856C83.468 74.984 83.692 75.176 84.256 75C84.5814 74.9005 84.9007 74.7817 85.212 74.644C83.9331 75.8407 82.7767 77.1619 81.76 78.588C81.484 78.988 81.448 79.312 81.652 79.536C81.6956 79.5841 81.7487 79.6228 81.8078 79.6496C81.867 79.6764 81.931 79.6909 81.996 79.692L82 79.744Z" fill="#231F20"/>
<path d="M66.924 79.1239L61.088 63.5039L84.924 63.9759L90.268 81.7879L66.924 79.1239Z" fill="white"/>
<path d="M90.268 82.0001C90.2971 82.0004 90.326 81.9941 90.3523 81.9816C90.3786 81.9691 90.4018 81.9508 90.42 81.9281C90.441 81.9029 90.4555 81.873 90.4625 81.841C90.4695 81.8089 90.4686 81.7757 90.46 81.7441L85.116 63.9321C85.103 63.8918 85.0781 63.8564 85.0445 63.8307C85.0109 63.805 84.9703 63.7901 84.928 63.7881L61.092 63.3161C61.0593 63.3156 61.027 63.323 60.9978 63.3376C60.9685 63.3522 60.9432 63.3736 60.924 63.4001C60.9066 63.427 60.8954 63.4575 60.8913 63.4894C60.8871 63.5212 60.8901 63.5535 60.9 63.5841L66.736 79.1841C66.7491 79.2194 66.7717 79.2505 66.8013 79.2738C66.831 79.2971 66.8665 79.3117 66.904 79.3161L90.244 82.0001H90.268ZM84.772 64.1841L89.972 81.5681L67.052 78.9521L61.364 63.7201L84.772 64.1841Z" fill="#231F20"/>
<path d="M68.196 79.268C68.196 79.268 61.728 84.52 64 89.336C66.272 94.152 107.6 99.656 107.6 99.656L109.46 93.36C109.46 93.36 77.04 76.8 68.196 79.268Z" fill="#231F20"/>
<path d="M107.6 99.856C107.643 99.8554 107.685 99.8411 107.719 99.8152C107.754 99.7894 107.779 99.7532 107.792 99.712L109.652 93.416C109.666 93.3718 109.664 93.3239 109.646 93.2813C109.627 93.2386 109.594 93.2041 109.552 93.184C109.472 93.14 101.34 89 92.228 85.208C79.968 80.108 71.868 78.044 68.156 79.076C68.128 79.0837 68.1021 79.0973 68.08 79.116C66.9513 80.075 65.9486 81.1731 65.096 82.384C63.312 84.952 62.88 87.384 63.848 89.424C66.16 94.28 105.884 99.628 107.572 99.852L107.6 99.856ZM109.224 93.456L107.456 99.424C104.568 99.024 66.356 93.752 64.208 89.244C62.096 84.796 67.808 79.848 68.304 79.444C76.712 77.2 106.8 92.256 109.2 93.464L109.224 93.456Z" fill="#231F20"/>
<path d="M111.6 76.856C111.6 76.856 79.508 89.832 71.552 93.256L76.176 100.4C76.176 100.4 105.808 99.82 114.304 92.376C122.8 84.932 122.236 72.54 111.6 76.856Z" fill="#231F20"/>
<path d="M76.1761 100.608C76.2481 100.608 83.692 100.452 92.076 99.388C103.356 97.952 110.876 95.648 114.432 92.532C118.88 88.636 121.996 81.796 119.548 77.824C118.748 76.504 116.612 74.604 111.516 76.668C111.196 76.8 79.332 89.688 71.4641 93.068C71.4372 93.0789 71.4132 93.0957 71.3939 93.1172C71.3745 93.1386 71.3602 93.1642 71.3521 93.192C71.344 93.2201 71.342 93.2496 71.3461 93.2786C71.3503 93.3075 71.3605 93.3353 71.3761 93.36L76 100.516C76.0188 100.545 76.045 100.569 76.0758 100.585C76.1067 100.602 76.1412 100.609 76.1761 100.608ZM115.54 76.16C117.184 76.16 118.444 76.792 119.212 78.032C121.1 81.1 119.528 87.54 114.172 92.232C106.088 99.316 78.2801 100.156 76.2841 100.204L71.8441 93.344C80.06 89.824 111.352 77.168 111.672 77.04C112.894 76.5035 114.206 76.2048 115.54 76.16Z" fill="#231F20"/>
<path d="M66.8 72.888C66.7655 73.0726 66.6858 73.2457 66.568 73.392L65.944 74.324C65.9668 74.2277 66.0104 74.1376 66.0719 74.06C66.1333 73.9824 66.211 73.9193 66.2995 73.875C66.388 73.8308 66.4852 73.8065 66.5841 73.8039C66.683 73.8013 66.7813 73.8204 66.872 73.86C67.0492 73.9559 67.1964 74.0989 67.2974 74.2733C67.3983 74.4477 67.4491 74.6466 67.444 74.848C67.4261 75.2503 67.331 75.6455 67.164 76.012C66.72 77.164 65.716 78.848 64.264 77.976C63.28 77.384 63.008 75.296 62.868 74.256C62.592 72.208 63.22 69.576 65.852 69.976C65.7761 70.9845 65.3999 71.9472 64.772 72.74C65.2 72.324 66.932 71.68 66.8 72.888Z" fill="white"/>
<path d="M65.068 78.4001C65.2288 78.4012 65.3886 78.3741 65.54 78.3201C66.488 77.9961 67.08 76.7761 67.348 76.0761C67.5226 75.6876 67.6216 75.2695 67.64 74.8441C67.6466 74.6076 67.5857 74.3741 67.4646 74.1708C67.3435 73.9675 67.1671 73.8029 66.956 73.6961C66.8581 73.6515 66.7517 73.6283 66.644 73.6281L66.732 73.4961C66.8686 73.3242 66.9594 73.1205 66.996 72.9041C67.0279 72.7452 67.0058 72.5803 66.9334 72.4354C66.8609 72.2905 66.7422 72.1739 66.596 72.1041C66.1859 71.9774 65.743 72.0103 65.356 72.1961C65.7403 71.5245 65.9699 70.7756 66.028 70.0041C66.0307 69.9579 66.0162 69.9124 65.9874 69.8763C65.9587 69.8401 65.9176 69.8159 65.872 69.8081C65.4717 69.7205 65.0561 69.7315 64.661 69.8402C64.2659 69.9489 63.9032 70.152 63.604 70.4321C62.664 71.3601 62.508 73.0321 62.68 74.2921C62.836 75.4441 63.116 77.5121 64.164 78.1441C64.4352 78.313 64.7486 78.4018 65.068 78.4001V78.4001ZM66.62 74.0001C66.6845 73.9992 66.7484 74.0115 66.808 74.0361C66.9536 74.1175 67.0739 74.2375 67.1558 74.3829C67.2376 74.5283 67.2778 74.6934 67.272 74.8601C67.2563 75.2391 67.1666 75.6114 67.008 75.9561C66.808 76.4681 66.256 77.6961 65.408 77.9841C65.2331 78.04 65.0476 78.0551 64.8659 78.028C64.6842 78.001 64.5111 77.9326 64.36 77.8281C63.46 77.2881 63.188 75.2561 63.056 74.2801C62.892 73.0801 63.024 71.5201 63.856 70.6801C64.0921 70.4578 64.3762 70.2928 64.6862 70.1978C64.9962 70.1028 65.3239 70.0803 65.644 70.1321C65.5411 71.0425 65.1849 71.9058 64.616 72.6241C64.5868 72.66 64.5726 72.7059 64.5763 72.7521C64.58 72.7983 64.6014 72.8413 64.636 72.8721C64.6701 72.9041 64.7152 72.922 64.762 72.922C64.8088 72.922 64.8539 72.9041 64.888 72.8721C65.156 72.6081 66.04 72.2321 66.436 72.4241C66.524 72.4641 66.636 72.5561 66.608 72.8681C66.5731 73.0223 66.5048 73.167 66.408 73.2921L66.072 73.7881C65.9839 73.8452 65.9096 73.921 65.8543 74.0103C65.7989 74.0995 65.764 74.1998 65.752 74.3041C65.7478 74.3449 65.7573 74.3859 65.779 74.4207C65.8007 74.4555 65.8335 74.482 65.872 74.4961C65.9103 74.5098 65.9521 74.5101 65.9906 74.497C66.0291 74.484 66.062 74.4583 66.084 74.4241L66.332 74.0561C66.4215 74.0127 66.5208 73.9934 66.62 74.0001Z" fill="#231F20"/>
<path d="M75.812 91.776C75.8372 91.7798 75.8628 91.7798 75.888 91.776C76.588 91.504 93.132 85.0999 96.86 82.8159C96.9064 82.787 96.9395 82.741 96.9522 82.6879C96.965 82.6347 96.9563 82.5787 96.928 82.5319C96.9141 82.5086 96.8956 82.4882 96.8737 82.4721C96.8517 82.456 96.8268 82.4444 96.8003 82.4381C96.7739 82.4318 96.7464 82.4308 96.7196 82.4352C96.6927 82.4397 96.667 82.4494 96.644 82.464C92.948 84.728 75.912 91.324 75.74 91.388C75.6886 91.4077 75.6471 91.4469 75.6246 91.4972C75.6021 91.5474 75.6005 91.6045 75.62 91.656C75.6366 91.6927 75.6637 91.7237 75.6978 91.745C75.732 91.7664 75.7717 91.7772 75.812 91.776Z" fill="white"/>
<path d="M95.108 65.656C91.4607 65.656 88.504 62.8569 88.504 59.404C88.504 55.9511 91.4607 53.152 95.108 53.152C98.7553 53.152 101.712 55.9511 101.712 59.404C101.712 62.8569 98.7553 65.656 95.108 65.656Z" fill="#231F20"/>
<path d="M95.108 65.852C98.86 65.852 101.908 62.96 101.908 59.404C101.908 55.848 98.856 52.952 95.108 52.952C91.36 52.952 88.308 55.848 88.308 59.404C88.308 62.96 91.356 65.852 95.108 65.852ZM95.108 53.352C98.64 53.352 101.508 56.068 101.508 59.404C101.508 62.74 98.636 65.452 95.108 65.452C91.58 65.452 88.708 62.74 88.708 59.404C88.708 56.068 91.576 53.352 95.108 53.352Z" fill="#231F20"/>
<path d="M98.592 61.4361L100.192 60.5001V59.2641L98.592 58.3281C98.0587 58.0214 97.5253 57.7094 96.992 57.3921V58.8881C97.276 59.0641 97.56 59.2361 97.844 59.4001C98.128 59.5641 98.408 59.7321 98.696 59.9121L97.844 60.3841L96.992 60.8601V62.3721L98.592 61.4361Z" fill="white"/>
<path d="M96.54 62.7681L94.656 55.6001L93.672 56.0441L95.564 63.2001L96.54 62.7681Z" fill="white"/>
<path d="M91.6 58.3281L90 59.2641V60.5001L91.6 61.4361L93.2 62.3721V60.8601L92.348 60.3841L91.496 59.9121C91.78 59.7321 92.064 59.5601 92.348 59.4001C92.632 59.2401 92.912 59.0641 93.2 58.8881V57.3921L91.6 58.3281Z" fill="white"/>
<path d="M108.8 76.8C108.853 76.8032 108.905 76.7852 108.945 76.7499C108.985 76.7147 109.009 76.6651 109.012 76.612C109.015 76.559 108.997 76.5069 108.962 76.4671C108.927 76.4273 108.877 76.4032 108.824 76.4L99.224 75.236L97.7 67.552L110 66.512C110.029 66.5101 110.058 66.5015 110.084 66.4869C110.109 66.4724 110.131 66.4523 110.148 66.428C110.166 66.4044 110.178 66.3769 110.184 66.3478C110.189 66.3186 110.188 66.2886 110.18 66.26L105.124 47.436C105.11 47.383 105.076 47.3376 105.029 47.3098C104.981 47.2821 104.925 47.2742 104.872 47.288C104.819 47.3018 104.774 47.3361 104.746 47.3834C104.718 47.4306 104.71 47.487 104.724 47.54L109.72 66.136L97.452 67.152C97.4239 67.1551 97.3966 67.1637 97.3719 67.1775C97.3472 67.1912 97.3255 67.2098 97.308 67.232C97.2913 67.2548 97.2794 67.2807 97.2732 67.3083C97.267 67.3358 97.2666 67.3643 97.272 67.392L98.872 75.436C98.8807 75.4772 98.9019 75.5146 98.9327 75.5433C98.9635 75.5719 99.0023 75.5903 99.044 75.596L108.8 76.776V76.8Z" fill="#231F20"/>
<path d="M55.936 22.48H75.88V24.544H55.936V22.48Z" fill="#E6E7E8"/>
<path d="M33.672 22.48H53.616V24.544H33.672V22.48Z" fill="#E6E7E8"/>
<path d="M55.936 26.016H67.644V28.08H55.936V26.016Z" fill="#BB86FC"/>
<path d="M35.9 26.016H53.616V28.08H35.9V26.016Z" fill="#E6E7E8"/>
<path d="M55.936 29.556H70.692V31.62H55.936V29.556Z" fill="#E6E7E8"/>
<path d="M45.296 29.556H53.616V31.62H45.296V29.556Z" fill="#E6E7E8"/>
<path d="M55.932 33.092H64.54V35.156H55.932V33.092Z" fill="#E6E7E8"/>
<path d="M37.3199 33.092H53.616V35.156H37.3199V33.092Z" fill="#BB86FC"/>
<path d="M55.936 36.632H58.676V38.696H55.936V36.632Z" fill="#BB86FC"/>
<path d="M42.668 36.632H53.616V38.696H42.668V36.632Z" fill="#E6E7E8"/>
<path d="M56.28 51.176H74.608V53.54H56.28V51.176Z" fill="#BB86FC"/>
<path d="M42.08 51.176H53.336V53.54H42.08V51.176Z" fill="#E6E7E8"/>
<path d="M56.284 55.224H71.164V57.588H56.284V55.224Z" fill="#E6E7E8"/>
<path d="M36.948 55.224H53.336V57.588H36.948V55.224Z" fill="#E6E7E8"/>
<path d="M56.284 59.276H63.724V61.64H56.284V59.276Z" fill="#E6E7E8"/>
<path d="M33.848 59.276H53.336V61.64H33.848V59.276Z" fill="#E6E7E8"/>
<path d="M56.284 63.328H59.072V65.692H56.284V63.328Z" fill="#E6E7E8"/>
<path d="M32.624 63.328H53.336V65.692H32.624V63.328Z" fill="#BB86FC"/>
<path d="M39.424 67.376H53.336V69.74H39.424V67.376Z" fill="#E6E7E8"/>
<path d="M46.284 46.048L47.788 45.448V44.648L46.284 44.048L44.78 43.448V44.4C45.052 44.516 45.32 44.624 45.58 44.728C45.84 44.832 46.116 44.94 46.38 45.056L45.58 45.36L44.78 45.664V46.632L46.284 46.048Z" fill="#E6E7E8"/>
<path d="M44.336 46.9L42.552 42.312L41.616 42.592L43.412 47.2L44.336 46.9Z" fill="#E6E7E8"/>
<path d="M39.672 44.06C39.172 44.26 38.668 44.46 38.168 44.66V45.46L39.672 46.06L41.176 46.66V45.68L40.376 45.376L39.576 45.072C39.848 44.956 40.116 44.848 40.376 44.744C40.636 44.64 40.912 44.532 41.176 44.416V43.46L39.672 44.06Z" fill="#E6E7E8"/>
<path d="M75.356 17.56C75.3565 17.4673 75.336 17.3757 75.296 17.292C75.261 17.2068 75.2078 17.1304 75.14 17.068C75.0734 17.0065 74.9962 16.9577 74.912 16.924C74.8219 16.8871 74.7254 16.868 74.628 16.868C74.5358 16.8689 74.4448 16.8879 74.36 16.924C74.2775 16.9586 74.2017 17.0074 74.136 17.068C74.072 17.1327 74.0204 17.2087 73.984 17.292C73.947 17.3766 73.9279 17.4678 73.928 17.56C73.928 17.6536 73.947 17.7461 73.984 17.832C74.0216 17.9112 74.073 17.983 74.136 18.044C74.2698 18.169 74.445 18.2402 74.628 18.244C74.7254 18.244 74.8219 18.225 74.912 18.188C74.9969 18.1559 75.0745 18.107 75.14 18.044C75.2066 17.9854 75.2598 17.9131 75.296 17.832C75.3361 17.747 75.3566 17.6541 75.356 17.56V17.56ZM75.356 19.904C75.3541 19.8125 75.334 19.7222 75.2969 19.6384C75.2598 19.5546 75.2065 19.479 75.14 19.416C75.0747 19.3519 74.9972 19.3015 74.912 19.268C74.8216 19.2324 74.7251 19.2148 74.628 19.216C74.5361 19.2155 74.445 19.2332 74.36 19.268C74.2765 19.3025 74.2005 19.3528 74.136 19.416C74.072 19.4792 74.0205 19.5539 73.984 19.636C73.9471 19.7213 73.9281 19.8132 73.9281 19.906C73.9281 19.9989 73.9471 20.0908 73.984 20.176C74.0205 20.257 74.0721 20.3303 74.136 20.392C74.2017 20.4527 74.2775 20.5015 74.36 20.536C74.445 20.5709 74.5361 20.5886 74.628 20.588C74.7251 20.5893 74.8216 20.5717 74.912 20.536C74.9962 20.5024 75.0734 20.4536 75.14 20.392C75.2075 20.3326 75.2608 20.2588 75.296 20.176C75.3365 20.0911 75.357 19.9981 75.356 19.904V19.904Z" fill="#E6E7E8"/>
<path d="M52 84.864C51.8419 84.8722 51.6855 84.8271 51.556 84.736C51.444 84.652 51.392 84.476 51.392 84.204V82.964C51.3923 82.7587 51.3654 82.5542 51.312 82.356C51.2622 82.1713 51.1781 81.9976 51.064 81.844C50.9476 81.6964 50.8001 81.5762 50.632 81.492C50.4319 81.3987 50.2127 81.3535 49.992 81.36H49.092V82.648H49.408C49.4801 82.6409 49.5529 82.6535 49.6184 82.6845C49.6839 82.7155 49.7398 82.7637 49.78 82.824C49.8492 82.9457 49.8838 83.084 49.88 83.224V84.488C49.8755 84.6481 49.9041 84.8074 49.964 84.956C50.0121 85.0708 50.0798 85.1763 50.164 85.268C50.2376 85.347 50.3259 85.4109 50.424 85.456C50.5023 85.4973 50.5879 85.5231 50.676 85.532V85.532C50.589 85.5481 50.5043 85.5749 50.424 85.612C50.3262 85.6541 50.2378 85.7153 50.164 85.792C49.9715 86.0051 49.8696 86.2849 49.88 86.572V87.84C49.885 87.9801 49.8504 88.1187 49.78 88.24C49.7403 88.301 49.6846 88.35 49.619 88.3818C49.5535 88.4135 49.4805 88.4267 49.408 88.42H49.092V89.708H49.992C50.2127 89.7145 50.4319 89.6693 50.632 89.576C50.8001 89.4918 50.9476 89.3716 51.064 89.224C51.1773 89.0699 51.2613 88.8964 51.312 88.712C51.3652 88.5123 51.3921 88.3066 51.392 88.1V86.86C51.3781 86.7653 51.3857 86.6687 51.414 86.5774C51.4424 86.486 51.4909 86.4021 51.556 86.332C51.6855 86.2409 51.8419 86.1958 52 86.204V84.864Z" fill="#E6E7E8"/>
<path d="M38.184 86.196C38.3434 86.1878 38.501 86.2328 38.632 86.324C38.6963 86.3946 38.7444 86.4785 38.7727 86.5697C38.8011 86.661 38.809 86.7573 38.796 86.852V88.092C38.7959 88.2986 38.8228 88.5043 38.876 88.704C38.925 88.889 39.0092 89.0629 39.124 89.216C39.2384 89.3656 39.3864 89.4862 39.556 89.568C39.7561 89.6613 39.9753 89.7065 40.196 89.7H41.096V88.4H40.776C40.7041 88.4059 40.632 88.3924 40.5672 88.3607C40.5024 88.329 40.4474 88.2804 40.408 88.22C40.3377 88.0987 40.303 87.9601 40.308 87.82V86.552C40.3121 86.3932 40.2835 86.2353 40.224 86.088C40.1751 85.9715 40.106 85.8645 40.02 85.772C39.9474 85.6957 39.8604 85.6345 39.764 85.592C39.6821 85.5554 39.5962 85.5286 39.508 85.512V85.512C39.5973 85.5027 39.6841 85.4769 39.764 85.436C39.861 85.3911 39.9481 85.3271 40.02 85.248C40.1069 85.1576 40.1761 85.0518 40.224 84.936C40.2839 84.7874 40.3125 84.6281 40.308 84.468V83.2C40.3043 83.06 40.3388 82.9217 40.408 82.8C40.4479 82.7403 40.5031 82.6925 40.5679 82.6616C40.6326 82.6306 40.7045 82.6176 40.776 82.624H41.096V81.36H40.196C39.9753 81.3535 39.7561 81.3987 39.556 81.492C39.3864 81.5738 39.2384 81.6944 39.124 81.844C39.0084 81.9966 38.9241 82.1706 38.876 82.356C38.8226 82.5542 38.7957 82.7587 38.796 82.964V84.204C38.8093 84.2993 38.8016 84.3963 38.7732 84.4882C38.7449 84.5802 38.6967 84.6648 38.632 84.736C38.501 84.8271 38.3434 84.8722 38.184 84.864V86.196Z" fill="#E6E7E8"/>
</svg>
