<svg width="160" height="120" viewBox="0 0 160 120" fill="none" xmlns="http://www.w3.org/2000/svg">
<path d="M143.772 15.7679H16.2279V104.232H143.772V15.7679Z" fill="white"/>
<path d="M143.772 104.432H16.228C16.1749 104.432 16.124 104.411 16.0865 104.373C16.049 104.336 16.028 104.285 16.028 104.232V15.768C16.028 15.7149 16.049 15.6641 16.0865 15.6266C16.124 15.5891 16.1749 15.568 16.228 15.568H143.772C143.825 15.568 143.876 15.5891 143.913 15.6266C143.951 15.6641 143.972 15.7149 143.972 15.768V104.232C143.972 104.285 143.951 104.336 143.913 104.373C143.876 104.411 143.825 104.432 143.772 104.432ZM16.428 104.032H143.572V15.968H16.428V104.032Z" fill="#231F20"/>
<path d="M142.4 92.152H17.5999C17.5469 92.152 17.496 92.1309 17.4585 92.0934C17.421 92.0559 17.3999 92.005 17.3999 91.952C17.4009 91.8992 17.4223 91.849 17.4596 91.8117C17.4969 91.7744 17.5472 91.753 17.5999 91.752H142.4C142.453 91.753 142.503 91.7744 142.54 91.8117C142.577 91.849 142.599 91.8992 142.6 91.952C142.6 92.005 142.579 92.0559 142.541 92.0934C142.504 92.1309 142.453 92.152 142.4 92.152Z" fill="#D1D3D4"/>
<path d="M45.0999 38.94C45.0999 38.94 53.0519 40.212 56.7399 40.232C60.4279 40.252 68.3399 37.868 68.3399 37.868L69.4399 34.944C69.4399 34.944 64.9719 34.4 63.1759 32.592C61.3799 30.784 66.0399 27.764 66.0399 27.764L62.2639 21.412L43.4639 28.852L45.0999 38.94Z" fill="white"/>
<path d="M56.8 40.432H56.756C53.092 40.432 45.156 39.152 45.084 39.14C45.0422 39.1325 45.0036 39.1124 44.9736 39.0823C44.9436 39.0523 44.9235 39.0138 44.916 38.972L43.28 28.884C43.2724 28.8392 43.2806 28.7932 43.3032 28.7538C43.3259 28.7144 43.3615 28.684 43.404 28.668L62.204 21.228C62.248 21.2109 62.2967 21.21 62.3413 21.2254C62.386 21.2407 62.4238 21.2714 62.448 21.312L66.224 27.66C66.2503 27.7045 66.2587 27.7573 66.2476 27.8078C66.2365 27.8583 66.2066 27.9027 66.164 27.932C66.132 27.932 63.156 29.9 62.984 31.504C62.9637 31.6776 62.9846 31.8536 63.0451 32.0176C63.1056 32.1816 63.2038 32.3291 63.332 32.448C65.056 34.184 69.428 34.74 69.472 34.744C69.5016 34.7482 69.53 34.759 69.5549 34.7756C69.5798 34.7922 69.6007 34.8142 69.616 34.84C69.6297 34.8673 69.6368 34.8974 69.6368 34.928C69.6368 34.9585 69.6297 34.9887 69.616 35.016L68.516 37.94C68.5042 37.9685 68.4863 37.9941 68.4635 38.0149C68.4406 38.0356 68.4135 38.051 68.384 38.06C68.064 38.156 60.436 40.432 56.8 40.432ZM45.288 38.768C46.376 38.936 53.396 40.016 56.756 40.032H56.8C60.176 40.032 67.292 37.972 68.196 37.704L69.176 35.108C68.192 34.96 64.648 34.336 63.052 32.732C62.8818 32.5702 62.7516 32.3711 62.6718 32.1503C62.5919 31.9295 62.5646 31.6932 62.592 31.46C62.76 29.884 65.136 28.152 65.792 27.704L62.192 21.664L43.684 28.98L45.288 38.768Z" fill="#231F20"/>
<path d="M113.432 65.196H46.4639V71.5401H113.432V65.196Z" fill="white"/>
<path d="M113.432 71.736H46.4639C46.4109 71.736 46.36 71.7149 46.3225 71.6774C46.285 71.6399 46.2639 71.589 46.2639 71.536V65.2C46.2639 65.147 46.285 65.0961 46.3225 65.0586C46.36 65.0211 46.4109 65 46.4639 65H113.432C113.485 65 113.536 65.0211 113.573 65.0586C113.611 65.0961 113.632 65.147 113.632 65.2V71.54C113.631 71.5923 113.609 71.6422 113.572 71.6788C113.535 71.7155 113.484 71.736 113.432 71.736ZM46.6639 71.336H113.232V65.396H46.6639V71.336Z" fill="#231F20"/>
<path d="M111.636 71.536H48.2559V99.012H111.636V71.536Z" fill="white"/>
<path d="M111.64 99.1999H48.2559C48.2032 99.1989 48.1529 99.1775 48.1156 99.1402C48.0783 99.1029 48.0569 99.0527 48.0559 98.9999V71.5199C48.0559 71.4669 48.077 71.416 48.1145 71.3785C48.152 71.341 48.2029 71.3199 48.2559 71.3199H111.64C111.693 71.3199 111.744 71.341 111.781 71.3785C111.819 71.416 111.84 71.4669 111.84 71.5199V98.9999C111.839 99.0527 111.817 99.1029 111.78 99.1402C111.743 99.1775 111.693 99.1989 111.64 99.1999V99.1999ZM48.4399 98.7999H111.44V71.7199H48.4559L48.4399 98.7999Z" fill="#231F20"/>
<path d="M104.404 48.3H55.4919L46.4639 65.1961H113.432L104.404 48.3Z" fill="white"/>
<path d="M113.432 65.396H46.4639C46.4292 65.395 46.3952 65.3854 46.3652 65.3679C46.3351 65.3504 46.3099 65.3257 46.2919 65.296C46.2751 65.2661 46.2662 65.2323 46.2662 65.198C46.2662 65.1637 46.2751 65.1299 46.2919 65.1L55.3199 48.204C55.3375 48.1727 55.363 48.1466 55.3939 48.1283C55.4248 48.1101 55.46 48.1003 55.4959 48.1H104.4C104.436 48.1003 104.471 48.1101 104.502 48.1283C104.533 48.1466 104.558 48.1727 104.576 48.204L113.6 65.1C113.617 65.1299 113.626 65.1637 113.626 65.198C113.626 65.2323 113.617 65.2661 113.6 65.296C113.582 65.3251 113.558 65.3495 113.528 65.367C113.499 65.3844 113.466 65.3944 113.432 65.396V65.396ZM46.7999 64.996H113.096L104.296 48.5H55.5999L46.7999 64.996Z" fill="#231F20"/>
<path d="M101.12 57.12L100.424 55.132H59.4719L58.7759 57.12H101.12Z" fill="#231F20"/>
<path d="M101.12 57.3201H58.7759C58.7443 57.3198 58.7132 57.3121 58.6851 57.2975C58.657 57.2829 58.6328 57.2619 58.6145 57.2361C58.5961 57.2103 58.5842 57.1806 58.5795 57.1493C58.5749 57.118 58.5778 57.086 58.5879 57.0561L59.2839 55.0561C59.2979 55.0174 59.3234 54.984 59.3571 54.9604C59.3907 54.9368 59.4308 54.9241 59.4719 54.9241H100.424C100.465 54.9241 100.505 54.9368 100.539 54.9604C100.572 54.984 100.598 55.0174 100.612 55.0561L101.308 57.0561C101.318 57.0859 101.321 57.1177 101.317 57.1489C101.313 57.1801 101.302 57.21 101.284 57.2361C101.265 57.2617 101.24 57.2827 101.212 57.2972C101.183 57.3118 101.152 57.3196 101.12 57.3201V57.3201ZM59.0559 56.9201H100.84L100.284 55.3201H59.5999L59.0559 56.9201Z" fill="#231F20"/>
<path d="M91.3399 57.084L82.3679 28.416L61.4159 34.968L68.3359 57.084H91.3399Z" fill="#BB86FC"/>
<path d="M91.34 57.2841H68.336C68.2932 57.2843 68.2515 57.2709 68.217 57.2457C68.1824 57.2205 68.1568 57.1848 68.144 57.144L61.228 35.028C61.208 34.9793 61.208 34.9247 61.228 34.876C61.2543 34.8299 61.2972 34.7955 61.348 34.78L82.296 28.224C82.3469 28.2089 82.4017 28.2142 82.4488 28.2389C82.4959 28.2635 82.5315 28.3056 82.548 28.356L91.516 57.024C91.5253 57.0542 91.5276 57.0861 91.5228 57.1173C91.5179 57.1485 91.506 57.1781 91.488 57.204C91.4703 57.227 91.4479 57.2459 91.4225 57.2597C91.397 57.2735 91.3689 57.2818 91.34 57.2841V57.2841ZM68.484 56.8841H91.068L82.24 28.668L61.668 35.1L68.484 56.8841Z" fill="#231F20"/>
<path d="M78.4998 41.464C78.4681 41.4696 78.4356 41.4696 78.4038 41.464C78.3585 41.4368 78.3244 41.3942 78.3079 41.344L77.0079 37.192C76.9927 37.1411 76.998 37.0862 77.0227 37.0392C77.0473 36.9921 77.0894 36.9565 77.1399 36.94L81.2918 35.644C81.3422 35.6276 81.3971 35.6318 81.4443 35.6558C81.4916 35.6798 81.5274 35.7216 81.5438 35.772L82.8398 39.928C82.8479 39.9527 82.851 39.9787 82.8489 40.0046C82.8468 40.0305 82.8396 40.0557 82.8277 40.0787C82.8158 40.1018 82.7994 40.1223 82.7795 40.139C82.7596 40.1557 82.7366 40.1683 82.7118 40.176L78.5598 41.476C78.5393 41.476 78.5189 41.4719 78.4998 41.464V41.464ZM77.4478 37.244L78.6279 41.016L82.3998 39.816L81.2198 36.044L77.4478 37.244Z" fill="#231F20"/>
<path d="M66.6359 41.724C66.5829 41.7319 66.5288 41.7185 66.4857 41.6866C66.4426 41.6547 66.4139 41.607 66.4059 41.554C66.398 41.5009 66.4114 41.4469 66.4433 41.4037C66.4752 41.3606 66.5229 41.3319 66.5759 41.324L74.8319 38.744C74.8823 38.7276 74.9372 38.7318 74.9844 38.7558C75.0317 38.7798 75.0675 38.8216 75.0839 38.872C75.0991 38.9229 75.0937 38.9777 75.0691 39.0248C75.0444 39.0718 75.0024 39.1074 74.9519 39.124L66.6959 41.7079L66.6359 41.724Z" fill="#231F20"/>
<path d="M67.3039 43.86C67.2508 43.868 67.1968 43.8545 67.1537 43.8227C67.1106 43.7908 67.0819 43.7431 67.0739 43.69C67.0659 43.637 67.0794 43.5829 67.1113 43.5398C67.1431 43.4967 67.1909 43.468 67.2439 43.46L74.0199 41.34C74.0446 41.332 74.0706 41.3289 74.0965 41.331C74.1224 41.333 74.1476 41.3402 74.1707 41.3522C74.1937 41.3641 74.2142 41.3804 74.2309 41.4003C74.2476 41.4202 74.2602 41.4432 74.2679 41.468C74.2766 41.4929 74.2801 41.5194 74.2784 41.5457C74.2766 41.572 74.2695 41.5977 74.2576 41.6213C74.2456 41.6448 74.229 41.6657 74.2088 41.6827C74.1886 41.6996 74.1651 41.7123 74.1399 41.72L67.3639 43.84C67.3455 43.8507 67.325 43.8575 67.3039 43.86V43.86Z" fill="#231F20"/>
<path d="M80.6279 48.2679C80.5975 48.274 80.5663 48.274 80.5359 48.2679C80.512 48.2557 80.4909 48.2387 80.4737 48.2181C80.4565 48.1975 80.4437 48.1736 80.4359 48.1479L79.1359 43.9959C79.1209 43.9455 79.1263 43.8913 79.151 43.8448C79.1757 43.7984 79.2177 43.7636 79.2679 43.7479L83.4199 42.4479C83.4451 42.4393 83.4718 42.4359 83.4983 42.438C83.5249 42.44 83.5507 42.4474 83.5743 42.4598C83.5979 42.4721 83.6187 42.4891 83.6355 42.5098C83.6522 42.5305 83.6646 42.5543 83.6719 42.5799L84.9719 46.7319C84.9915 46.7807 84.9915 46.8352 84.9719 46.8839C84.9472 46.9298 84.9056 46.9643 84.8559 46.9799L80.7039 48.2799C80.678 48.2823 80.6518 48.2782 80.6279 48.2679V48.2679ZM79.5999 44.0479L80.7999 47.8199L84.5679 46.6199L83.3879 42.8479L79.5999 44.0479Z" fill="#231F20"/>
<path d="M68.764 48.5279C68.7109 48.5359 68.6569 48.5224 68.6138 48.4905C68.5706 48.4587 68.5419 48.411 68.534 48.3579C68.526 48.3049 68.5395 48.2508 68.5713 48.2077C68.6032 48.1646 68.6509 48.1359 68.704 48.1279L76.96 45.5479C77.0104 45.5315 77.0652 45.5358 77.1125 45.5598C77.1597 45.5838 77.1955 45.6255 77.212 45.6759C77.2271 45.7268 77.2218 45.7817 77.1972 45.8287C77.1725 45.8758 77.1305 45.9114 77.08 45.9279L68.824 48.5119L68.764 48.5279Z" fill="#231F20"/>
<path d="M69.4319 50.6641C69.3789 50.672 69.3249 50.6586 69.2817 50.6267C69.2386 50.5948 69.2099 50.5471 69.2019 50.4941C69.194 50.441 69.2074 50.387 69.2393 50.3438C69.2712 50.3007 69.3189 50.272 69.3719 50.2641L76.1479 48.1441C76.1742 48.1362 76.2018 48.1336 76.229 48.1363C76.2563 48.1391 76.2828 48.1472 76.3069 48.1602C76.3311 48.1732 76.3524 48.1908 76.3698 48.2121C76.3871 48.2333 76.4001 48.2578 76.4079 48.2841C76.4158 48.3103 76.4184 48.3379 76.4157 48.3652C76.4129 48.3924 76.4048 48.4189 76.3918 48.4431C76.3788 48.4672 76.3612 48.4885 76.3399 48.5059C76.3187 48.5232 76.2942 48.5362 76.2679 48.5441L69.4919 50.6641C69.4721 50.6679 69.4518 50.6679 69.4319 50.6641V50.6641Z" fill="#231F20"/>
<path d="M82.1079 46.9C82.0488 46.8996 81.9905 46.8861 81.9373 46.8605C81.884 46.8349 81.8371 46.7979 81.7999 46.752L80.5039 45.172C80.4365 45.0898 80.4045 44.9841 80.415 44.8784C80.4256 44.7726 80.4776 44.6753 80.5599 44.608C80.6421 44.5406 80.7477 44.5087 80.8535 44.5192C80.9592 44.5297 81.0565 44.5818 81.1239 44.664L82.0559 45.804L84.2759 42.056C84.3341 41.9759 84.42 41.9203 84.5169 41.8998C84.6138 41.8794 84.7148 41.8957 84.8004 41.9454C84.886 41.9952 84.9501 42.075 84.9803 42.1693C85.0105 42.2636 85.0046 42.3657 84.9639 42.456L82.4519 46.696C82.4194 46.7513 82.3741 46.7979 82.3198 46.832C82.2655 46.8661 82.2038 46.8867 82.1399 46.892L82.1079 46.9Z" fill="white"/>
<path d="M82.756 55.072C82.7132 55.0723 82.6715 55.0588 82.6369 55.0336C82.6024 55.0084 82.5768 54.9728 82.564 54.932L81.268 50.8C81.2599 50.7753 81.2568 50.7493 81.2589 50.7234C81.261 50.6975 81.2682 50.6723 81.2801 50.6492C81.292 50.6262 81.3084 50.6057 81.3283 50.589C81.3482 50.5723 81.3712 50.5597 81.396 50.552L85.548 49.252C85.5732 49.2434 85.5998 49.24 85.6264 49.242C85.6529 49.2441 85.6788 49.2515 85.7024 49.2638C85.7259 49.2762 85.7468 49.2932 85.7635 49.3139C85.7803 49.3345 85.7927 49.3584 85.8 49.384L87.1 53.536C87.115 53.5864 87.1096 53.6407 87.0849 53.6871C87.0602 53.7335 87.0182 53.7683 86.968 53.784L82.8 55.064C82.7858 55.0688 82.771 55.0715 82.756 55.072V55.072ZM81.708 50.852L82.888 54.624L86.656 53.444L85.476 49.672L81.708 50.852Z" fill="#231F20"/>
<path d="M70.8919 55.332C70.8491 55.3323 70.8074 55.3188 70.7728 55.2936C70.7383 55.2684 70.7127 55.2328 70.6999 55.192C70.6847 55.1411 70.69 55.0863 70.7147 55.0392C70.7393 54.9922 70.7814 54.9566 70.8319 54.94L79.0879 52.36C79.113 52.3514 79.1397 52.348 79.1663 52.3501C79.1928 52.3521 79.2187 52.3595 79.2422 52.3719C79.2658 52.3842 79.2866 52.4012 79.3034 52.4219C79.3202 52.4426 79.3326 52.4664 79.3399 52.492C79.3549 52.5424 79.3494 52.5967 79.3247 52.6431C79.3 52.6895 79.258 52.7243 79.2079 52.74L70.9519 55.324L70.8919 55.332Z" fill="#231F20"/>
<path d="M59.076 22.624C64.484 20.116 66.94 20.9 69.108 22.224C71.8567 23.9489 74.3685 26.0251 76.58 28.4C77.5928 29.6339 78.3747 31.0404 78.888 32.552C79.064 33.032 79.324 33.968 78.98 34.416C78.692 34.78 77.612 34.9 77.468 34.32C77.5625 34.6432 77.6043 34.9795 77.592 35.316C77.5844 35.4847 77.5413 35.65 77.4655 35.8009C77.3897 35.9519 77.2829 36.0851 77.152 36.192C76.688 36.528 76.036 36.348 75.528 36.092C75.02 35.836 74.968 35.484 74.616 35.176C74.7202 35.5217 74.7555 35.8846 74.72 36.244C74.6975 36.4286 74.6174 36.6014 74.491 36.7379C74.3646 36.8743 74.1984 36.9675 74.016 37.004C73.8375 37.0138 73.6592 36.9809 73.496 36.908C72.4701 36.5298 71.5774 35.8595 70.928 34.98C71.232 35.648 71.472 36.58 70.868 36.98C70.372 37.32 69.7 37.004 69.208 36.656C67.432 35.408 66.108 33.752 64.912 31.96C63.464 29.792 61.384 30.76 61.384 30.76C61.384 30.76 59.312 38.604 54.428 36.852" fill="white"/>
<path d="M70.4 37.352C69.9294 37.316 69.4805 37.139 69.112 36.844C67.144 35.46 65.756 33.576 64.764 32.092C63.564 30.312 61.964 30.788 61.564 30.932C61.368 31.62 60.16 35.54 57.6 36.888C57.1066 37.1486 56.5628 37.2996 56.0057 37.3306C55.4486 37.3617 54.8913 37.2721 54.372 37.068C54.3222 37.05 54.2815 37.0129 54.259 36.9648C54.2365 36.9168 54.234 36.8619 54.252 36.812C54.2605 36.787 54.2739 36.764 54.2915 36.7443C54.3091 36.7246 54.3305 36.7087 54.3544 36.6975C54.3783 36.6863 54.4043 36.68 54.4307 36.6791C54.4571 36.6781 54.4834 36.6825 54.508 36.692C54.9749 36.8766 55.4762 36.958 55.9775 36.9303C56.4789 36.9027 56.9682 36.7668 57.412 36.532C60 35.172 61.2 30.8 61.2 30.736C61.2069 30.7073 61.2202 30.6805 61.2389 30.6576C61.2576 30.6348 61.2812 30.6165 61.308 30.604C61.9851 30.3245 62.7404 30.2988 63.4349 30.5318C64.1294 30.7648 64.7164 31.2407 65.088 31.872C66.056 33.328 67.416 35.168 69.332 36.516C69.76 36.82 70.352 37.12 70.764 36.84C71.308 36.468 70.94 35.484 70.764 35.08C70.7433 35.035 70.74 34.9839 70.7547 34.9366C70.7695 34.8893 70.8013 34.8492 70.844 34.824C70.8864 34.7989 70.9368 34.7908 70.985 34.8012C71.0331 34.8115 71.0757 34.8397 71.104 34.88C71.7316 35.726 72.592 36.3709 73.58 36.736C73.7155 36.7978 73.8632 36.8279 74.012 36.824C74.1502 36.7888 74.2746 36.7127 74.3688 36.6056C74.463 36.4986 74.5227 36.3656 74.54 36.224C74.5707 35.9214 74.5421 35.6157 74.456 35.324V35.232C74.4469 35.1915 74.4509 35.1491 74.4674 35.111C74.484 35.0729 74.5122 35.041 74.548 35.02C74.5825 34.9956 74.6237 34.9824 74.666 34.9824C74.7083 34.9824 74.7495 34.9956 74.784 35.02C74.918 35.1413 75.0399 35.2752 75.148 35.42C75.2549 35.6237 75.4101 35.7981 75.6 35.928C75.948 36.104 76.592 36.352 77.016 36.044C77.1254 35.9562 77.2142 35.8455 77.2764 35.7198C77.3386 35.594 77.3726 35.4562 77.376 35.316C77.3857 35.0009 77.3452 34.6863 77.256 34.384V34.384C77.2433 34.331 77.2521 34.275 77.2806 34.2285C77.3092 34.182 77.355 34.1487 77.408 34.136C77.4611 34.1233 77.517 34.1321 77.5635 34.1606C77.61 34.1892 77.6433 34.235 77.656 34.288C77.6771 34.3515 77.7164 34.4074 77.769 34.4487C77.8217 34.4899 77.8853 34.5147 77.952 34.52C78.1021 34.5522 78.2574 34.5498 78.4064 34.5131C78.5554 34.4764 78.6941 34.4062 78.812 34.308C79.056 33.992 78.912 33.236 78.692 32.636C78.404 31.836 77.608 29.86 76.424 28.548C74.2285 26.1848 71.7341 24.1181 69.004 22.4C67.056 21.2 64.688 20.224 59.16 22.8C59.1117 22.8223 59.0566 22.8245 59.0067 22.8061C58.9568 22.7877 58.9163 22.7503 58.894 22.702C58.8717 22.6537 58.8695 22.5986 58.8879 22.5487C58.9063 22.4988 58.9437 22.4583 58.992 22.436C64.7 19.788 67.172 20.8 69.216 22.068C71.9799 23.8026 74.5053 25.8909 76.728 28.28C77.96 29.644 78.78 31.684 79.076 32.5C79.276 33.04 79.544 34.028 79.136 34.552C78.9719 34.7111 78.771 34.8273 78.5512 34.8901C78.3314 34.9529 78.0994 34.9604 77.876 34.912L77.78 34.884C77.7941 35.0397 77.7941 35.1963 77.78 35.352C77.7708 35.5491 77.7193 35.7419 77.6289 35.9172C77.5384 36.0925 77.4113 36.2463 77.256 36.368C76.812 36.692 76.164 36.66 75.424 36.284C75.2321 36.1875 75.063 36.0511 74.928 35.884C74.9426 36.0169 74.9426 36.1511 74.928 36.284C74.8973 36.5111 74.7957 36.7226 74.6377 36.8886C74.4797 37.0545 74.2733 37.1663 74.048 37.208C73.8383 37.2215 73.6284 37.1845 73.436 37.1C72.6908 36.82 72.0103 36.3913 71.436 35.84C71.5051 36.078 71.5008 36.3312 71.4237 36.5667C71.3467 36.8022 71.2004 37.0089 71.004 37.16C70.8276 37.2853 70.6164 37.3524 70.4 37.352V37.352Z" fill="#231F20"/>
<path d="M70.928 34.9959C70.928 34.9959 68.036 30.3159 66.448 28.8519Z" fill="white"/>
<path d="M70.928 35.2001C70.8944 35.2008 70.8612 35.1926 70.8318 35.1765C70.8023 35.1604 70.7775 35.1367 70.76 35.108C70.728 35.06 67.86 30.4321 66.312 29.004C66.2751 28.966 66.2545 28.9151 66.2545 28.862C66.2545 28.809 66.2751 28.7581 66.312 28.7201C66.3306 28.7013 66.3528 28.6864 66.3771 28.6763C66.4015 28.6661 66.4276 28.6609 66.454 28.6609C66.4804 28.6609 66.5066 28.6661 66.531 28.6763C66.5553 28.6864 66.5775 28.7013 66.5961 28.7201C68.196 30.1881 70.996 34.72 71.112 34.908C71.1388 34.9539 71.1467 35.0083 71.134 35.0598C71.1213 35.1114 71.0891 35.1559 71.044 35.1841C71.008 35.2013 70.9674 35.2069 70.928 35.2001V35.2001Z" fill="#231F20"/>
<path d="M74.5999 35.1641C74.5999 35.1641 72.6439 31.0401 70.3319 28.8Z" fill="white"/>
<path d="M74.5999 35.364C74.562 35.3637 74.525 35.3526 74.4931 35.3321C74.4612 35.3115 74.4358 35.2824 74.4199 35.248C74.3999 35.208 72.4519 31.132 70.1919 28.944C70.1582 28.9064 70.1399 28.8575 70.1407 28.8071C70.1414 28.7566 70.1613 28.7083 70.1962 28.6718C70.2312 28.6354 70.2786 28.6135 70.329 28.6106C70.3793 28.6076 70.429 28.6238 70.4679 28.656C72.7799 30.896 74.6999 34.908 74.7799 35.056C74.7915 35.0796 74.7983 35.1053 74.8 35.1316C74.8017 35.1578 74.7981 35.1842 74.7896 35.2091C74.781 35.234 74.7676 35.2569 74.7502 35.2766C74.7328 35.2964 74.7116 35.3124 74.6879 35.324C74.6617 35.3432 74.6317 35.3568 74.5999 35.364V35.364Z" fill="#231F20"/>
<path d="M46.7479 41.524L44.6959 27.136L40.2439 27.5L43.4519 42.168L46.7479 41.524Z" fill="white"/>
<path d="M43.452 42.364C43.4064 42.3642 43.3622 42.3488 43.3265 42.3204C43.2909 42.2921 43.266 42.2524 43.256 42.208L40.056 27.544C40.0458 27.4867 40.0588 27.4277 40.092 27.38C40.1094 27.3577 40.1312 27.3391 40.1559 27.3254C40.1806 27.3117 40.2079 27.303 40.236 27.3L44.688 26.936C44.7132 26.9332 44.7388 26.9355 44.7631 26.9426C44.7875 26.9498 44.8102 26.9617 44.8299 26.9777C44.8496 26.9937 44.866 27.0135 44.878 27.0358C44.89 27.0582 44.8975 27.0827 44.9 27.108L46.952 41.508C46.9591 41.5587 46.9464 41.6102 46.9167 41.6519C46.8869 41.6935 46.8423 41.7222 46.792 41.732L43.496 42.376L43.452 42.364ZM40.488 27.68L43.6 41.932L46.52 41.364L44.52 27.364L40.488 27.68Z" fill="#231F20"/>
<path d="M43.4599 43.028C43.4599 43.028 41.5599 26.052 41.1599 26.184C40.7599 26.316 16.2279 27.944 16.2279 27.944L16.4559 49.404L43.4599 43.028Z" fill="#231F20"/>
<path d="M16.456 49.6C16.4113 49.6009 16.3677 49.5868 16.332 49.56C16.3086 49.5412 16.2897 49.5175 16.2765 49.4905C16.2634 49.4635 16.2564 49.434 16.256 49.404L16.028 27.94C16.0279 27.889 16.0473 27.8399 16.0822 27.8027C16.1172 27.7655 16.165 27.7431 16.216 27.74C24.616 27.184 40.584 26.104 41.108 25.988C41.1373 25.9791 41.1682 25.9766 41.1986 25.9807C41.229 25.9848 41.2581 25.9955 41.284 26.012C41.704 26.284 42.808 35.4 43.66 43.004C43.6652 43.0523 43.6527 43.1009 43.6247 43.1407C43.5967 43.1804 43.5552 43.2086 43.508 43.22L16.504 49.6H16.456ZM16.432 28.124L16.656 49.148L43.244 42.872C42.544 36.66 41.428 27.488 41.06 26.392C39.1 26.62 20.736 27.844 16.432 28.128V28.124ZM41.232 26.368L41.2 26.4L41.232 26.368Z" fill="#231F20"/>
<path d="M61.1279 78.572H63.7199L66.5199 86.44H66.5479L69.3479 78.572H71.9399L67.7119 89.86H65.3439L61.1279 78.572Z" fill="#D1D3D4"/>
<path d="M71.564 84.2159C71.564 80.7159 73.64 78.2679 76.536 78.2679C79.432 78.2679 81.512 80.7159 81.512 84.2159C81.512 87.7159 79.436 90.1639 76.536 90.1639C73.636 90.1639 71.564 87.7159 71.564 84.2159ZM79.164 84.2159C79.164 82.1359 78.14 80.7839 76.556 80.7839C74.972 80.7839 73.952 82.1359 73.952 84.2159C73.952 86.2959 74.988 87.6479 76.556 87.6479C78.124 87.6479 79.144 86.2799 79.144 84.2159H79.164Z" fill="#D1D3D4"/>
<path d="M84.86 81.072H81.6V78.572H90.484V81.072H87.212V89.872H84.844L84.86 81.072Z" fill="#D1D3D4"/>
<path d="M91.5759 78.572H98.7559V81.072H93.9559V82.992H98.3159V85.296H93.9559V87.36H98.7839V89.86H91.5839L91.5759 78.572Z" fill="#D1D3D4"/>
<path d="M74.496 57.284C74.4538 57.284 74.4127 57.2704 74.3788 57.2452C74.3449 57.2199 74.3201 57.1844 74.308 57.144C74.3 57.1188 74.297 57.0922 74.2993 57.0658C74.3016 57.0395 74.3091 57.0138 74.3214 56.9904C74.3337 56.967 74.3505 56.9462 74.3709 56.9293C74.3912 56.9124 74.4147 56.8997 74.44 56.892L79.0881 55.44C79.1143 55.4321 79.1419 55.4294 79.1692 55.4322C79.1964 55.435 79.2229 55.4431 79.247 55.4561C79.2712 55.4691 79.2925 55.4867 79.3099 55.508C79.3272 55.5292 79.3402 55.5537 79.348 55.58C79.3559 55.6062 79.3586 55.6338 79.3558 55.6611C79.353 55.6883 79.3449 55.7148 79.3319 55.739C79.3189 55.7631 79.3013 55.7844 79.28 55.8018C79.2588 55.8191 79.2343 55.8321 79.2081 55.84L74.556 57.296L74.496 57.284Z" fill="#231F20"/>
<path d="M35.54 42.54C35.9598 42.54 36.3 42.1998 36.3 41.78C36.3 41.3603 35.9598 41.02 35.54 41.02C35.1203 41.02 34.78 41.3603 34.78 41.78C34.78 42.1998 35.1203 42.54 35.54 42.54Z" fill="white"/>
<path d="M38.8839 42.164C39.3036 42.164 39.6439 41.8238 39.6439 41.404C39.6439 40.9843 39.3036 40.644 38.8839 40.644C38.4642 40.644 38.1239 40.9843 38.1239 41.404C38.1239 41.8238 38.4642 42.164 38.8839 42.164Z" fill="white"/>
<path d="M77.468 34.336C77.468 34.336 73.492 28.676 71.896 27.08Z" fill="white"/>
<path d="M77.468 34.5359C77.4359 34.5365 77.4041 34.5291 77.3755 34.5144C77.3469 34.4998 77.3223 34.4783 77.304 34.4519C77.264 34.3959 73.304 28.7839 71.756 27.2199C71.7189 27.1828 71.698 27.1325 71.698 27.0799C71.698 27.0274 71.7189 26.9771 71.756 26.9399C71.7931 26.9028 71.8435 26.882 71.896 26.882C71.9485 26.882 71.9989 26.9028 72.036 26.9399C73.636 28.5399 77.468 33.9879 77.636 34.2199C77.666 34.2637 77.6777 34.3174 77.6687 34.3697C77.6598 34.4219 77.6308 34.4687 77.588 34.4999C77.5526 34.524 77.5107 34.5366 77.468 34.5359V34.5359Z" fill="#231F20"/>
</svg>
