<svg width="160" height="120" viewBox="0 0 160 120" fill="none" xmlns="http://www.w3.org/2000/svg">
<path d="M96.192 80.6361H62.412V105.776H96.192V80.6361Z" fill="white"/>
<path d="M96.192 105.976H62.4C62.3469 105.976 62.296 105.955 62.2585 105.917C62.221 105.88 62.2 105.829 62.2 105.776V80.636C62.2 80.583 62.221 80.5321 62.2585 80.4946C62.296 80.4571 62.3469 80.436 62.4 80.436H96.18C96.233 80.436 96.2839 80.4571 96.3214 80.4946C96.3589 80.5321 96.38 80.583 96.38 80.636V105.776C96.38 105.827 96.3606 105.876 96.3257 105.913C96.2907 105.951 96.2429 105.973 96.192 105.976ZM62.612 105.576H96V80.836H62.612V105.576Z" fill="#231F20"/>
<path d="M62.4119 86.448H28.632V105.776H62.4119V86.448Z" fill="white"/>
<path d="M62.3999 105.976H28.6319C28.5788 105.976 28.528 105.955 28.4905 105.917C28.453 105.88 28.4319 105.829 28.4319 105.776V86.448C28.4319 86.395 28.453 86.3441 28.4905 86.3066C28.528 86.2691 28.5788 86.248 28.6319 86.248H62.3999C62.4529 86.248 62.5038 86.2691 62.5413 86.3066C62.5788 86.3441 62.5999 86.395 62.5999 86.448V105.776C62.5999 105.829 62.5788 105.88 62.5413 105.917C62.5038 105.955 62.4529 105.976 62.3999 105.976ZM28.8199 105.576H62.1999V86.648H28.8319L28.8199 105.576Z" fill="#231F20"/>
<path d="M129.972 91.0081H96.1919V105.776H129.972V91.0081Z" fill="white"/>
<path d="M129.976 105.976H96.1919C96.1392 105.975 96.0889 105.954 96.0517 105.916C96.0144 105.879 95.993 105.829 95.9919 105.776V91.0081C95.993 90.9554 96.0144 90.9051 96.0517 90.8678C96.0889 90.8305 96.1392 90.8091 96.1919 90.8081H129.976C130.029 90.8091 130.079 90.8305 130.116 90.8678C130.154 90.9051 130.175 90.9554 130.176 91.0081V105.776C130.175 105.829 130.154 105.879 130.116 105.916C130.079 105.954 130.029 105.975 129.976 105.976ZM96.3759 105.576H129.76V91.2001H96.3999L96.3759 105.576Z" fill="#231F20"/>
<path d="M79.684 98.376V90.8L77.756 92.288L76.484 90.552L79.884 88.052H82.12V98.392L79.684 98.376Z" fill="#BB86FC"/>
<path d="M42.4 100.66V98.9121L45.852 95.7881C46.0541 95.5992 46.2316 95.3855 46.38 95.1521C46.5129 94.9341 46.5822 94.6833 46.58 94.4281C46.5857 94.2863 46.562 94.1448 46.5103 94.0127C46.4587 93.8805 46.3803 93.7604 46.28 93.6601C46.0474 93.4556 45.7449 93.3489 45.4355 93.3623C45.1261 93.3757 44.8339 93.5082 44.62 93.7321C44.3856 94.0046 44.2453 94.3455 44.22 94.7041L42.22 94.4281C42.2576 94.0214 42.3752 93.6262 42.566 93.2651C42.7569 92.904 43.0172 92.5842 43.332 92.3241C43.6398 92.0731 43.9909 91.8806 44.368 91.7561C44.7657 91.6263 45.1817 91.5615 45.6 91.5641C46.0055 91.5614 46.4093 91.6152 46.8 91.7241C47.1702 91.8267 47.5186 91.9961 47.828 92.2241C48.1275 92.4508 48.3722 92.7419 48.544 93.0761C48.731 93.4479 48.8244 93.8599 48.816 94.2761C48.8191 94.5664 48.7759 94.8554 48.688 95.1321C48.6093 95.3839 48.4934 95.6226 48.344 95.8401C48.1987 96.0582 48.0311 96.2606 47.844 96.4441C47.656 96.6321 47.444 96.8201 47.264 97.0041L45.2 98.8361H48.8V100.66H42.4Z" fill="#D1D3D4"/>
<path d="M116.532 100.248C116.544 100.685 116.444 101.117 116.24 101.504C116.051 101.85 115.788 102.149 115.468 102.38C115.145 102.612 114.783 102.785 114.4 102.892C114.01 103.003 113.606 103.059 113.2 103.06C112.805 103.061 112.412 103.016 112.028 102.924C111.662 102.837 111.311 102.696 110.988 102.504C110.673 102.312 110.396 102.066 110.168 101.776C109.924 101.458 109.746 101.095 109.644 100.708L111.596 100.196C111.687 100.498 111.866 100.766 112.112 100.964C112.39 101.192 112.741 101.31 113.1 101.296C113.254 101.296 113.408 101.274 113.556 101.232C113.7 101.193 113.836 101.128 113.956 101.04C114.079 100.948 114.181 100.831 114.256 100.696C114.34 100.533 114.382 100.351 114.376 100.168C114.383 99.9685 114.328 99.7716 114.22 99.604C114.117 99.4555 113.979 99.3335 113.82 99.248C113.635 99.1575 113.439 99.0941 113.236 99.06C113.021 99.0233 112.802 99.0046 112.584 99.004H112V97.48H112.612C112.805 97.4799 112.997 97.4652 113.188 97.436C113.36 97.4093 113.526 97.3539 113.68 97.272C113.835 97.1927 113.963 97.0698 114.049 96.9184C114.135 96.767 114.175 96.5938 114.164 96.42C114.172 96.2794 114.145 96.1389 114.086 96.0112C114.027 95.8835 113.937 95.7724 113.824 95.688C113.599 95.5233 113.327 95.4363 113.048 95.44C112.758 95.4296 112.473 95.5248 112.248 95.708C112.026 95.8916 111.873 96.1457 111.816 96.428L109.864 95.976C109.963 95.62 110.128 95.286 110.352 94.992C110.566 94.7164 110.826 94.4797 111.12 94.292C111.421 94.1026 111.748 93.9596 112.092 93.868C112.442 93.7718 112.804 93.7233 113.168 93.724C113.554 93.7229 113.939 93.7727 114.312 93.872C114.668 93.9674 115.006 94.1244 115.308 94.336C115.599 94.5486 115.84 94.8215 116.016 95.136C116.202 95.4766 116.294 95.8602 116.284 96.248C116.298 96.6997 116.149 97.1413 115.864 97.492C115.59 97.8281 115.216 98.0678 114.796 98.176V98.216C115.039 98.2708 115.272 98.3654 115.484 98.496C115.687 98.6199 115.868 98.7767 116.02 98.96C116.329 99.3239 116.498 99.7865 116.496 100.264L116.532 100.248Z" fill="#D1D3D4"/>
<path d="M76.956 40.8641C76.956 40.8641 76 37.2201 76.312 36.9681C76.6184 36.7918 76.9628 36.6917 77.316 36.6761C77.316 36.6761 78.044 33.7001 81.012 33.1961C81.496 33.1121 82.484 33.9961 82.484 34.8481C82.484 35.7001 81.168 36.6761 81.168 36.6761C81.168 36.6761 77.66 40.9881 76.956 40.8641Z" fill="white"/>
<path d="M76.9719 41.0481H76.9239C76.8901 41.0414 76.8588 41.0255 76.8334 41.0023C76.808 40.979 76.7895 40.9492 76.7799 40.9161C76.1239 38.4201 75.9279 37.0481 76.1959 36.8321C76.4894 36.6419 76.8269 36.5303 77.1759 36.5081C77.3599 35.9201 78.2879 33.4761 80.9799 33.0201C81.1488 33.0145 81.317 33.044 81.474 33.1066C81.631 33.1693 81.7733 33.2637 81.8919 33.3841C82.116 33.5615 82.3008 33.7837 82.4344 34.0364C82.568 34.2892 82.6475 34.5669 82.6679 34.8521C82.6679 35.7441 81.4679 36.6841 81.2959 36.8161C80.4559 37.8401 77.7799 41.0481 76.9719 41.0481ZM81.0799 33.3721H81.0439C78.2239 33.8521 77.4999 36.6881 77.4919 36.7161C77.4826 36.7543 77.4612 36.7885 77.431 36.8137C77.4007 36.8389 77.3632 36.8538 77.3239 36.8561C77.0082 36.8643 76.6992 36.9494 76.4239 37.1041C76.3359 37.3281 76.6879 39.1041 77.0919 40.6561C77.6599 40.4161 79.4919 38.4281 81.0279 36.5601C81.0365 36.5475 81.0473 36.5366 81.0599 36.5281C81.4079 36.2721 82.3039 35.4721 82.3039 34.8441C82.2823 34.6107 82.2137 34.3842 82.1024 34.1779C81.991 33.9717 81.8392 33.7901 81.6559 33.6441C81.4969 33.4956 81.2956 33.4005 81.0799 33.3721Z" fill="#231F20"/>
<path d="M82.552 66.964L86.796 78.976L88.804 76.556L86.324 65.696" fill="white"/>
<path d="M86.8 79.1601H86.768C86.7361 79.1541 86.7064 79.1399 86.6819 79.1189C86.6573 79.0978 86.6387 79.0706 86.628 79.0401L82.384 67.0401C82.3757 67.0172 82.3721 66.993 82.3733 66.9687C82.3744 66.9445 82.3804 66.9207 82.3908 66.8987C82.4012 66.8768 82.4159 66.8571 82.4339 66.8409C82.452 66.8246 82.4731 66.8121 82.496 66.8041C82.5416 66.7897 82.5911 66.7933 82.6342 66.8141C82.6773 66.8349 82.7108 66.8714 82.728 66.9161L86.864 78.6281L88.612 76.5241L86.152 65.7521C86.1461 65.7287 86.1449 65.7043 86.1486 65.6805C86.1522 65.6566 86.1607 65.6338 86.1734 65.6132C86.186 65.5927 86.2027 65.575 86.2224 65.561C86.2421 65.5471 86.2644 65.5372 86.288 65.5321C86.3356 65.5224 86.3852 65.5316 86.4262 65.5577C86.4672 65.5838 86.4965 65.6248 86.508 65.6721L88.988 76.5281C88.9942 76.5557 88.9941 76.5844 88.9879 76.6121C88.9817 76.6398 88.9694 76.6657 88.952 76.6881L86.952 79.0881C86.9349 79.1121 86.912 79.1313 86.8854 79.1439C86.8588 79.1565 86.8294 79.1621 86.8 79.1601Z" fill="#231F20"/>
<path d="M75.5679 68.2361C75.5679 68.2361 69.7399 75.7201 67.5999 77.2841L65.8839 75.7441C65.8839 75.7441 70.9159 67.9001 72.3119 65.4441L75.5679 68.2361Z" fill="white"/>
<path d="M67.6 77.4681C67.5542 77.4677 67.5101 77.4507 67.476 77.4201L65.764 75.8801C65.7318 75.8516 65.7109 75.8126 65.7051 75.77C65.6992 75.7275 65.7087 75.6842 65.7319 75.6481C65.7799 75.5681 70.776 67.7801 72.132 65.3521C72.1462 65.3295 72.1649 65.31 72.1869 65.2949C72.2089 65.2797 72.2337 65.2693 72.26 65.2641C72.2867 65.2591 72.3142 65.2601 72.3404 65.267C72.3667 65.274 72.3911 65.2866 72.412 65.3041L75.652 68.1041C75.6872 68.1344 75.7093 68.1771 75.7138 68.2233C75.7183 68.2695 75.7047 68.3156 75.676 68.3521C75.436 68.6601 69.808 75.8761 67.676 77.4361C67.6534 77.4524 67.6274 77.4633 67.6 77.4681ZM66.1239 75.7121L67.608 77.0481C69.608 75.4481 74.512 69.2641 75.3 68.2481L72.36 65.7161C70.968 68.1601 66.8 74.7041 66.14 75.7121H66.1239Z" fill="#231F20"/>
<path d="M74.5359 54.8521C72.8959 59.0121 70.8839 66.2441 70.8839 66.2441L75.8439 69.2241C75.8439 69.2241 78.4279 63.6001 79.5999 59.5761L81.6839 68.4521L87.9159 66.8881L84.3159 54.8521H74.5359Z" fill="#231F20"/>
<path d="M75.844 69.4C75.8117 69.4002 75.78 69.392 75.752 69.376L70.8 66.4C70.7668 66.3798 70.7412 66.3494 70.7267 66.3133C70.7123 66.2773 70.7099 66.2375 70.72 66.2C70.74 66.128 72.752 58.912 74.376 54.788C74.3888 54.755 74.4114 54.7267 74.4407 54.7067C74.4699 54.6867 74.5045 54.676 74.54 54.676H84.3C84.3379 54.6769 84.3745 54.6898 84.4047 54.7128C84.4349 54.7358 84.457 54.7677 84.468 54.804L88.088 66.84C88.106 66.885 88.106 66.9351 88.088 66.98C88.0632 67.0217 88.0229 67.0519 87.976 67.064L81.744 68.628C81.7209 68.6342 81.6968 68.6352 81.6733 68.631C81.6498 68.6269 81.6275 68.6177 81.608 68.604C81.5684 68.5797 81.5397 68.541 81.528 68.496L79.596 60.26C78.5532 63.333 77.3529 66.3504 76 69.3C75.99 69.3225 75.9751 69.3424 75.9564 69.3583C75.9377 69.3742 75.9157 69.3858 75.892 69.392C75.8767 69.3979 75.8603 69.4007 75.844 69.4V69.4ZM71.092 66.164L75.764 68.964C76.216 67.972 78.392 63.08 79.428 59.52C79.4385 59.4827 79.4611 59.45 79.4922 59.4268C79.5233 59.4037 79.5612 59.3914 79.6 59.392C79.6389 59.3934 79.6764 59.4075 79.7066 59.432C79.7369 59.4565 79.7585 59.4902 79.768 59.528L81.812 68.228L87.692 66.752L84.164 55.02H74.656C73.164 58.84 71.368 65.2 71.092 66.164V66.164Z" fill="#231F20"/>
<path d="M86.5919 78.284L88.8039 76.556C88.8039 76.556 92.1119 75.62 92.2599 76.156C92.4079 76.692 87.3199 80.744 87.3199 80.744L86.5919 78.284Z" fill="#231F20"/>
<path d="M87.3159 80.9081C87.2988 80.9117 87.2811 80.9117 87.2639 80.9081C87.2363 80.9003 87.2111 80.8855 87.1908 80.8652C87.1705 80.8449 87.1557 80.8197 87.1479 80.7921L86.4239 78.3441C86.4142 78.3097 86.4147 78.2733 86.4254 78.2392C86.436 78.2051 86.4564 78.1748 86.4839 78.1521L88.6959 76.4241C88.7142 76.4104 88.7344 76.3996 88.7559 76.3921C90.3559 75.9441 92.2679 75.5321 92.4319 76.1001C92.5959 76.6681 89.7919 78.9881 87.4279 80.9001C87.3923 80.9141 87.3532 80.9169 87.3159 80.9081V80.9081ZM86.7959 78.3481L87.4119 80.4321C89.6359 78.6441 91.9039 76.6441 92.0799 76.1921C91.8199 76.0601 90.3959 76.2921 88.8799 76.7161L86.7959 78.3481Z" fill="#231F20"/>
<path d="M65.9 75.744C65.9 75.744 64.868 76.752 64.904 76.9C64.94 77.048 69.076 81.184 69.112 80.328C69.148 79.472 67.616 77.284 67.616 77.284L65.9 75.744Z" fill="#231F20"/>
<path d="M69.0079 80.6201C68.1439 80.6201 64.7439 76.9841 64.7359 76.9441C64.7279 76.9041 64.6719 76.6961 65.7799 75.6201C65.812 75.5888 65.8551 75.5713 65.8999 75.5713C65.9448 75.5713 65.9878 75.5888 66.0199 75.6201L67.7319 77.1561C67.9199 77.4161 69.3319 79.4481 69.2879 80.3561C69.2912 80.4269 69.2668 80.4963 69.2197 80.5493C69.1726 80.6024 69.1067 80.6349 69.0359 80.6401L69.0079 80.6201ZM65.1039 76.8721C65.5279 77.3961 68.3039 80.0721 68.9359 80.2561C68.8959 79.5561 67.8759 77.9601 67.4719 77.3841L65.9079 76.0001C65.6189 76.2706 65.3501 76.562 65.1039 76.8721V76.8721Z" fill="#231F20"/>
<path d="M75.66 21.5361C71.3 20.0561 71.66 15.5361 71.684 15.4961L71.72 15.0961H74.4V15.9521H72.544C72.5267 17.007 72.849 18.0396 73.4634 18.8974C74.0777 19.7552 74.9516 20.3928 75.956 20.7161L75.66 21.5361Z" fill="#231F20"/>
<path d="M75.6599 21.7121C75.6415 21.716 75.6224 21.716 75.6039 21.7121C71.1199 20.1881 71.5039 15.5321 71.5079 15.4841L71.5439 15.0841C71.5479 15.0402 71.5682 14.9995 71.6008 14.9698C71.6334 14.9402 71.6759 14.9239 71.7199 14.9241H74.3999C74.4466 14.9241 74.4914 14.9426 74.5244 14.9756C74.5574 15.0086 74.5759 15.0534 74.5759 15.1001V15.9561C74.5759 16.0028 74.5574 16.0475 74.5244 16.0805C74.4914 16.1135 74.4466 16.1321 74.3999 16.1321H72.7239C72.7413 17.1176 73.0682 18.0728 73.6583 18.8624C74.2483 19.652 75.0717 20.2361 76.0119 20.5321C76.034 20.5398 76.0542 20.552 76.0714 20.5678C76.0886 20.5836 76.1024 20.6028 76.1119 20.6241C76.1208 20.6449 76.1254 20.6674 76.1254 20.6901C76.1254 20.7128 76.1208 20.7352 76.1119 20.7561L75.8359 21.5561C75.831 21.5992 75.8103 21.639 75.7778 21.6678C75.7453 21.6966 75.7033 21.7124 75.6599 21.7121ZM71.8799 15.2841V15.5121C71.8799 15.5521 71.5359 19.8241 75.5719 21.3121L75.7319 20.8361C74.7313 20.4791 73.8682 19.8166 73.2645 18.9424C72.6609 18.0681 72.3472 17.0263 72.3679 15.9641C72.3668 15.9412 72.3705 15.9183 72.3788 15.897C72.387 15.8756 72.3997 15.8562 72.4159 15.8401C72.4326 15.8232 72.4526 15.8099 72.4746 15.801C72.4966 15.7921 72.5202 15.7877 72.5439 15.7881H74.2239V15.2841H71.8799Z" fill="#231F20"/>
<path d="M81.7559 21.536L81.4799 20.736C82.4839 20.4122 83.3574 19.7745 83.9717 18.9168C84.5859 18.0591 84.9085 17.0269 84.8919 15.972H83.0359V15.108H85.6959L85.7319 15.508C85.7359 15.54 86.1159 20.056 81.7559 21.536Z" fill="#231F20"/>
<path d="M81.7559 21.712C81.7217 21.711 81.6886 21.6998 81.6608 21.6798C81.6331 21.6599 81.6118 21.6321 81.5999 21.6L81.3239 20.8C81.315 20.7791 81.3104 20.7567 81.3104 20.734C81.3104 20.7113 81.315 20.6889 81.3239 20.668C81.3462 20.6257 81.3832 20.593 81.4279 20.576C82.3675 20.279 83.1902 19.6946 83.7801 18.9052C84.37 18.1158 84.6973 17.1613 84.7159 16.176H83.0399C82.9933 16.176 82.9485 16.1575 82.9155 16.1245C82.8825 16.0915 82.8639 16.0467 82.8639 16V15.108C82.8639 15.0613 82.8825 15.0166 82.9155 14.9836C82.9485 14.9506 82.9933 14.932 83.0399 14.932H85.6999C85.744 14.9318 85.7865 14.9482 85.819 14.9778C85.8516 15.0074 85.8719 15.0482 85.8759 15.092L85.9119 15.492C85.9119 15.54 86.3119 20.188 81.8159 21.72C81.7956 21.7216 81.7751 21.7189 81.7559 21.712V21.712ZM81.7039 20.836L81.8639 21.312C85.9039 19.82 85.5599 15.556 85.5559 15.512V15.284H83.1999V15.788H84.8799C84.9037 15.7876 84.9272 15.792 84.9492 15.8009C84.9712 15.8099 84.9912 15.8232 85.0079 15.84C85.0392 15.8737 85.0563 15.9181 85.0559 15.964C85.0769 17.0246 84.7648 18.0651 84.1635 18.9391C83.5622 19.813 82.702 20.4765 81.7039 20.836V20.836Z" fill="#231F20"/>
<path d="M83.2279 14.304L74.1879 14.224C74.1879 14.224 74.1079 18.104 75.0999 20.564C75.9199 22.608 76.9159 23.412 77.7599 23.74C77.8904 24.0594 77.9504 24.4033 77.9359 24.748C77.8771 25.3397 77.7146 25.9165 77.4559 26.452H79.9599C79.6598 25.9393 79.4882 25.3615 79.4599 24.768C79.4722 24.4218 79.5245 24.0782 79.6159 23.744C80.9218 23.0164 81.9174 21.8373 82.4159 20.428C83.2559 18.156 83.2279 14.304 83.2279 14.304Z" fill="white"/>
<path d="M79.9599 26.6521H77.4559C77.4214 26.6523 77.3874 26.6435 77.3573 26.6267C77.3272 26.6099 77.3019 26.5855 77.2839 26.5561C77.2671 26.5269 77.2582 26.4938 77.2582 26.4601C77.2582 26.4264 77.2671 26.3932 77.2839 26.3641C77.5315 25.8525 77.6872 25.3015 77.7439 24.7361C77.7553 24.4501 77.7104 24.1647 77.6119 23.8961C76.5079 23.4321 75.6119 22.3361 74.9199 20.6361C73.9199 18.168 73.9999 14.4 73.9999 14.22C74.002 14.168 74.0238 14.1188 74.061 14.0823C74.0982 14.0459 74.1479 14.025 74.1999 14.024V14.024L83.2359 14.104C83.289 14.104 83.3398 14.1251 83.3774 14.1626C83.4149 14.2001 83.4359 14.251 83.4359 14.304C83.4359 14.464 83.4359 18.216 82.5919 20.5001C82.087 21.923 81.0952 23.1217 79.7919 23.8841C79.7203 24.175 79.6788 24.4726 79.6679 24.7721C79.6969 25.3276 79.8588 25.8681 80.1399 26.3481C80.1575 26.3792 80.1667 26.4143 80.1667 26.4501C80.1667 26.4858 80.1575 26.5209 80.1399 26.5521C80.1212 26.5829 80.0947 26.6084 80.0632 26.6259C80.0316 26.6434 79.996 26.6524 79.9599 26.6521V26.6521ZM77.7639 26.2521H79.6319C79.3966 25.7907 79.2694 25.2819 79.2599 24.7641C79.2735 24.4032 79.3272 24.045 79.4199 23.6961C79.4271 23.6674 79.4405 23.6408 79.4592 23.618C79.4778 23.5951 79.5013 23.5767 79.5279 23.5641C80.7807 22.8577 81.7344 21.7206 82.2119 20.3641C82.9359 18.44 83.0119 15.316 83.0119 14.508L74.3999 14.428C74.3999 15.228 74.4599 18.428 75.2959 20.4881C75.9519 22.1241 76.8119 23.1521 77.8439 23.5561C77.8958 23.5766 77.9375 23.6169 77.9599 23.6681C78.0984 24.0135 78.1624 24.3842 78.1479 24.7561C78.0996 25.2718 77.97 25.7768 77.7639 26.2521Z" fill="#231F20"/>
<path d="M75.3439 24.8H82.0679C82.2005 24.8 82.3277 24.8527 82.4214 24.9465C82.5152 25.0403 82.5679 25.1674 82.5679 25.3V27.3H74.8479V25.3C74.8479 25.1681 74.9 25.0416 74.9929 24.9479C75.0858 24.8542 75.212 24.8011 75.3439 24.8Z" fill="white"/>
<path d="M82.5679 27.4841H74.8479C74.7949 27.4841 74.744 27.463 74.7065 27.4255C74.669 27.388 74.6479 27.3371 74.6479 27.2841V25.2841C74.6479 25.0991 74.7212 24.9217 74.8516 24.7905C74.982 24.6594 75.159 24.5852 75.3439 24.5841H82.0679C82.2536 24.5841 82.4316 24.6579 82.5629 24.7891C82.6942 24.9204 82.7679 25.0985 82.7679 25.2841V27.2841C82.7679 27.3371 82.7469 27.388 82.7094 27.4255C82.6718 27.463 82.621 27.4841 82.5679 27.4841ZM75.0479 27.0841H82.3679V25.3001C82.3679 25.2205 82.3363 25.1442 82.2801 25.088C82.2238 25.0317 82.1475 25.0001 82.0679 25.0001H75.3439C75.2651 25.0012 75.1898 25.0332 75.1344 25.0894C75.079 25.1455 75.0479 25.2212 75.0479 25.3001V27.0841Z" fill="#231F20"/>
<path d="M85.132 27.2201H72.284C71.946 27.2201 71.672 27.4941 71.672 27.8321V28.5681C71.672 28.9061 71.946 29.1801 72.284 29.1801H85.132C85.47 29.1801 85.744 28.9061 85.744 28.5681V27.8321C85.744 27.4941 85.47 27.2201 85.132 27.2201Z" fill="white"/>
<path d="M85.128 29.3801H72.284C72.0718 29.3801 71.8684 29.2958 71.7183 29.1458C71.5683 28.9958 71.484 28.7923 71.484 28.5801V27.8321C71.484 27.6199 71.5683 27.4164 71.7183 27.2664C71.8684 27.1164 72.0718 27.0321 72.284 27.0321H85.128C85.3402 27.0321 85.5437 27.1164 85.6937 27.2664C85.8437 27.4164 85.928 27.6199 85.928 27.8321V28.5681C85.9296 28.6742 85.9101 28.7795 85.8706 28.8779C85.8311 28.9764 85.7724 29.066 85.698 29.1416C85.6235 29.2171 85.5348 29.2771 85.437 29.3181C85.3391 29.359 85.2341 29.3801 85.128 29.3801ZM72.284 27.4201C72.1779 27.4201 72.0762 27.4622 72.0012 27.5373C71.9262 27.6123 71.884 27.714 71.884 27.8201V28.5561C71.884 28.6622 71.9262 28.7639 72.0012 28.8389C72.0762 28.914 72.1779 28.9561 72.284 28.9561H85.128C85.2341 28.9561 85.3358 28.914 85.4108 28.8389C85.4859 28.7639 85.528 28.6622 85.528 28.5561V27.8321C85.528 27.726 85.4859 27.6243 85.4108 27.5493C85.3358 27.4742 85.2341 27.4321 85.128 27.4321L72.284 27.4201Z" fill="#231F20"/>
<path d="M85.364 55.928C85.364 55.928 84.268 48.032 84.388 47.292L81.932 42.964L77.288 43.284L74.348 47.784C74.348 47.784 74.072 49.412 73.324 57.128L85.364 55.928Z" fill="#BB86FC"/>
<path d="M80.64 42.108C80.788 43.056 81.416 45.088 79.56 44.692C79.3665 44.6396 79.1818 44.5587 79.012 44.452C77.912 43.832 77.852 43.16 77.768 41.984C77.732 41.476 77.604 38.244 77.604 38.244L81.168 36.676C81.168 36.676 81.708 40.212 81.648 41.284C81.6392 41.4056 81.6057 41.5241 81.5496 41.6322C81.4934 41.7404 81.4158 41.8359 81.3214 41.9131C81.2271 41.9902 81.118 42.0473 81.0008 42.0808C80.8837 42.1143 80.7609 42.1236 80.64 42.108V42.108Z" fill="white"/>
<path d="M79.9999 44.924C79.8437 44.9215 79.6882 44.9027 79.5359 44.868C79.3237 44.8146 79.1213 44.7282 78.9359 44.612C77.7359 43.936 77.6839 43.164 77.5959 42C77.5599 41.492 77.4399 38.4 77.4319 38.252C77.4321 38.2151 77.4427 38.179 77.4625 38.1479C77.4823 38.1167 77.5105 38.0918 77.5439 38.076L81.1079 36.512C81.1329 36.5002 81.1602 36.4941 81.1879 36.4941C81.2155 36.4941 81.2429 36.5002 81.2679 36.512C81.2923 36.526 81.3134 36.545 81.33 36.5678C81.3465 36.5905 81.3581 36.6165 81.3639 36.644C81.3839 36.792 81.9039 40.212 81.8399 41.288C81.839 41.4271 81.809 41.5644 81.7518 41.6912C81.6946 41.8179 81.6115 41.9313 81.5079 42.024C81.3242 42.1701 81.1017 42.2591 80.8679 42.28C80.8679 42.336 80.8799 42.396 80.9039 42.46C81.0399 43.184 81.2279 44.18 80.7399 44.66C80.5377 44.8421 80.2717 44.937 79.9999 44.924V44.924ZM77.7919 38.36C77.8159 38.96 77.9159 41.528 77.9479 41.96C78.0359 43.12 78.0759 43.704 79.0999 44.284C79.2554 44.3795 79.4238 44.4522 79.5999 44.5C79.7434 44.5535 79.8978 44.5712 80.0497 44.5517C80.2016 44.5322 80.3465 44.476 80.4719 44.388C80.8199 44.048 80.6519 43.164 80.5319 42.52C80.5039 42.376 80.4799 42.24 80.4599 42.12C80.4563 42.0927 80.4587 42.0649 80.467 42.0387C80.4753 42.0124 80.4892 41.9883 80.5079 41.968C80.5265 41.9478 80.5495 41.9322 80.5752 41.9224C80.6009 41.9127 80.6286 41.9091 80.6559 41.912C80.8719 41.9233 81.0853 41.8597 81.2599 41.732C81.325 41.6711 81.3767 41.5974 81.4118 41.5154C81.447 41.4335 81.4647 41.3451 81.4639 41.256C81.5159 40.376 81.1399 37.732 81.0239 36.924L77.7919 38.36Z" fill="#231F20"/>
<path d="M79.8879 40.8001H79.7519C79.7059 40.795 79.6637 40.7721 79.6345 40.7361C79.6053 40.7002 79.5914 40.6542 79.5959 40.6081C79.601 40.561 79.6244 40.5178 79.6611 40.4878C79.6978 40.4579 79.7448 40.4436 79.7919 40.4481C79.9078 40.4641 80.0259 40.4517 80.1359 40.4121C79.9839 40.1198 79.7913 39.8505 79.5639 39.6121C79.5465 39.5954 79.5327 39.5753 79.5233 39.553C79.514 39.5307 79.5093 39.5068 79.5097 39.4826C79.51 39.4585 79.5153 39.4346 79.5252 39.4126C79.5351 39.3906 79.5495 39.3709 79.5674 39.3546C79.5852 39.3384 79.6063 39.326 79.6291 39.3183C79.652 39.3105 79.6762 39.3076 79.7003 39.3096C79.7244 39.3116 79.7478 39.3185 79.769 39.33C79.7903 39.3414 79.809 39.3571 79.8239 39.3761C80.6519 40.2881 80.5079 40.5001 80.4559 40.5761C80.3847 40.6544 80.2964 40.7153 80.198 40.7541C80.0995 40.7929 79.9934 40.8087 79.8879 40.8001V40.8001Z" fill="#231F20"/>
<path d="M79.948 41.512H79.908C79.508 41.512 79.184 41.224 78.888 40.712C78.8764 40.6918 78.869 40.6695 78.866 40.6464C78.8631 40.6233 78.8647 40.5998 78.8709 40.5774C78.8833 40.532 78.9131 40.4934 78.954 40.47C78.9948 40.4467 79.0433 40.4405 79.0887 40.4529C79.134 40.4653 79.1727 40.4952 79.196 40.536C79.424 40.936 79.672 41.144 79.924 41.16C80.304 41.196 80.616 40.76 80.62 40.76C80.6476 40.7218 80.6892 40.6962 80.7357 40.6887C80.7822 40.6812 80.8298 40.6924 80.868 40.72C80.9062 40.7476 80.9319 40.7892 80.9394 40.8357C80.9469 40.8822 80.9356 40.9298 80.908 40.968C80.7947 41.1206 80.6508 41.2478 80.4855 41.3414C80.3201 41.4351 80.1371 41.4932 79.948 41.512V41.512Z" fill="#231F20"/>
<path d="M78.7079 39.308C78.6738 39.3087 78.6404 39.2989 78.6119 39.28C78.5925 39.2675 78.5757 39.2512 78.5625 39.2321C78.5493 39.213 78.5401 39.1915 78.5352 39.1688C78.5304 39.1462 78.5301 39.1228 78.5343 39.1C78.5386 39.0772 78.5473 39.0555 78.5599 39.036C78.5999 38.972 78.8199 38.636 79.1119 38.668C79.1957 38.6763 79.2755 38.7076 79.3426 38.7584C79.4096 38.8092 79.4613 38.8776 79.4919 38.956C79.5071 38.977 79.5176 39.001 79.5227 39.0264C79.5278 39.0518 79.5274 39.078 79.5214 39.1032C79.5154 39.1284 79.5041 39.152 79.4882 39.1724C79.4723 39.1928 79.4521 39.2096 79.4291 39.2215C79.4062 39.2334 79.3809 39.2402 79.355 39.2415C79.3292 39.2428 79.3033 39.2384 79.2793 39.2288C79.2552 39.2192 79.2336 39.2045 79.2157 39.1857C79.1979 39.1669 79.1843 39.1445 79.1759 39.12C79.1439 39.056 79.1079 39.024 79.0919 39.024C79.0759 39.024 78.9199 39.132 78.8559 39.228C78.8396 39.2524 78.8176 39.2725 78.7919 39.2864C78.7661 39.3003 78.7373 39.3078 78.7079 39.308V39.308Z" fill="#231F20"/>
<path d="M80.8 39.224C80.768 39.2247 80.7365 39.2164 80.7089 39.2002C80.6813 39.1839 80.6589 39.1603 80.644 39.132C80.612 39.072 80.516 38.948 80.424 38.932C80.404 38.932 80.364 39 80.352 39.056C80.3398 39.1013 80.3103 39.14 80.27 39.1639C80.2297 39.1878 80.1816 39.195 80.136 39.184C80.1135 39.1789 80.0922 39.1692 80.0735 39.1557C80.0547 39.1421 80.0389 39.125 80.027 39.1052C80.015 39.0854 80.0072 39.0634 80.0039 39.0405C80.0007 39.0176 80.002 38.9943 80.008 38.972C80.0192 38.8563 80.0753 38.7496 80.1643 38.6748C80.2533 38.6 80.3681 38.5631 80.484 38.572C80.5859 38.6027 80.6804 38.6541 80.7616 38.7229C80.8428 38.7917 80.909 38.8765 80.956 38.972C80.9765 39.0137 80.9805 39.0616 80.9672 39.1061C80.9538 39.1507 80.9241 39.1885 80.884 39.212C80.8575 39.2233 80.8286 39.2274 80.8 39.224V39.224Z" fill="#231F20"/>
<path d="M78.044 40.5C77.9411 40.3575 77.7869 40.2603 77.6139 40.229C77.4409 40.1977 77.2624 40.2346 77.116 40.332C77.0487 40.3785 76.9949 40.442 76.96 40.516C76.9201 40.6286 76.9201 40.7515 76.96 40.864C77.0299 41.0795 77.1752 41.2625 77.3692 41.3793C77.5632 41.4962 77.7929 41.539 78.016 41.5" fill="white"/>
<path d="M77.844 41.7001C77.6048 41.6962 77.3731 41.6167 77.1819 41.473C76.9908 41.3293 76.8501 41.1287 76.78 40.9001C76.7254 40.7461 76.7254 40.578 76.78 40.4241C76.8269 40.3216 76.9 40.2333 76.992 40.1681C77.0835 40.1041 77.187 40.0591 77.2962 40.0357C77.4054 40.0123 77.5183 40.0111 77.628 40.0321C77.7387 40.0512 77.8445 40.0922 77.9393 40.1527C78.0341 40.2131 78.1159 40.2918 78.18 40.3841C78.1934 40.404 78.2026 40.4263 78.2073 40.4498C78.2119 40.4733 78.2118 40.4975 78.207 40.521C78.2021 40.5445 78.1926 40.5668 78.1791 40.5865C78.1655 40.6063 78.1481 40.6231 78.128 40.6361C78.1078 40.6496 78.0851 40.6589 78.0613 40.6636C78.0375 40.6683 78.0129 40.6682 77.9891 40.6634C77.9653 40.6586 77.9427 40.6491 77.9226 40.6354C77.9025 40.6218 77.8853 40.6044 77.872 40.5841C77.7974 40.4832 77.6872 40.4146 77.5638 40.3923C77.4404 40.37 77.3131 40.3957 77.208 40.4641C77.1675 40.4916 77.1346 40.5287 77.112 40.5721C77.0857 40.6444 77.0857 40.7237 77.112 40.7961C77.1694 40.9672 77.2859 41.1123 77.4405 41.2053C77.5952 41.2984 77.7779 41.3334 77.956 41.3041C77.9794 41.2982 78.0038 41.2972 78.0276 41.3012C78.0514 41.3052 78.0741 41.314 78.0944 41.3271C78.1147 41.3403 78.132 41.3574 78.1453 41.3775C78.1587 41.3977 78.1677 41.4203 78.172 41.4441C78.1815 41.4912 78.1722 41.5403 78.146 41.5806C78.1199 41.621 78.0789 41.6495 78.032 41.6601C77.9709 41.6801 77.9079 41.6935 77.844 41.7001Z" fill="#231F20"/>
<path d="M74.6159 48.184C74.6159 48.184 70.9119 28.928 70.8359 28.308C70.7599 27.688 72.1919 26.828 72.4039 27.468C72.6159 28.108 72.9079 29.332 72.9079 29.332C72.9079 29.332 73.9039 28.588 73.9319 29.192C73.9599 29.796 73.2839 30.016 73.2919 30.216C73.2999 30.416 77.3159 43.816 77.3159 43.816" fill="white"/>
<path d="M74.6159 48.3641C74.574 48.3638 74.5334 48.3488 74.5012 48.3218C74.4691 48.2948 74.4474 48.2574 74.44 48.2161C74.288 47.4161 70.728 28.948 70.652 28.332C70.584 27.776 71.324 27.204 71.852 27.084C71.9207 27.0573 71.9941 27.0445 72.0678 27.0466C72.1415 27.0487 72.2141 27.0655 72.2812 27.0961C72.3483 27.1266 72.4086 27.1703 72.4586 27.2246C72.5085 27.2789 72.5471 27.3426 72.5719 27.412C72.7239 27.88 72.92 28.64 73.02 29.012C73.272 28.856 73.648 28.676 73.896 28.792C73.9637 28.827 74.0199 28.8806 74.0582 28.9465C74.0965 29.0124 74.1151 29.0879 74.112 29.1641C74.1104 29.3513 74.0629 29.5353 73.9736 29.6999C73.8843 29.8645 73.756 30.0046 73.6 30.108L73.4719 30.224C73.6479 30.94 76.4079 40.1681 77.4719 43.7441C77.4856 43.7907 77.4802 43.8409 77.457 43.8836C77.4338 43.9264 77.3946 43.9581 77.3479 43.9721C77.3251 43.9794 77.301 43.9822 77.2771 43.9801C77.2532 43.9781 77.2299 43.9713 77.2087 43.9601C77.1874 43.9489 77.1686 43.9336 77.1534 43.915C77.1382 43.8965 77.1268 43.8751 77.12 43.8521C75.92 39.82 73.12 30.424 73.088 30.224C73.056 30.024 73.212 29.948 73.352 29.824C73.4613 29.7569 73.553 29.6644 73.6191 29.5544C73.6853 29.4444 73.724 29.3202 73.732 29.192C73.7338 29.1721 73.7338 29.152 73.732 29.132C73.4635 29.1725 73.2122 29.2891 73.008 29.468C72.9848 29.4869 72.9571 29.4994 72.9277 29.5043C72.8982 29.5092 72.868 29.5064 72.84 29.496C72.8112 29.4865 72.7855 29.4697 72.7652 29.4473C72.7448 29.4248 72.7307 29.3976 72.724 29.368C72.724 29.368 72.424 28.144 72.22 27.52C72.22 27.48 72.176 27.376 71.924 27.432C71.488 27.528 70.976 28.004 71.008 28.276C71.084 28.884 74.752 47.9481 74.788 48.1401C74.7974 48.1878 74.7875 48.2373 74.7605 48.2778C74.7335 48.3183 74.6916 48.3464 74.644 48.3561L74.6159 48.3641Z" fill="#231F20"/>
<path d="M81.6599 43.324L84.7159 30.124C84.7159 30.124 83.6239 29.58 84.1159 29.028C84.2799 28.844 85.3159 29.372 85.3159 29.372C85.3159 29.372 85.4599 27.624 85.9039 27.512C86.0119 27.4764 86.1268 27.4674 86.239 27.4859C86.3512 27.5045 86.4572 27.5498 86.548 27.6182C86.6388 27.6866 86.7117 27.776 86.7604 27.8787C86.8092 27.9814 86.8323 28.0944 86.8279 28.208C86.8279 28.764 84.3319 48.208 84.3319 48.208" fill="white"/>
<path d="M84.324 48.364H84.3C84.2763 48.3611 84.2534 48.3534 84.2327 48.3415C84.2119 48.3296 84.1938 48.3137 84.1792 48.2947C84.1647 48.2757 84.1541 48.254 84.1481 48.2309C84.142 48.2078 84.1407 48.1837 84.144 48.16C85.004 41.444 86.636 28.632 86.636 28.2C86.6408 28.1187 86.6266 28.0374 86.5947 27.9624C86.5628 27.8875 86.514 27.8209 86.452 27.768C86.3785 27.7164 86.2944 27.6818 86.2059 27.6666C86.1174 27.6513 86.0266 27.6559 85.94 27.68C85.776 27.72 85.56 28.548 85.492 29.38C85.4898 29.4097 85.4803 29.4385 85.4642 29.4636C85.4482 29.4888 85.4261 29.5095 85.4 29.524C85.3727 29.5377 85.3426 29.5449 85.312 29.5449C85.2815 29.5449 85.2513 29.5377 85.224 29.524C84.9158 29.3401 84.5748 29.2179 84.22 29.164C84.1983 29.1904 84.183 29.2215 84.1753 29.2548C84.1677 29.2881 84.1679 29.3228 84.176 29.356C84.216 29.58 84.576 29.84 84.796 29.948C84.8332 29.9667 84.8629 29.9975 84.8803 30.0352C84.8978 30.073 84.9019 30.1156 84.892 30.156L81.84 43.356C81.8286 43.4031 81.7991 43.4437 81.7579 43.4692C81.7168 43.4946 81.6672 43.5028 81.62 43.492C81.5964 43.4868 81.5742 43.477 81.5545 43.463C81.5348 43.4491 81.5181 43.4313 81.5054 43.4108C81.4927 43.3903 81.4843 43.3674 81.4806 43.3436C81.4769 43.3197 81.4781 43.2954 81.484 43.272L84.508 30.204C84.1816 30.0381 83.9332 29.7509 83.816 29.404C83.799 29.3087 83.805 29.2107 83.8336 29.1181C83.8621 29.0256 83.9123 28.9412 83.98 28.872C84.04 28.804 84.212 28.612 85.152 29.056C85.224 28.42 85.404 27.408 85.852 27.296C85.9926 27.2594 86.1396 27.2548 86.2822 27.2825C86.4248 27.3102 86.5594 27.3695 86.676 27.456C86.7828 27.5415 86.8681 27.6507 86.925 27.7751C86.982 27.8994 87.009 28.0353 87.004 28.172C87.004 28.736 84.604 47.372 84.504 48.172C84.5063 48.1968 84.5033 48.2217 84.4952 48.2452C84.4871 48.2688 84.4742 48.2903 84.4572 48.3084C84.4402 48.3266 84.4195 48.3409 84.3965 48.3505C84.3736 48.3601 84.3489 48.3647 84.324 48.364V48.364Z" fill="#231F20"/>
<path d="M79.848 48.2161C79.8094 48.2162 79.7712 48.208 79.736 48.1921C79.288 47.9721 78.416 45.1 78.064 43.876C78.0551 43.8524 78.0512 43.8271 78.0525 43.8019C78.0538 43.7766 78.0603 43.7519 78.0715 43.7293C78.0828 43.7067 78.0986 43.6866 78.118 43.6704C78.1374 43.6541 78.1599 43.642 78.1841 43.6349C78.2084 43.6277 78.2338 43.6256 78.2589 43.6287C78.284 43.6318 78.3082 43.6401 78.3299 43.653C78.3517 43.6658 78.3706 43.683 78.3854 43.7035C78.4002 43.724 78.4106 43.7473 78.416 43.772C78.916 45.504 79.552 47.372 79.84 47.796C80.028 47.396 80.36 45.624 80.584 44.004C80.587 43.9803 80.5946 43.9574 80.6065 43.9367C80.6184 43.9159 80.6343 43.8978 80.6533 43.8833C80.6723 43.8687 80.694 43.8581 80.7171 43.8521C80.7402 43.8461 80.7643 43.8447 80.788 43.848C80.8117 43.851 80.8346 43.8586 80.8554 43.8705C80.8761 43.8824 80.8943 43.8983 80.9088 43.9173C80.9233 43.9363 80.9339 43.958 80.94 43.9811C80.946 44.0043 80.9474 44.0284 80.944 44.052C80.584 46.68 80.244 48.0761 79.936 48.2001C79.908 48.2111 79.8781 48.2166 79.848 48.2161V48.2161Z" fill="#231F20"/>
<path d="M79.788 51.1081C80.5965 51.1081 81.252 50.4526 81.252 49.6441C81.252 48.8355 80.5965 48.1801 79.788 48.1801C78.9794 48.1801 78.324 48.8355 78.324 49.6441C78.324 50.4526 78.9794 51.1081 79.788 51.1081Z" fill="white"/>
<path d="M79.7879 51.2921C79.462 51.2921 79.1433 51.1954 78.8723 51.0144C78.6013 50.8333 78.3901 50.5759 78.2653 50.2748C78.1406 49.9736 78.108 49.6423 78.1716 49.3226C78.2351 49.0029 78.3921 48.7093 78.6226 48.4788C78.8531 48.2483 79.1467 48.0913 79.4664 48.0278C79.7861 47.9642 80.1174 47.9968 80.4186 48.1215C80.7197 48.2463 80.9771 48.4575 81.1582 48.7285C81.3392 48.9995 81.4359 49.3181 81.4359 49.6441C81.4359 50.0812 81.2623 50.5003 80.9532 50.8094C80.6442 51.1185 80.225 51.2921 79.7879 51.2921V51.2921ZM79.7879 48.3641C79.5347 48.3641 79.2873 48.4392 79.0768 48.5798C78.8663 48.7205 78.7022 48.9204 78.6053 49.1543C78.5084 49.3881 78.4831 49.6455 78.5325 49.8938C78.5819 50.1421 78.7038 50.3702 78.8828 50.5492C79.0618 50.7282 79.2899 50.8501 79.5382 50.8995C79.7865 50.9489 80.0438 50.9235 80.2777 50.8267C80.5116 50.7298 80.7115 50.5657 80.8522 50.3552C80.9928 50.1447 81.0679 49.8973 81.0679 49.6441C81.0668 49.3049 80.9316 48.98 80.6918 48.7402C80.452 48.5003 80.127 48.3651 79.7879 48.3641V48.3641Z" fill="#231F20"/>
<path d="M78.888 16.292L79.504 17.54L80.88 17.74C80.9168 17.7454 80.9514 17.7609 80.9798 17.7848C81.0083 17.8087 81.0296 17.84 81.0412 17.8754C81.0528 17.9107 81.0544 17.9485 81.0457 17.9847C81.037 18.0208 81.0184 18.0538 80.992 18.08L80 19.052L80.236 20.424C80.2428 20.4611 80.239 20.4994 80.225 20.5345C80.211 20.5695 80.1873 20.5998 80.1568 20.622C80.1263 20.6442 80.0901 20.6573 80.0524 20.6597C80.0148 20.6622 79.9772 20.654 79.944 20.636L78.708 20L77.476 20.648C77.4428 20.666 77.4052 20.6742 77.3676 20.6717C77.3299 20.6693 77.2937 20.6562 77.2632 20.634C77.2327 20.6118 77.209 20.5815 77.195 20.5465C77.181 20.5114 77.1772 20.4731 77.184 20.436L77.42 19.064L76.424 18.092C76.396 18.0665 76.376 18.0335 76.3663 17.9969C76.3567 17.9603 76.3579 17.9216 76.3697 17.8857C76.3815 17.8497 76.4036 17.818 76.4331 17.7942C76.4626 17.7705 76.4983 17.7559 76.536 17.752L77.912 17.552L78.528 16.304C78.5432 16.2696 78.5678 16.2402 78.599 16.2192C78.6302 16.1981 78.6666 16.1863 78.7042 16.185C78.7418 16.1838 78.779 16.1932 78.8115 16.2121C78.844 16.231 78.8705 16.2587 78.888 16.292V16.292Z" fill="#BB86FC"/>
<path d="M44.552 71.936L47.312 83.8761L50.292 83.0881L48.04 71.936H44.552Z" fill="white"/>
<path d="M47.312 84.06C47.2781 84.0588 47.2452 84.0492 47.216 84.032C47.1741 84.0057 47.144 83.9641 47.132 83.916L44.372 72C44.3655 71.973 44.3654 71.9449 44.3717 71.9178C44.3779 71.8908 44.3903 71.8655 44.408 71.844C44.4252 71.8224 44.4471 71.805 44.472 71.7932C44.497 71.7815 44.5244 71.7756 44.552 71.776H48.04C48.0821 71.7752 48.1232 71.7891 48.156 71.8154C48.1889 71.8418 48.2116 71.8788 48.22 71.92L50.472 83.072C50.4817 83.1176 50.4733 83.1651 50.4487 83.2047C50.4241 83.2442 50.3851 83.2726 50.34 83.284L47.356 84.084L47.312 84.06ZM44.8 72.12L47.468 83.652L50.1 82.952L47.912 72.12H44.8Z" fill="#231F20"/>
<path d="M37.308 70.096L38.356 84.384H41.608L41.6 69.52L37.308 70.096Z" fill="white"/>
<path d="M41.5999 84.564H38.3559C38.3098 84.5642 38.2652 84.547 38.2311 84.5159C38.1971 84.4848 38.1759 84.442 38.1719 84.396L37.1239 70.108C37.1215 70.0618 37.1366 70.0163 37.1663 69.9807C37.196 69.9451 37.238 69.922 37.2839 69.916L41.5759 69.336C41.6277 69.3322 41.6791 69.3479 41.7199 69.38C41.7401 69.3973 41.7562 69.4188 41.7673 69.443C41.7783 69.4672 41.784 69.4934 41.7839 69.52V84.384C41.7831 84.4317 41.7645 84.4773 41.7319 84.512C41.6955 84.5446 41.6487 84.563 41.5999 84.564V84.564ZM38.5159 84.2H41.4159V69.728L37.5039 70.252L38.5159 84.2Z" fill="#231F20"/>
<path d="M36.5879 59.0881C36.6119 65.2361 36.4399 73.0881 36.4399 73.0881L42.1839 72.7761L41.6519 63.8081L43.7599 72.8921L49.2239 72.7201L46.3479 59.0841L36.5879 59.0881Z" fill="#231F20"/>
<path d="M36.44 73.268C36.4164 73.2686 36.3929 73.2643 36.371 73.2554C36.3491 73.2465 36.3293 73.2332 36.3128 73.2163C36.2963 73.1994 36.2834 73.1793 36.275 73.1572C36.2666 73.1352 36.2629 73.1116 36.264 73.088C36.264 73.012 36.432 65.164 36.412 59.088C36.4122 59.0414 36.4309 58.9968 36.464 58.964C36.4801 58.9475 36.4994 58.9343 36.5207 58.9254C36.542 58.9165 36.5649 58.9119 36.588 58.912H46.348C46.3886 58.9113 46.4281 58.925 46.4596 58.9506C46.491 58.9762 46.5124 59.0121 46.52 59.052L49.396 72.688C49.4017 72.7135 49.4018 72.74 49.3963 72.7655C49.3908 72.7911 49.3797 72.8151 49.364 72.836C49.3474 72.8561 49.3267 72.8722 49.3032 72.8833C49.2796 72.8943 49.254 72.9 49.228 72.9L43.768 73.072C43.7271 73.0747 43.6867 73.0624 43.6542 73.0373C43.6218 73.0123 43.5997 72.9762 43.592 72.936L41.952 65.884L42.352 72.772C42.3537 72.7952 42.3507 72.8185 42.3431 72.8405C42.3355 72.8625 42.3236 72.8828 42.308 72.9C42.2768 72.9336 42.2337 72.9537 42.188 72.956L36.44 73.268V73.268ZM36.768 59.268C36.768 64.792 36.644 71.668 36.62 72.912L42 72.62L41.476 63.82C41.4725 63.7763 41.4859 63.7328 41.5134 63.6986C41.5409 63.6644 41.5805 63.642 41.624 63.636C41.6672 63.6298 41.7112 63.6398 41.7474 63.6642C41.7836 63.6886 41.8095 63.7256 41.82 63.768L43.9 72.708L49.008 72.552L46.208 59.26L36.768 59.268Z" fill="#231F20"/>
<path d="M39.06 44.848C38.6451 44.0781 38.374 43.2391 38.26 42.372C38.204 41.272 38.628 39.54 40.52 39.276C42.26 39.032 43.32 39.972 43.544 41.316C43.7477 42.3413 43.5775 43.4056 43.064 44.316C42.944 44.428 39.06 44.848 39.06 44.848Z" fill="white"/>
<path d="M39.06 45.032C39.0271 45.0322 38.9948 45.0233 38.9666 45.0064C38.9384 44.9894 38.9154 44.9651 38.9 44.936C38.4694 44.1489 38.1873 43.2893 38.068 42.4C38 41.052 38.592 39.38 40.468 39.116C42.164 38.88 43.428 39.736 43.7 41.304C43.9188 42.3864 43.7308 43.5115 43.172 44.464C43.116 44.52 43.012 44.624 39.064 45.052L39.06 45.032ZM41.036 39.432C40.8687 39.4325 40.7017 39.4445 40.536 39.468C38.888 39.7 38.372 41.18 38.436 42.376C38.5395 43.1762 38.7861 43.9512 39.164 44.664C40.532 44.516 42.62 44.264 42.944 44.176C43.3842 43.3129 43.5249 42.3279 43.344 41.376C43.2825 40.8167 43.0089 40.3022 42.5796 39.9383C42.1503 39.5745 41.5979 39.389 41.036 39.42V39.432Z" fill="#231F20"/>
<path d="M42.3999 48.6641L52.1599 35.9481C52.1599 35.9481 51.2999 35.0801 51.9439 34.7201C52.1599 34.5961 52.9639 35.4281 52.9639 35.4281C52.9639 35.4281 53.6599 33.8281 54.1199 33.8561C54.2318 33.8583 54.3416 33.8871 54.4402 33.9402C54.5387 33.9934 54.6232 34.0692 54.6865 34.1615C54.7499 34.2538 54.7903 34.3599 54.8045 34.471C54.8186 34.582 54.8061 34.6948 54.7679 34.8001C54.5879 35.3281 44.8319 52.6601 44.8319 52.6601" fill="white"/>
<path d="M44.832 52.8561C44.7998 52.8558 44.7682 52.8475 44.74 52.8321C44.6993 52.8071 44.6696 52.7676 44.657 52.7215C44.6443 52.6755 44.6497 52.6263 44.672 52.5841C47.376 47.7841 54.424 35.2241 54.596 34.7521C54.6272 34.6772 54.6398 34.596 54.6328 34.5152C54.6258 34.4344 54.5995 34.3565 54.556 34.2881C54.5047 34.2146 54.4373 34.1538 54.359 34.1101C54.2807 34.0664 54.1935 34.0411 54.104 34.0361V34.0361C53.932 34.0361 53.464 34.7401 53.136 35.5001C53.1237 35.5277 53.1049 35.5519 53.0812 35.5707C53.0575 35.5895 53.0297 35.6024 53 35.6081C52.9705 35.6138 52.94 35.612 52.9114 35.603C52.8827 35.5939 52.8568 35.5778 52.836 35.5561C52.6018 35.2828 52.3182 35.0562 52 34.8881C51.9713 34.9075 51.9471 34.933 51.9291 34.9627C51.9112 34.9924 51.8999 35.0256 51.896 35.0601C51.86 35.3161 52.18 35.7041 52.296 35.8201C52.3247 35.8535 52.3405 35.8961 52.3405 35.9401C52.3405 35.9841 52.3247 36.0267 52.296 36.0601L42.556 48.7761C42.5429 48.7985 42.5251 48.8178 42.504 48.8328C42.4829 48.8478 42.4588 48.8582 42.4334 48.8633C42.4079 48.8684 42.3817 48.868 42.3564 48.8622C42.3311 48.8565 42.3074 48.8454 42.2867 48.8298C42.2659 48.8142 42.2488 48.7944 42.2362 48.7717C42.2237 48.749 42.2161 48.7239 42.214 48.698C42.2119 48.6722 42.2152 48.6462 42.2238 48.6217C42.2324 48.5973 42.2461 48.5749 42.264 48.5561L51.92 35.9601C51.6688 35.7063 51.5255 35.3652 51.52 35.0081C51.5351 34.9132 51.5722 34.8233 51.6285 34.7454C51.6848 34.6676 51.7586 34.6041 51.844 34.5601C51.924 34.5161 52.152 34.3881 52.896 35.1121C53.168 34.5321 53.696 33.6401 54.128 33.6721C54.2715 33.6803 54.4113 33.7205 54.5373 33.7897C54.6633 33.8589 54.7722 33.9554 54.856 34.0721C54.9322 34.1894 54.9793 34.3232 54.9932 34.4624C55.0071 34.6016 54.9875 34.7421 54.936 34.8721C54.756 35.4001 45.984 50.9841 44.984 52.7601C44.9687 52.7875 44.9468 52.8107 44.9202 52.8274C44.8937 52.8442 44.8633 52.8541 44.832 52.8561V52.8561Z" fill="#231F20"/>
<path d="M47.3119 62.324C47.3119 62.324 45.9599 52.536 46.0799 51.792L43.6239 47.464L38.9799 47.784L35.9999 51.44C35.9312 54.757 36.0434 58.0752 36.3359 61.38L47.3119 62.324Z" fill="#D1D3D4"/>
<path d="M42.296 46.744C42.44 47.692 43.072 49.724 41.216 49.328C41.0212 49.2757 40.8352 49.1948 40.664 49.088C39.564 48.468 39.508 47.796 39.42 46.62C39.384 46.112 39.172 42.124 39.172 42.124C39.172 42.124 40.704 42.592 41.66 42.34C41.9221 42.2757 42.1649 42.149 42.3675 41.9707C42.5702 41.7924 42.7268 41.5678 42.824 41.316C42.824 41.316 43.364 44.848 43.3 45.92C43.2917 46.0414 43.2587 46.1598 43.203 46.268C43.1473 46.3761 43.07 46.4717 42.976 46.5489C42.8819 46.626 42.7731 46.6832 42.6562 46.7167C42.5392 46.7503 42.4167 46.7596 42.296 46.744V46.744Z" fill="white"/>
<path d="M41.6439 49.56C41.2647 49.5654 40.8926 49.4567 40.5759 49.248C39.3759 48.572 39.3239 47.804 39.2399 46.636C39.1999 46.128 38.9959 42.296 38.9879 42.132C38.9863 42.1027 38.992 42.0734 39.0046 42.0469C39.0172 42.0203 39.0362 41.9973 39.0599 41.98C39.0823 41.9612 39.1091 41.9484 39.1378 41.9428C39.1665 41.9372 39.1961 41.939 39.2239 41.948C39.2239 41.948 40.7199 42.4 41.6239 42.16C41.8557 42.1042 42.0706 41.9932 42.2503 41.8366C42.43 41.6799 42.5691 41.4821 42.6559 41.26C42.6684 41.2207 42.6937 41.1867 42.7278 41.1635C42.7619 41.1403 42.8028 41.1292 42.8439 41.132C42.8852 41.1359 42.9241 41.1532 42.9545 41.1814C42.9849 41.2097 43.0051 41.2471 43.0119 41.288C43.0119 41.432 43.5519 44.852 43.4919 45.932C43.489 46.0705 43.4577 46.207 43.3999 46.3329C43.3421 46.4588 43.2591 46.5715 43.1559 46.664C42.9742 46.8108 42.7527 46.9 42.5199 46.92C42.5199 46.98 42.5199 47.036 42.5519 47.1C42.6879 47.824 42.8759 48.82 42.3879 49.3C42.2876 49.3909 42.1701 49.4608 42.0423 49.5054C41.9145 49.5501 41.779 49.5686 41.6439 49.56V49.56ZM39.3679 42.36C39.4159 43.244 39.5719 46.172 39.6039 46.6C39.6879 47.76 39.7319 48.344 40.7559 48.924C40.9102 49.0192 41.0772 49.0919 41.2519 49.14C41.3954 49.1938 41.5499 49.2118 41.7018 49.1922C41.8538 49.1727 41.9987 49.1163 42.1239 49.028C42.4759 48.688 42.3079 47.804 42.1839 47.16C42.1559 47.016 42.1319 46.884 42.1159 46.76C42.1123 46.733 42.1143 46.7056 42.1219 46.6794C42.1295 46.6532 42.1425 46.6289 42.1599 46.608C42.1792 46.5887 42.2024 46.5737 42.2279 46.5641C42.2534 46.5544 42.2807 46.5503 42.3079 46.552C42.524 46.5636 42.7375 46.5 42.9119 46.372C42.977 46.3111 43.0288 46.2374 43.0639 46.1554C43.099 46.0735 43.1167 45.9852 43.1159 45.896C43.067 44.541 42.9334 43.1904 42.7159 41.852C42.459 42.1742 42.1035 42.4032 41.7039 42.504C40.9399 42.72 39.8519 42.488 39.3679 42.368V42.36Z" fill="#231F20"/>
<path d="M41.544 45.4441H41.408C41.385 45.4421 41.3626 45.4355 41.3422 45.4247C41.3218 45.4139 41.3038 45.3991 41.2892 45.3812C41.2747 45.3633 41.2639 45.3426 41.2575 45.3204C41.2511 45.2983 41.2492 45.275 41.252 45.2521C41.254 45.229 41.2605 45.2064 41.2713 45.1858C41.282 45.1652 41.2968 45.147 41.3146 45.1321C41.3325 45.1172 41.3531 45.106 41.3753 45.0992C41.3975 45.0923 41.4208 45.0899 41.444 45.0921C41.5612 45.1079 41.6805 45.0956 41.792 45.0561C41.6366 44.7649 41.4429 44.4958 41.216 44.2561C41.1847 44.2211 41.1686 44.1751 41.1712 44.1282C41.1738 44.0813 41.1949 44.0374 41.23 44.0061C41.265 43.9748 41.311 43.9587 41.3579 43.9613C41.4047 43.964 41.4487 43.9851 41.48 44.0201C42.304 44.9321 42.16 45.1441 42.108 45.2201C42.0375 45.2983 41.95 45.3592 41.8522 45.3981C41.7543 45.4369 41.6489 45.4527 41.544 45.4441Z" fill="#231F20"/>
<path d="M41.6 46.148H41.556C41.156 46.148 40.832 45.86 40.536 45.348C40.5127 45.3077 40.5064 45.2598 40.5184 45.2148C40.5304 45.1698 40.5597 45.1314 40.6 45.108C40.6409 45.0846 40.6894 45.0781 40.735 45.0901C40.7807 45.1021 40.8198 45.1315 40.844 45.172C41.076 45.572 41.32 45.784 41.572 45.796C41.948 45.796 42.268 45.396 42.268 45.396C42.2965 45.3592 42.338 45.3345 42.3841 45.3271C42.4301 45.3197 42.4772 45.33 42.516 45.356C42.535 45.3695 42.5512 45.3867 42.5636 45.4066C42.576 45.4264 42.5843 45.4485 42.588 45.4716C42.5917 45.4947 42.5908 45.5183 42.5853 45.541C42.5798 45.5638 42.5698 45.5852 42.556 45.604C42.4442 45.7572 42.3011 45.8848 42.1363 45.9786C41.9715 46.0724 41.7887 46.1301 41.6 46.148V46.148Z" fill="#231F20"/>
<path d="M39.736 44.528C39.6514 44.374 39.5097 44.2593 39.3415 44.2084C39.1733 44.1576 38.9918 44.1747 38.836 44.256C38.7638 44.2941 38.7031 44.3507 38.66 44.42C38.6054 44.526 38.5899 44.6477 38.616 44.764C38.6603 44.9877 38.7847 45.1876 38.9659 45.326C39.147 45.4645 39.3725 45.5321 39.6 45.516" fill="white"/>
<path d="M39.52 45.7041C39.2634 45.6992 39.0162 45.6069 38.8191 45.4426C38.622 45.2782 38.4869 45.0516 38.436 44.8001C38.4013 44.6397 38.4254 44.4722 38.504 44.3281C38.5633 44.2329 38.6459 44.1545 38.744 44.1001C38.843 44.0465 38.9518 44.0136 39.0638 44.0033C39.1759 43.9929 39.2889 44.0055 39.396 44.0401C39.5031 44.0682 39.6032 44.1183 39.69 44.1872C39.7767 44.256 39.8483 44.3422 39.9 44.4401C39.9171 44.4829 39.9175 44.5307 39.9011 44.5738C39.8847 44.6169 39.8527 44.6523 39.8114 44.6729C39.7701 44.6936 39.7226 44.6979 39.6783 44.6852C39.6339 44.6724 39.596 44.6435 39.572 44.6041C39.5103 44.494 39.4083 44.412 39.2875 44.3755C39.1667 44.3389 39.0364 44.3506 38.924 44.4081C38.8806 44.4291 38.8444 44.4625 38.82 44.5041C38.7865 44.5738 38.778 44.6529 38.796 44.7281C38.8326 44.9088 38.9343 45.0697 39.0818 45.1803C39.2293 45.291 39.4123 45.3435 39.596 45.3281C39.644 45.3246 39.6915 45.3397 39.7287 45.3702C39.7659 45.4007 39.79 45.4444 39.796 45.4921C39.7994 45.5407 39.7837 45.5887 39.7524 45.626C39.7211 45.6633 39.6765 45.687 39.628 45.6921L39.52 45.7041Z" fill="#231F20"/>
<path d="M41.4999 52.856C41.4611 52.8544 41.423 52.8448 41.3879 52.828C40.9399 52.612 40.0719 49.736 39.7199 48.512C39.7063 48.4654 39.7116 48.4152 39.7349 48.3725C39.7581 48.3297 39.7973 48.2979 39.8439 48.284C39.867 48.2774 39.8913 48.2755 39.9151 48.2783C39.939 48.2812 39.9621 48.2888 39.983 48.3008C40.0038 48.3127 40.0221 48.3287 40.0367 48.3478C40.0513 48.3669 40.0619 48.3888 40.0679 48.412C40.5679 50.136 41.2039 52.012 41.4919 52.412C41.6839 51.976 42.0639 49.916 42.3239 48.012C42.3326 47.9653 42.3589 47.9238 42.3975 47.896C42.4361 47.8683 42.4839 47.8566 42.5309 47.8633C42.5779 47.87 42.6205 47.8947 42.6498 47.9321C42.6791 47.9695 42.6927 48.0168 42.6879 48.064C42.2879 51.084 41.8879 52.68 41.5879 52.804C41.5632 52.8282 41.533 52.846 41.4999 52.856V52.856Z" fill="#231F20"/>
<path d="M41.4439 55.7481C42.2524 55.7481 42.9079 55.0926 42.9079 54.2841C42.9079 53.4755 42.2524 52.8201 41.4439 52.8201C40.6353 52.8201 39.9799 53.4755 39.9799 54.2841C39.9799 55.0926 40.6353 55.7481 41.4439 55.7481Z" fill="white"/>
<path d="M41.4439 55.9281C41.1176 55.9289 40.7984 55.8328 40.5268 55.652C40.2552 55.4712 40.0433 55.2139 39.9181 54.9126C39.7929 54.6113 39.7599 54.2796 39.8233 53.9595C39.8868 53.6395 40.0438 53.3455 40.2746 53.1148C40.5053 52.884 40.7993 52.727 41.1193 52.6636C41.4394 52.6001 41.7711 52.6331 42.0724 52.7583C42.3737 52.8835 42.631 53.0954 42.8118 53.367C42.9926 53.6386 43.0887 53.9578 43.0879 54.2841C43.0868 54.7198 42.9133 55.1373 42.6052 55.4454C42.2971 55.7535 41.8796 55.927 41.4439 55.9281ZM41.4439 53.0041C41.1907 53.0041 40.9432 53.0791 40.7327 53.2198C40.5222 53.3604 40.3582 53.5604 40.2613 53.7942C40.1644 54.0281 40.1391 54.2855 40.1885 54.5338C40.2379 54.7821 40.3598 55.0102 40.5388 55.1892C40.7178 55.3682 40.9459 55.4901 41.1941 55.5395C41.4424 55.5889 41.6998 55.5635 41.9337 55.4666C42.1676 55.3698 42.3675 55.2057 42.5081 54.9952C42.6488 54.7847 42.7239 54.5372 42.7239 54.2841C42.7239 53.9446 42.589 53.619 42.349 53.379C42.1089 53.1389 41.7833 53.0041 41.4439 53.0041V53.0041Z" fill="#231F20"/>
<path d="M38.9399 47.92C38.9399 47.92 28.0879 53.76 27.3399 55.744C26.5919 57.728 35.0159 63.228 35.9759 63.948C36.9359 64.668 37.5119 64.448 37.4759 63.696C37.4399 62.944 36.2759 62.308 36.2759 62.308C36.2759 62.308 36.4479 61.508 36.2319 61.196C35.9079 60.74 35.3319 61.436 35.3319 61.436L31.0159 56L37.0999 53.28" fill="white"/>
<path d="M36.96 64.576C36.5529 64.5366 36.169 64.3685 35.864 64.0961C35.74 64.0041 35.4959 63.836 35.1679 63.604C31.1119 60.804 26.5399 57.332 27.1679 55.68C27.9319 53.652 38.408 48.0001 38.856 47.7601C38.877 47.7488 38.9 47.7417 38.9237 47.7393C38.9475 47.7369 38.9714 47.7392 38.9943 47.7461C39.0171 47.753 39.0384 47.7643 39.0569 47.7794C39.0753 47.7945 39.0907 47.813 39.1019 47.8341C39.1132 47.8551 39.1203 47.8781 39.1227 47.9018C39.1251 47.9256 39.1228 47.9495 39.1159 47.9724C39.109 47.9952 39.0977 48.0165 39.0826 48.035C39.0675 48.0534 39.049 48.0688 39.028 48.0801C35.296 50.0801 28.0839 54.2881 27.5079 55.8081C27.1079 56.8681 29.756 59.408 35.376 63.304C35.712 63.54 35.9599 63.704 36.0799 63.804C36.5319 64.14 36.9199 64.28 37.1239 64.172C37.3279 64.064 37.296 63.844 37.292 63.704C37.268 63.176 36.4919 62.632 36.1959 62.468C36.1623 62.448 36.1357 62.418 36.1199 62.3821C36.1041 62.3463 36.1 62.3064 36.1079 62.268C36.1997 61.9519 36.1997 61.6162 36.1079 61.3C36.0599 61.236 36.02 61.224 35.988 61.224C35.832 61.224 35.588 61.4441 35.504 61.5521C35.468 61.5961 35.408 61.6 35.36 61.616C35.3331 61.6156 35.3066 61.6093 35.2824 61.5976C35.2582 61.5858 35.2369 61.5689 35.22 61.548L30.872 56.1321C30.8553 56.1101 30.8437 56.0847 30.8382 56.0577C30.8327 56.0307 30.8333 56.0028 30.8399 55.9761C30.8457 55.949 30.8577 55.9236 30.8751 55.9021C30.8925 55.8805 30.9147 55.8634 30.9399 55.8521L37.0239 53.1321C37.068 53.1124 37.118 53.1111 37.163 53.1283C37.208 53.1456 37.2443 53.18 37.264 53.2241C37.2836 53.2681 37.2849 53.3181 37.2677 53.3631C37.2504 53.4081 37.216 53.4444 37.172 53.4641L31.3079 56.0881L35.356 61.16C35.5206 60.9808 35.7489 60.8732 35.992 60.86C36.0724 60.8637 36.1507 60.8866 36.2204 60.927C36.29 60.9674 36.3489 61.024 36.392 61.092C36.5494 61.4453 36.5832 61.8412 36.488 62.216C36.8 62.412 37.624 62.988 37.656 63.688C37.6804 63.842 37.6593 63.9997 37.5954 64.1418C37.5314 64.2839 37.4274 64.4043 37.2959 64.488C37.1927 64.5441 37.0774 64.5743 36.96 64.576V64.576Z" fill="#231F20"/>
<path d="M41.8479 86.448L41.5999 84.4H38.3559C38.3559 84.4 34.1319 86.464 34.3559 86.464L41.8479 86.448Z" fill="#231F20"/>
<path d="M41.8479 86.624H34.3559C34.3149 86.623 34.2753 86.6088 34.2429 86.5836C34.2105 86.5584 34.187 86.5235 34.1759 86.484C34.1359 86.308 34.1239 86.256 38.2799 84.224C38.3033 84.2113 38.3293 84.2044 38.3559 84.204H41.5999C41.6433 84.2037 41.6853 84.2195 41.7178 84.2483C41.7503 84.2771 41.771 84.3169 41.7759 84.36L42.0159 86.428C42.0183 86.4525 42.0156 86.4772 42.008 86.5006C42.0004 86.5239 41.9882 86.5455 41.9719 86.564C41.9564 86.5818 41.9373 86.5963 41.916 86.6066C41.8947 86.6169 41.8716 86.6229 41.8479 86.624V86.624ZM34.9879 86.272H41.6479L41.4519 84.56H38.3999C37.3279 85.08 35.7839 85.848 34.9879 86.272Z" fill="#231F20"/>
<path d="M47.312 83.8761C47.312 83.8761 47.712 86.4481 47.928 86.4481C48.144 86.4481 54.068 83.4241 53.728 83.0321C53.388 82.6401 50.292 83.0881 50.292 83.0881L47.312 83.8761Z" fill="#231F20"/>
<path d="M47.928 86.624C47.78 86.624 47.552 86.624 47.128 83.9C47.1226 83.8569 47.133 83.8133 47.1573 83.7773C47.1815 83.7413 47.218 83.7153 47.26 83.704L50.24 82.904C51.22 82.76 53.492 82.48 53.84 82.904C53.8707 82.9425 53.8896 82.9889 53.8946 83.0379C53.8996 83.0868 53.8903 83.1362 53.868 83.18C53.6 83.868 48.232 86.624 47.928 86.624ZM47.528 84.004C47.6315 84.7646 47.7933 85.5162 48.012 86.252C48.736 85.992 53.032 83.7 53.548 83.108C53.172 82.972 51.66 83.068 50.348 83.26L47.528 84.004Z" fill="#231F20"/>
<path d="M40.5459 43.8737C40.6471 43.8646 40.7155 43.7038 40.6985 43.5146C40.6815 43.3254 40.5857 43.1793 40.4845 43.1884C40.3833 43.1975 40.315 43.3582 40.332 43.5475C40.3489 43.7367 40.4447 43.8827 40.5459 43.8737Z" fill="#231F20"/>
<path d="M42.293 43.7183C42.3942 43.7092 42.4625 43.5485 42.4456 43.3592C42.4286 43.17 42.3328 43.0239 42.2316 43.033C42.1304 43.0421 42.0621 43.2028 42.079 43.3921C42.096 43.5813 42.1918 43.7273 42.293 43.7183Z" fill="#231F20"/>
<path d="M116.696 52.264C116.696 52.264 113.348 52.532 112.696 53.724C112.044 54.916 107.6 72.632 108.352 72.632C109.104 72.632 109.708 70.436 109.708 70.436C109.708 70.436 110.796 71.88 110.776 70.98C110.756 70.08 110.776 68.052 110.776 68.052L115.412 57.164" fill="white"/>
<path d="M108.352 72.8001C108.31 72.7986 108.269 72.7865 108.234 72.7647C108.198 72.743 108.168 72.7125 108.148 72.6761C107.564 71.6881 112.04 54.5041 112.528 53.6161C113.224 52.3561 116.528 52.0761 116.68 52.0681C116.704 52.0653 116.728 52.0674 116.751 52.0743C116.774 52.0811 116.795 52.0926 116.813 52.1079C116.832 52.1233 116.847 52.1422 116.857 52.1635C116.868 52.1849 116.874 52.2082 116.876 52.2321C116.879 52.2564 116.876 52.2809 116.869 52.3043C116.862 52.3277 116.851 52.3495 116.835 52.3682C116.819 52.3869 116.8 52.4022 116.778 52.4132C116.756 52.4242 116.732 52.4306 116.708 52.4321C115.804 52.5041 113.348 52.8881 112.848 53.7961C112.348 54.7041 108.24 70.8241 108.448 72.4161C108.848 72.2561 109.312 71.1641 109.532 70.3681C109.541 70.3356 109.558 70.3063 109.583 70.2836C109.608 70.2609 109.639 70.2458 109.672 70.2401C109.705 70.2327 109.74 70.2352 109.772 70.2473C109.804 70.2594 109.832 70.2805 109.852 70.3081C110.053 70.5982 110.302 70.8524 110.588 71.0601C110.593 71.0296 110.593 70.9986 110.588 70.9681C110.568 70.0761 110.588 68.0521 110.588 68.0321C110.584 68.0096 110.584 67.9866 110.588 67.9641L115.224 57.0761C115.246 57.0369 115.282 57.0074 115.325 56.993C115.368 56.9787 115.415 56.9806 115.456 56.9984C115.498 57.0162 115.531 57.0486 115.55 57.0895C115.569 57.1303 115.573 57.1768 115.56 57.2201L110.96 68.0881C110.96 68.3681 110.96 70.1521 110.96 70.9761C110.96 71.2321 110.888 71.3761 110.732 71.4401C110.472 71.5321 110.1 71.2001 109.78 70.8201C109.56 71.5081 109.048 72.8001 108.352 72.8001Z" fill="#231F20"/>
<path d="M116.696 48.5241C116.696 48.5241 114.528 45.8081 115.824 43.9521C117.12 42.0961 121.272 42.3161 120.828 42.5441C120.54 42.6977 120.271 42.8857 120.028 43.1041C120.028 43.1041 123.196 43.8361 123.568 45.2441C123.94 46.6521 121.632 50.3161 121.632 50.3161C121.632 50.3161 122.7 50.7161 122.308 50.9321C121.916 51.1481 117.964 52.0001 116.696 48.5241Z" fill="white"/>
<path d="M120.7 51.3681C120.098 51.3752 119.5 51.2764 118.932 51.0761C118.372 50.8731 117.865 50.5459 117.45 50.1192C117.034 49.6925 116.72 49.1773 116.532 48.6121C116.304 48.3161 114.368 45.7201 115.672 43.8441C116.828 42.1881 120.128 42.1041 120.804 42.2761C120.86 42.2761 121.028 42.3321 121.044 42.4881C121.047 42.5334 121.037 42.5787 121.013 42.6175C120.989 42.6563 120.954 42.6866 120.912 42.7041C120.737 42.7961 120.57 42.9017 120.412 43.0201C121.276 43.2641 123.416 43.9801 123.736 45.2001C124.08 46.4921 122.368 49.4481 121.892 50.2281C122.224 50.3681 122.548 50.5641 122.568 50.7921C122.573 50.8542 122.559 50.9165 122.528 50.9702C122.496 51.024 122.449 51.0666 122.392 51.0921C121.852 51.2942 121.277 51.3879 120.7 51.3681ZM120.06 42.5681C118.94 42.5681 116.808 42.8561 115.972 44.0521C114.772 45.7761 116.816 48.3801 116.84 48.4041C116.852 48.4201 116.861 48.4376 116.868 48.4561C117.037 48.9765 117.322 49.4515 117.702 49.8452C118.081 50.2389 118.546 50.5408 119.06 50.7281C120.063 51.072 121.148 51.0944 122.164 50.7921C121.978 50.6618 121.775 50.5582 121.56 50.4841C121.535 50.475 121.512 50.4601 121.493 50.4407C121.474 50.4213 121.46 50.3978 121.452 50.3721C121.44 50.3478 121.434 50.3211 121.434 50.2941C121.434 50.2671 121.44 50.2405 121.452 50.2161C122.084 49.2161 123.656 46.3801 123.368 45.2881C123.08 44.1961 120.816 43.4761 119.964 43.2881C119.931 43.2805 119.902 43.2642 119.878 43.241C119.854 43.2177 119.837 43.1884 119.828 43.1561C119.819 43.1242 119.82 43.0906 119.829 43.0588C119.838 43.0271 119.856 42.9984 119.88 42.9761C120.037 42.8297 120.206 42.6959 120.384 42.5761C120.3 42.5761 120.188 42.5721 120.06 42.5721V42.5681Z" fill="#231F20"/>
<path d="M116.652 76.28L115.38 88.728H112.128L113.16 76.28H116.652Z" fill="white"/>
<path d="M115.38 88.908H112.128C112.102 88.9083 112.077 88.9031 112.053 88.8927C112.03 88.8824 112.009 88.8672 111.992 88.848C111.975 88.83 111.962 88.8085 111.955 88.785C111.947 88.7615 111.945 88.7366 111.948 88.712L112.976 76.2681C112.98 76.2221 113.001 76.1793 113.035 76.1482C113.069 76.1171 113.114 76.0999 113.16 76.1001H116.648C116.674 76.0993 116.699 76.1042 116.723 76.1146C116.746 76.125 116.767 76.1405 116.784 76.1601C116.802 76.1785 116.815 76.2006 116.823 76.2248C116.832 76.2489 116.835 76.2746 116.832 76.3001L115.564 88.744C115.559 88.7893 115.537 88.8311 115.503 88.8614C115.469 88.8917 115.425 88.9083 115.38 88.908ZM112.328 88.544H115.2L116.432 76.4641H113.312L112.328 88.544Z" fill="#231F20"/>
<path d="M122.692 74.44L121.644 88.728H118.392L118.4 73.864L122.692 74.44Z" fill="white"/>
<path d="M121.644 88.908H118.4C118.352 88.9079 118.306 88.8893 118.272 88.856C118.255 88.8395 118.241 88.8196 118.231 88.7977C118.221 88.7757 118.216 88.752 118.216 88.728V73.864C118.216 73.8374 118.222 73.8112 118.233 73.787C118.244 73.7628 118.26 73.7413 118.28 73.724C118.321 73.6919 118.372 73.6762 118.424 73.68L122.716 74.26C122.762 74.2651 122.805 74.2879 122.835 74.3237C122.865 74.3595 122.879 74.4055 122.876 74.452L121.828 88.74C121.824 88.786 121.803 88.8288 121.769 88.8599C121.735 88.891 121.69 88.9082 121.644 88.908V88.908ZM118.576 88.544H121.476L122.496 74.596L118.584 74.072L118.576 88.544Z" fill="#231F20"/>
<path d="M123.412 63.4321C123.388 69.5801 123.56 77.4321 123.56 77.4321L117.816 77.1201L118.348 68.1521L117.096 77.2561L111.896 77.0961L113.656 63.4241L123.412 63.4321Z" fill="#231F20"/>
<path d="M123.56 77.6L117.812 77.288C117.766 77.2838 117.723 77.2624 117.692 77.228C117.676 77.2109 117.664 77.1907 117.657 77.1686C117.649 77.1466 117.646 77.1232 117.648 77.1L117.912 72.7L117.276 77.292C117.27 77.3351 117.248 77.3745 117.215 77.4026C117.182 77.4306 117.139 77.4454 117.096 77.444L111.896 77.284C111.871 77.2838 111.847 77.2782 111.824 77.2676C111.802 77.257 111.782 77.2416 111.766 77.2226C111.75 77.2036 111.738 77.1814 111.732 77.1575C111.725 77.1336 111.724 77.1085 111.728 77.084L113.488 63.412C113.494 63.3696 113.515 63.3308 113.547 63.3028C113.58 63.2748 113.621 63.2596 113.664 63.26H123.424C123.447 63.2599 123.47 63.2645 123.491 63.2734C123.513 63.2823 123.532 63.2955 123.548 63.312C123.581 63.3448 123.6 63.3894 123.6 63.436C123.58 69.512 123.748 77.36 123.748 77.436C123.749 77.4598 123.745 77.4835 123.736 77.5056C123.727 77.5277 123.713 77.5476 123.696 77.564C123.657 77.5935 123.608 77.6065 123.56 77.6V77.6ZM118 76.96L123.38 77.252C123.356 76.024 123.22 69.132 123.232 63.608H113.808L112.092 76.932L116.94 77.084L118.176 68.132C118.185 68.0897 118.21 68.0522 118.245 68.0268C118.28 68.0014 118.323 67.9898 118.366 67.9942C118.409 67.9987 118.449 68.0189 118.478 68.0509C118.507 68.083 118.524 68.1247 118.524 68.168L118 76.96Z" fill="#231F20"/>
<path d="M112.688 66.672C112.688 66.672 113.92 57.904 113.8 57.164L116.376 51.808L122.132 52.264L123.988 55.784C124.057 59.101 123.944 62.4192 123.652 65.724L112.688 66.672Z" fill="#D1D3D4"/>
<path d="M117.704 51.088C117.56 52.04 116.928 54.068 118.784 53.672C118.978 53.6193 119.164 53.5399 119.336 53.436C120.436 52.812 120.492 52.14 120.58 50.964C120.616 50.456 120.828 46.468 120.828 46.468C120.828 46.468 119.296 46.936 118.34 46.684C118.078 46.6197 117.835 46.493 117.632 46.3147C117.43 46.1364 117.273 45.9118 117.176 45.66C117.176 45.66 116.636 49.196 116.7 50.264C116.708 50.3854 116.741 50.5038 116.797 50.6119C116.853 50.7201 116.93 50.8157 117.024 50.8929C117.118 50.97 117.227 51.0272 117.344 51.0607C117.461 51.0943 117.583 51.1036 117.704 51.088V51.088Z" fill="white"/>
<path d="M118.356 53.904C118.222 53.9115 118.088 53.8925 117.962 53.8478C117.836 53.8032 117.719 53.7339 117.62 53.644C117.132 53.164 117.32 52.168 117.456 51.444C117.456 51.384 117.48 51.324 117.488 51.264C117.255 51.244 117.034 51.1548 116.852 51.008C116.749 50.9155 116.666 50.8028 116.608 50.6769C116.55 50.551 116.519 50.4145 116.516 50.276C116.456 49.2 116.976 45.776 116.996 45.632C117.003 45.5911 117.023 45.5537 117.053 45.5254C117.084 45.4972 117.123 45.4799 117.164 45.476C117.205 45.4732 117.246 45.4843 117.28 45.5075C117.314 45.5307 117.339 45.5647 117.352 45.604C117.439 45.8261 117.578 46.0238 117.758 46.1805C117.937 46.3372 118.152 46.4482 118.384 46.504C119.284 46.744 120.76 46.296 120.784 46.292C120.812 46.283 120.841 46.2812 120.87 46.2868C120.899 46.2924 120.926 46.3052 120.948 46.324C120.972 46.3413 120.991 46.3643 121.003 46.3909C121.016 46.4174 121.022 46.4467 121.02 46.476C121.02 46.64 120.808 50.476 120.768 50.98C120.684 52.148 120.628 52.916 119.432 53.592C119.115 53.8007 118.743 53.9094 118.364 53.904H118.356ZM117.704 50.908C117.73 50.907 117.757 50.9119 117.781 50.9224C117.805 50.9329 117.827 50.9487 117.844 50.9687C117.861 50.9887 117.874 51.0123 117.881 51.0378C117.888 51.0633 117.889 51.09 117.884 51.116C117.884 51.236 117.844 51.368 117.816 51.516C117.692 52.16 117.524 53.044 117.876 53.388C118.002 53.4747 118.147 53.5298 118.299 53.5486C118.45 53.5674 118.605 53.5494 118.748 53.496C118.923 53.4487 119.09 53.3759 119.244 53.28C120.268 52.7 120.312 52.116 120.396 50.956C120.428 50.528 120.584 47.6 120.632 46.716C119.873 46.9382 119.073 46.9888 118.292 46.864C117.892 46.7632 117.537 46.5342 117.28 46.212C117.063 47.5504 116.929 48.901 116.88 50.256C116.88 50.3457 116.897 50.4345 116.933 50.517C116.968 50.5995 117.019 50.6741 117.084 50.736C117.258 50.8611 117.47 50.9232 117.684 50.912L117.704 50.908Z" fill="#231F20"/>
<path d="M118.456 49.788C118.352 49.7976 118.247 49.7831 118.149 49.7457C118.051 49.7082 117.963 49.6488 117.892 49.572C117.84 49.492 117.696 49.28 118.52 48.372C118.551 48.337 118.595 48.3159 118.642 48.3133C118.689 48.3106 118.735 48.3267 118.77 48.358C118.805 48.3893 118.826 48.4333 118.829 48.4801C118.831 48.527 118.815 48.573 118.784 48.608C118.557 48.8478 118.363 49.1168 118.208 49.408C118.319 49.4474 118.439 49.4597 118.556 49.444C118.603 49.4396 118.65 49.4538 118.687 49.4838C118.724 49.5137 118.747 49.557 118.752 49.604C118.754 49.6272 118.752 49.6505 118.745 49.6727C118.738 49.6949 118.727 49.7155 118.712 49.7334C118.697 49.7512 118.679 49.766 118.658 49.7767C118.638 49.7875 118.615 49.794 118.592 49.796L118.456 49.788Z" fill="#231F20"/>
<path d="M118.4 50.492C118.21 50.4722 118.026 50.412 117.861 50.3155C117.696 50.2189 117.554 50.0881 117.444 49.932C117.43 49.9132 117.42 49.8918 117.415 49.869C117.409 49.8463 117.408 49.8227 117.412 49.7996C117.416 49.7765 117.424 49.7544 117.436 49.7346C117.449 49.7147 117.465 49.6975 117.484 49.684C117.523 49.658 117.57 49.6477 117.616 49.6551C117.662 49.6625 117.703 49.6872 117.732 49.724C117.815 49.8345 117.919 49.9269 118.039 49.9957C118.158 50.0644 118.291 50.1081 118.428 50.124C118.68 50.124 118.924 49.9 119.156 49.5C119.18 49.4595 119.219 49.4301 119.265 49.4181C119.311 49.4062 119.359 49.4126 119.4 49.436C119.44 49.4594 119.47 49.4978 119.482 49.5428C119.494 49.5878 119.487 49.6357 119.464 49.676C119.168 50.188 118.824 50.476 118.444 50.476L118.4 50.492Z" fill="#231F20"/>
<path d="M119.64 48.2881C119.61 48.2885 119.581 48.2814 119.556 48.2674C119.53 48.2534 119.508 48.233 119.492 48.2081C119.428 48.1121 119.312 48.0041 119.256 48.0041C119.256 48.0041 119.208 48.0361 119.172 48.1001C119.151 48.1413 119.114 48.1724 119.07 48.1867C119.025 48.2009 118.977 48.1971 118.936 48.1761C118.915 48.1655 118.896 48.1509 118.881 48.133C118.866 48.1151 118.855 48.0944 118.847 48.0721C118.84 48.0497 118.838 48.0262 118.84 48.0028C118.842 47.9795 118.849 47.9568 118.86 47.9361C118.891 47.8582 118.943 47.7902 119.01 47.7395C119.077 47.6888 119.156 47.6572 119.24 47.6481C119.54 47.6481 119.748 47.9521 119.792 48.0161C119.816 48.0556 119.825 48.1031 119.815 48.1485C119.805 48.194 119.778 48.234 119.74 48.2601C119.71 48.2797 119.675 48.2895 119.64 48.2881V48.2881Z" fill="#231F20"/>
<path d="M117.54 48.204C117.511 48.2056 117.481 48.1987 117.456 48.184C117.435 48.1736 117.416 48.1589 117.401 48.1409C117.386 48.123 117.375 48.1021 117.368 48.0796C117.361 48.0571 117.359 48.0335 117.362 48.0102C117.365 47.9869 117.372 47.9644 117.384 47.944C117.43 47.8486 117.495 47.7637 117.576 47.6948C117.656 47.626 117.75 47.5746 117.852 47.5441C117.968 47.5351 118.084 47.5719 118.173 47.6466C118.263 47.7213 118.32 47.828 118.332 47.944C118.343 47.9897 118.336 48.0378 118.311 48.078C118.287 48.1181 118.248 48.1469 118.202 48.158C118.156 48.1692 118.108 48.1617 118.068 48.1374C118.028 48.113 117.999 48.0737 117.988 48.028C117.977 47.9804 117.952 47.9372 117.916 47.904C117.824 47.904 117.724 48.048 117.696 48.104C117.681 48.1333 117.659 48.158 117.632 48.1757C117.604 48.1933 117.573 48.2031 117.54 48.204Z" fill="#231F20"/>
<path d="M120.264 48.872C120.349 48.718 120.49 48.6033 120.659 48.5524C120.827 48.5016 121.008 48.5187 121.164 48.6C121.236 48.6381 121.297 48.6947 121.34 48.764C121.395 48.87 121.41 48.9917 121.384 49.108C121.34 49.3303 121.217 49.529 121.037 49.6673C120.858 49.8055 120.634 49.874 120.408 49.86" fill="white"/>
<path d="M120.48 50.0481H120.4C120.352 50.043 120.307 50.0193 120.276 49.982C120.244 49.9447 120.229 49.8967 120.232 49.8481C120.238 49.8003 120.262 49.7567 120.299 49.7262C120.337 49.6957 120.384 49.6806 120.432 49.6841C120.612 49.6945 120.791 49.6396 120.934 49.5294C121.077 49.4192 121.176 49.2611 121.212 49.0841C121.23 49.0089 121.222 48.9297 121.188 48.8601C121.163 48.8182 121.127 48.7838 121.084 48.7601C121.028 48.7315 120.967 48.7143 120.905 48.7095C120.842 48.7047 120.779 48.7123 120.72 48.7321C120.66 48.7485 120.603 48.7773 120.554 48.8165C120.505 48.8557 120.465 48.9046 120.436 48.9601C120.412 48.9995 120.374 49.0284 120.33 49.0412C120.285 49.0539 120.238 49.0495 120.197 49.0289C120.155 49.0083 120.123 48.9729 120.107 48.9298C120.09 48.8866 120.091 48.8389 120.108 48.7961C120.16 48.6981 120.231 48.612 120.318 48.5432C120.405 48.4743 120.505 48.4242 120.612 48.3961C120.719 48.3617 120.832 48.3493 120.944 48.3596C121.056 48.3699 121.165 48.4027 121.264 48.4561C121.363 48.5108 121.446 48.5909 121.504 48.6881C121.583 48.8306 121.607 48.997 121.572 49.1561C121.518 49.4067 121.381 49.6316 121.183 49.7937C120.984 49.9559 120.736 50.0456 120.48 50.0481V50.0481Z" fill="#231F20"/>
<path d="M118.5 57.2001C118.471 57.2039 118.441 57.2039 118.412 57.2001C118.1 57.0721 117.76 55.6761 117.4 53.0481C117.397 53.0015 117.412 52.9556 117.441 52.9196C117.471 52.8836 117.513 52.8601 117.559 52.854C117.606 52.8479 117.653 52.8596 117.69 52.8867C117.728 52.9138 117.755 52.9544 117.764 53.0001C117.98 54.6001 118.308 56.3321 118.516 56.7801C118.804 56.3441 119.436 54.4841 119.932 52.7801C119.945 52.7336 119.976 52.6942 120.018 52.6702C120.06 52.6463 120.109 52.6398 120.156 52.6521C120.203 52.666 120.242 52.6978 120.265 52.7405C120.288 52.7832 120.294 52.8334 120.28 52.8801C119.928 54.1041 119.06 56.9801 118.612 57.1961C118.575 57.2065 118.537 57.2079 118.5 57.2001V57.2001Z" fill="#231F20"/>
<path d="M118.556 60.0921C119.364 60.0921 120.02 59.4366 120.02 58.6281C120.02 57.8195 119.364 57.1641 118.556 57.1641C117.747 57.1641 117.092 57.8195 117.092 58.6281C117.092 59.4366 117.747 60.0921 118.556 60.0921Z" fill="white"/>
<path d="M118.556 60.2721C118.23 60.2721 117.911 60.1753 117.64 59.9941C117.369 59.8128 117.158 59.5552 117.033 59.2538C116.908 58.9524 116.876 58.6209 116.94 58.3011C117.004 57.9813 117.161 57.6877 117.392 57.4574C117.623 57.227 117.917 57.0704 118.237 57.0073C118.557 56.9441 118.888 56.9773 119.189 57.1027C119.49 57.228 119.748 57.4399 119.928 57.7114C120.109 57.9829 120.205 58.302 120.204 58.6281C120.203 59.0645 120.029 59.4826 119.72 59.7908C119.411 60.099 118.992 60.2721 118.556 60.2721ZM118.556 57.3481C118.303 57.3481 118.055 57.4231 117.845 57.5638C117.634 57.7044 117.47 57.9044 117.373 58.1382C117.277 58.3721 117.251 58.6295 117.301 58.8778C117.35 59.1261 117.472 59.3542 117.651 59.5332C117.83 59.7122 118.058 59.8341 118.306 59.8835C118.555 59.9329 118.812 59.9075 119.046 59.8106C119.28 59.7138 119.48 59.5497 119.62 59.3392C119.761 59.1287 119.836 58.8812 119.836 58.6281C119.836 58.2886 119.701 57.963 119.461 57.723C119.221 57.4829 118.895 57.3481 118.556 57.3481Z" fill="#231F20"/>
<path d="M122.132 52.264C122.132 52.264 131.912 58.104 132.664 60.088C133.416 62.072 124.968 68 124 68.736C123.032 69.472 122.484 68.792 122.52 68.04C122.556 67.288 123.72 66.652 123.72 66.652C123.72 66.652 123.548 65.852 123.764 65.54C124.088 65.084 124.664 65.78 124.664 65.78L128.992 60.36L123.568 57.936" fill="white"/>
<path d="M123.248 69.228C123.109 69.2307 122.972 69.1991 122.848 69.136C122.666 69.0198 122.52 68.8545 122.428 68.6591C122.336 68.4638 122.302 68.2463 122.328 68.032C122.36 67.332 123.184 66.756 123.496 66.56C123.401 66.1852 123.434 65.7892 123.592 65.436C123.635 65.368 123.694 65.3114 123.763 65.271C123.833 65.2306 123.911 65.2076 123.992 65.204C124.234 65.2222 124.46 65.3291 124.628 65.504L128.676 60.432L123.476 58.104C123.431 58.0838 123.397 58.0468 123.379 58.0011C123.362 57.9553 123.364 57.9046 123.384 57.86C123.404 57.8154 123.441 57.7807 123.487 57.7635C123.533 57.7462 123.583 57.7478 123.628 57.768L129.052 60.196C129.077 60.2073 129.099 60.2245 129.117 60.246C129.134 60.2676 129.146 60.2929 129.152 60.32C129.159 60.3467 129.159 60.3746 129.154 60.4016C129.148 60.4286 129.137 60.4541 129.12 60.476L124.8 65.892C124.783 65.9136 124.762 65.9311 124.737 65.9431C124.712 65.9551 124.685 65.9614 124.658 65.9614C124.631 65.9614 124.604 65.9551 124.579 65.9431C124.554 65.9311 124.533 65.9136 124.516 65.892C124.424 65.784 124.188 65.564 124.024 65.564C123.992 65.564 123.952 65.564 123.904 65.64C123.812 65.9561 123.812 66.2919 123.904 66.608C123.912 66.6463 123.908 66.6862 123.892 66.7221C123.876 66.7579 123.85 66.788 123.816 66.808C123.52 66.972 122.744 67.516 122.72 68.044C122.699 68.1888 122.718 68.3366 122.775 68.4713C122.832 68.606 122.925 68.7225 123.044 68.808C123.26 68.92 123.568 68.84 123.908 68.584L124.308 68.3C132.004 62.7 132.756 60.78 132.516 60.148C131.94 58.624 125.424 54.424 122.06 52.416C122.036 52.4057 122.014 52.3904 121.996 52.3709C121.978 52.3515 121.965 52.3285 121.957 52.3034C121.948 52.2783 121.946 52.2518 121.949 52.2256C121.952 52.1994 121.96 52.1741 121.974 52.1515C121.988 52.1289 122.006 52.1095 122.028 52.0947C122.049 52.0798 122.074 52.0697 122.1 52.0652C122.126 52.0607 122.153 52.0618 122.178 52.0685C122.204 52.0752 122.227 52.0873 122.248 52.104C122.648 52.344 132.092 57.996 132.856 60.02C133.356 61.332 130.628 64.14 124.524 68.596L124.124 68.876C123.88 69.0882 123.571 69.2121 123.248 69.228V69.228Z" fill="#231F20"/>
<path d="M118.152 90.8001L118.392 88.7361H121.644C121.644 88.7361 125.868 90.8001 125.644 90.8001H118.152Z" fill="#231F20"/>
<path d="M125.644 90.9681H118.152C118.102 90.9676 118.055 90.9474 118.02 90.9121C117.988 90.8729 117.972 90.8227 117.976 90.7721L118.216 88.7041C118.221 88.6613 118.242 88.622 118.274 88.5938C118.307 88.5657 118.349 88.5508 118.392 88.5521H121.644C121.669 88.5461 121.695 88.5461 121.72 88.5521C125.876 90.5841 125.864 90.6361 125.824 90.8121C125.816 90.8545 125.794 90.893 125.761 90.9214C125.728 90.9497 125.687 90.9661 125.644 90.9681V90.9681ZM118.352 90.6161H125.012C124.212 90.2161 122.672 89.4161 121.604 88.9041H118.548L118.352 90.6161Z" fill="#231F20"/>
<path d="M115.62 90.8001L115.38 88.7361H112.128C112.128 88.7361 111.704 88.9401 111.136 89.2241C109.904 89.8361 107.976 90.8001 108.128 90.8001H115.62Z" fill="#231F20"/>
<path d="M115.62 90.9681H108.128C108.087 90.967 108.047 90.9529 108.015 90.9277C107.983 90.9025 107.959 90.8676 107.948 90.8281C107.908 90.6481 107.9 90.6201 111.056 89.0561L112.052 88.5681C112.077 88.5621 112.103 88.5621 112.128 88.5681H115.38C115.423 88.5668 115.465 88.5817 115.498 88.6098C115.53 88.638 115.551 88.6773 115.556 88.7201L115.796 90.7881C115.8 90.8387 115.784 90.8888 115.752 90.9281C115.715 90.9576 115.667 90.9719 115.62 90.9681V90.9681ZM108.76 90.6161H115.42L115.224 88.9041H112.168L111.2 89.3721C109.9 90.0241 109.168 90.4001 108.76 90.6161V90.6161Z" fill="#231F20"/>
</svg>
