<svg width="160" height="120" viewBox="0 0 160 120" fill="none" xmlns="http://www.w3.org/2000/svg">
<path d="M116.728 58.116C116.728 58.116 128.464 68.056 128.328 75.264C128.192 82.472 125.128 85.448 117.3 82.02C109.472 78.592 93.3999 60.888 93.3999 60.888L116.728 58.116Z" fill="white"/>
<path d="M122.8 83.652C121.264 83.652 119.412 83.172 117.2 82.208C109.44 78.804 93.3919 61.208 93.2279 61.008C93.2029 60.9798 93.1861 60.9453 93.1792 60.9083C93.1723 60.8712 93.1756 60.833 93.1887 60.7976C93.2019 60.7623 93.2244 60.7312 93.2538 60.7077C93.2833 60.6841 93.3185 60.6691 93.3559 60.664L116.696 57.888C116.752 57.8842 116.808 57.9013 116.852 57.936C118.943 59.7632 120.905 61.7333 122.724 63.832C126.628 68.368 128.576 72.208 128.512 75.252C128.432 79.2 127.496 81.692 125.652 82.852C124.798 83.3879 123.808 83.6657 122.8 83.652V83.652ZM93.8279 61.048C95.9719 63.376 110.256 78.704 117.384 81.848C120.984 83.448 123.708 83.668 125.448 82.556C127.188 81.444 128.04 79.08 128.12 75.276C128.26 68.532 117.628 59.172 116.672 58.344L93.8279 61.048Z" fill="#231F20"/>
<path d="M49.152 54.472C49.152 54.472 27.528 74.896 27.68 82.104C27.832 89.312 36.08 87.908 43.896 84.48C51.712 81.052 59.896 64.136 59.896 64.136L49.152 54.472Z" fill="white"/>
<path d="M33.3359 87.492C32.0301 87.5506 30.7345 87.2371 29.5999 86.588C28.2239 85.708 27.5039 84.188 27.4599 82.108C27.3959 79.064 31.0079 73.46 38.1919 65.448C43.5239 59.504 48.9439 54.376 48.9919 54.324C49.0298 54.2883 49.0799 54.2684 49.1319 54.2684C49.184 54.2684 49.2341 54.2883 49.2719 54.324L60.0279 64C60.0612 64.0301 60.0838 64.0701 60.0924 64.114C60.1011 64.158 60.0953 64.2036 60.0759 64.244C58.5464 67.3038 56.8505 70.2776 54.9959 73.152C50.9599 79.368 47.2559 83.248 43.9799 84.684C41.2319 85.872 36.8839 87.492 33.3359 87.492ZM49.1559 54.756C47.3079 56.516 27.7439 75.364 27.8839 82.1C27.9239 84.044 28.5799 85.44 29.8359 86.24C33.2159 88.396 40.0439 85.944 43.8119 84.292C51.0919 81.092 58.8279 65.812 59.6359 64.188L49.1559 54.756Z" fill="#231F20"/>
<path d="M108.832 50.248C99.9719 44.12 85.7279 42.16 85.7279 42.16H76.7999C76.7999 42.16 60.5799 43.12 51.7199 49.248C42.8599 55.376 41.0599 58.976 41.0599 58.976L57.5759 77.148L60.7319 75.344L64.8599 95.92H97.6599L102.944 74.832L107.16 76.584L122.14 59.948C122.14 59.948 117.692 56.372 108.832 50.248Z" fill="#BB86FC"/>
<path d="M77.808 61.72C83.196 64.808 89.008 52.72 91.512 53.508C94.016 54.296 93.388 64.136 93.388 64.136L95.96 64.084C95.96 64.084 98.008 55.08 95.892 52.06C91.056 45.164 84.848 55.212 81.512 57.628C78.176 60.044 73.988 42.428 73.988 42.428L71.376 42.992C71.376 42.992 73.768 59.4 77.808 61.72Z" fill="#231F20"/>
<path d="M93.3879 64.336C93.3617 64.3363 93.3357 64.3312 93.3116 64.3208C93.2875 64.3105 93.2658 64.2952 93.2479 64.276C93.2283 64.2561 93.2132 64.2323 93.2035 64.2061C93.1939 64.1799 93.1899 64.1519 93.1919 64.124C93.3679 61.432 93.4 54.308 91.452 53.7C90.604 53.432 89.0879 55.104 87.4879 56.872C84.6679 59.988 81.156 63.868 77.708 61.892C73.632 59.552 71.2759 43.688 71.1799 43.012C71.1729 42.9623 71.1851 42.9118 71.2141 42.8709C71.2431 42.83 71.2867 42.8017 71.3359 42.792L73.9479 42.224C73.9988 42.2132 74.0519 42.2225 74.096 42.2502C74.14 42.2778 74.1716 42.3215 74.184 42.372C74.184 42.408 75.04 45.972 76.2559 49.608C78.2559 55.64 79.696 57.28 80.54 57.608C80.6811 57.6647 80.8349 57.6827 80.9853 57.6602C81.1358 57.6377 81.2775 57.5755 81.396 57.48C82.3544 56.6989 83.2504 55.8444 84.076 54.924C86.476 52.412 89.4719 49.284 92.4039 49.508C93.7559 49.612 94.9839 50.436 96.0519 51.96C98.1999 55.02 96.2359 63.772 96.1519 64.144C96.1423 64.1871 96.1185 64.2258 96.0845 64.2541C96.0505 64.2823 96.0081 64.2984 95.9639 64.3L93.396 64.352L93.3879 64.336ZM91.2639 53.272C91.3685 53.272 91.4724 53.2882 91.5719 53.32C92.7039 53.672 93.384 55.62 93.596 59.108C93.6817 60.7149 93.6817 62.3252 93.596 63.932L95.796 63.888C96.048 62.688 97.6199 54.876 95.7239 52.172C94.7119 50.732 93.6159 49.984 92.3679 49.888C89.6399 49.68 86.7119 52.732 84.3679 55.184C83.5266 56.1219 82.6131 56.9926 81.6359 57.788C81.4636 57.9218 81.2595 58.0087 81.0437 58.0402C80.8278 58.0718 80.6074 58.0469 80.4039 57.968C77.3999 56.852 74.276 44.424 73.844 42.656L71.6039 43.14C71.8839 44.948 74.228 59.432 77.9119 61.54C81.0799 63.36 84.472 59.612 87.196 56.6C88.86 54.764 90.208 53.272 91.2639 53.272Z" fill="#231F20"/>
<path d="M91.948 30.4C91.804 30.104 92.468 23.2 91.948 18.02C91.056 9.22001 73.404 8.67201 70.624 15.88C69.368 19.144 70.392 30.972 70.392 30.972L91.948 30.4Z" fill="white"/>
<path d="M70.3999 31.2C70.3474 31.2002 70.2968 31.1805 70.2582 31.1449C70.2197 31.1092 70.196 31.0604 70.1919 31.008C70.1519 30.524 69.1799 19.096 70.4399 15.828C72.0399 11.708 78.1799 10.2 83.1679 10.868C87.1999 11.396 91.7039 13.56 92.1519 18C92.5119 21.572 92.3159 25.876 92.1959 28.448C92.1519 29.392 92.1159 30.204 92.1439 30.332C92.1597 30.3601 92.168 30.3918 92.168 30.424C92.168 30.4562 92.1597 30.4879 92.1439 30.516C92.1247 30.5446 92.0983 30.5677 92.0675 30.5832C92.0367 30.5986 92.0024 30.6058 91.9679 30.604L70.3999 31.2ZM80.7999 11.108C76.5359 11.108 72.0839 12.64 70.7999 15.956C69.6599 18.908 70.4359 29.216 70.5599 30.756L91.6999 30.192C91.6999 29.924 91.6999 29.42 91.7639 28.428C91.8799 25.864 92.0799 21.58 91.7239 18.028C91.2999 13.828 86.9839 11.772 83.0839 11.228C82.3261 11.1376 81.5631 11.0975 80.7999 11.108V11.108Z" fill="#231F20"/>
<path d="M88.188 29.548C88.716 26.252 94.188 25.44 93.92 29.324C93.8766 30.6737 93.3598 31.9651 92.46 32.972C91.524 33.928 90 34.4 88.8 33.832" fill="white"/>
<path d="M89.932 34.272C89.5095 34.2758 89.0909 34.1899 88.704 34.02C88.6793 34.009 88.657 33.9932 88.6385 33.9736C88.6199 33.9539 88.6053 33.9308 88.5957 33.9055C88.586 33.8803 88.5814 33.8534 88.5822 33.8263C88.5829 33.7993 88.589 33.7727 88.6 33.748C88.611 33.7233 88.6268 33.701 88.6465 33.6825C88.6661 33.6639 88.6892 33.6493 88.7145 33.6397C88.7397 33.63 88.7666 33.6254 88.7937 33.6262C88.8207 33.6269 88.8473 33.633 88.872 33.644C89.4599 33.8683 90.1013 33.912 90.7142 33.7694C91.3271 33.6269 91.8834 33.3047 92.312 32.844C93.34 31.8 93.64 30.352 93.712 29.324C93.848 27.396 92.536 27.032 91.964 26.968C90.504 26.8 88.672 27.824 88.4 29.6C88.3822 29.6434 88.3503 29.6796 88.3094 29.7026C88.2685 29.7256 88.221 29.7341 88.1746 29.7267C88.1283 29.7192 88.0858 29.6964 88.0541 29.6618C88.0224 29.6271 88.0033 29.5828 88 29.536C88.32 27.536 90.368 26.372 92.028 26.56C93.132 26.688 94.272 27.492 94.14 29.36C94.064 30.456 93.74 32 92.624 33.136C92.2719 33.4929 91.8529 33.7769 91.391 33.9719C90.9291 34.1668 90.4333 34.2688 89.932 34.272Z" fill="#231F20"/>
<path d="M74.5519 29.548C74.0239 26.252 68.552 25.44 68.82 29.324C68.8633 30.6737 69.3802 31.9651 70.2799 32.972C71.2159 33.928 72.7279 34.38 73.9519 33.832" fill="white"/>
<path d="M72.7999 34.272C72.2997 34.2649 71.8059 34.1592 71.3467 33.9608C70.8874 33.7624 70.4719 33.4753 70.1239 33.116C69.0079 31.98 68.6839 30.436 68.6079 29.34C68.4759 27.472 69.6119 26.668 70.7199 26.54C72.3799 26.352 74.4279 27.528 74.7479 29.516C74.7598 29.545 74.7649 29.5763 74.763 29.6076C74.761 29.6389 74.7521 29.6693 74.7367 29.6966C74.7214 29.724 74.7 29.7475 74.6743 29.7654C74.6486 29.7833 74.6192 29.7952 74.5882 29.8001C74.5573 29.8051 74.5256 29.803 74.4956 29.794C74.4656 29.785 74.438 29.7693 74.4149 29.7481C74.3918 29.727 74.3738 29.7008 74.3622 29.6717C74.3506 29.6426 74.3457 29.6113 74.3479 29.58C74.0679 27.82 72.2359 26.78 70.7759 26.952C70.2039 27.016 68.8919 27.38 69.0279 29.308C69.0999 30.336 69.3999 31.784 70.4279 32.828C70.8565 33.2887 71.4129 33.6109 72.0257 33.7535C72.6386 33.896 73.28 33.8523 73.8679 33.628C73.9178 33.6063 73.9743 33.605 74.0251 33.6245C74.076 33.6439 74.1172 33.6825 74.1399 33.732C74.1616 33.7819 74.1629 33.8384 74.1434 33.8892C74.124 33.9401 74.0854 33.9813 74.0359 34.004C73.6477 34.1805 73.2263 34.2719 72.7999 34.272V34.272Z" fill="#231F20"/>
<path d="M74.5519 44.552C74.5519 44.552 76.5119 49.248 80.832 49.248C85.152 49.248 87.744 45.688 87.744 45.688V30.972L74.5439 30.4L74.5519 44.552Z" fill="white"/>
<path d="M80.8319 49.452C76.4319 49.452 74.3799 44.68 74.3599 44.652C74.3558 44.6255 74.3558 44.5985 74.3599 44.572V30.4C74.3599 30.3717 74.3655 30.3436 74.3765 30.3175C74.3875 30.2914 74.4036 30.2678 74.4239 30.248C74.4654 30.2103 74.5199 30.1902 74.5759 30.192L87.7759 30.764C87.8293 30.767 87.8797 30.7901 87.9168 30.8287C87.9538 30.8673 87.975 30.9185 87.9759 30.972V45.688C87.9756 45.7312 87.9616 45.7732 87.9359 45.808C87.8839 45.848 85.1999 49.452 80.8319 49.452ZM74.7559 44.508C74.9519 44.94 76.8999 49.04 80.8319 49.04C84.7039 49.04 87.1959 46.052 87.5399 45.616V31.168L74.7399 30.612L74.7559 44.508Z" fill="#231F20"/>
<path d="M74.9399 37.068C75.0519 37.688 76.7999 42.572 87.7399 43.248V36.4C85.8959 36.664 82.5999 38.576 80.6079 38.4C78.9439 38.252 77.2279 38.092 75.7039 37.452C75.4439 37.328 75.1999 37.2 74.9399 37.068Z" fill="#231F20"/>
<path d="M87.7439 43.448C75.8839 42.716 74.7679 37.156 74.7559 37.1C74.75 37.0628 74.7547 37.0246 74.7696 36.9899C74.7845 36.9552 74.8088 36.9255 74.8399 36.904C74.8718 36.8846 74.9085 36.8743 74.9459 36.8743C74.9833 36.8743 75.0199 36.8846 75.0519 36.904C75.2719 37.028 75.5199 37.152 75.7999 37.276C77.3239 37.92 79.0879 38.076 80.6399 38.208C81.7759 38.316 83.4399 37.676 84.8959 37.116C85.8085 36.7249 86.757 36.4235 87.7279 36.216C87.7565 36.2118 87.7856 36.2138 87.8133 36.2221C87.8409 36.2304 87.8664 36.2447 87.8879 36.264C87.9094 36.2822 87.9266 36.3049 87.9384 36.3305C87.9501 36.356 87.9561 36.3839 87.9559 36.412V43.26C87.956 43.2872 87.9504 43.3141 87.9394 43.3389C87.9283 43.3637 87.9122 43.3859 87.8919 43.404C87.8716 43.4212 87.848 43.434 87.8225 43.4416C87.7971 43.4491 87.7703 43.4513 87.7439 43.448ZM75.2999 37.476C75.8759 38.76 78.3159 42.412 87.5439 43.036V36.636C86.6857 36.8519 85.8447 37.1314 85.0279 37.472C83.4519 38.076 81.8279 38.704 80.5959 38.588C78.9959 38.452 77.2159 38.292 75.6319 37.628L75.2999 37.476Z" fill="#231F20"/>
<path d="M80.6799 39.62H81.5599C83.5639 39.62 85.4858 38.824 86.9028 37.4069C88.3198 35.9899 89.1159 34.068 89.1159 32.064V20.1C86.5848 21.1571 83.888 21.7623 81.1479 21.888C78.3704 21.9259 75.6226 21.3135 73.1239 20.1V32.064C73.1239 33.0563 73.3193 34.0389 73.6991 34.9556C74.0788 35.8723 74.6354 36.7053 75.337 37.4069C76.0386 38.1086 76.8716 38.6651 77.7883 39.0449C78.7051 39.4246 79.6876 39.62 80.6799 39.62V39.62Z" fill="white"/>
<path d="M89.116 20.1V32.064C89.116 34.068 88.3199 35.9899 86.9029 37.4069C85.4859 38.8239 83.564 39.62 81.56 39.62H80.68C78.676 39.62 76.7541 38.8239 75.3371 37.4069C73.9201 35.9899 73.124 34.068 73.124 32.064V20.1C75.476 21.2421 78.0497 21.8551 80.664 21.896H81.148C83.8881 21.7703 86.5849 21.1651 89.116 20.108V20.1ZM73.116 19.708C73.0397 19.707 72.9648 19.7278 72.9 19.768C72.8384 19.8036 72.7873 19.855 72.7522 19.9169C72.717 19.9787 72.699 20.0489 72.7 20.12V32.064C72.7021 34.1773 73.5428 36.2034 75.0375 37.6973C76.5322 39.1913 78.5587 40.031 80.672 40.032H81.552C83.6646 40.0299 85.6901 39.1897 87.1839 37.6959C88.6777 36.2021 89.5179 34.1766 89.52 32.064V20.1C89.52 19.9939 89.4779 19.8922 89.4028 19.8172C89.3278 19.7422 89.2261 19.7 89.12 19.7C89.0608 19.7 89.0022 19.7123 88.948 19.736C86.4648 20.7671 83.8217 21.3599 81.136 21.488H80.668C78.121 21.444 75.614 20.8476 73.32 19.74C73.261 19.7082 73.195 19.6917 73.128 19.692L73.116 19.708Z" fill="#231F20"/>
<path d="M81.2399 32.148C80.8775 32.1494 80.5155 32.128 80.1559 32.084C80.0797 32.0748 80.0068 32.048 79.9429 32.0056C79.8791 31.9633 79.8259 31.9066 79.7879 31.84C79.2319 30.908 80.7039 26.944 81.0079 26.16C81.0172 26.1347 81.0315 26.1115 81.0498 26.0918C81.0682 26.072 81.0903 26.0561 81.1148 26.045C81.1394 26.0338 81.1659 26.0276 81.1928 26.0268C81.2198 26.0259 81.2467 26.0304 81.2719 26.04C81.3232 26.0597 81.3647 26.099 81.3872 26.1492C81.4097 26.1995 81.4114 26.2566 81.3919 26.308C80.7239 28.052 79.7919 31.04 80.1439 31.628C80.1493 31.6402 80.1576 31.6509 80.168 31.6593C80.1785 31.6676 80.1908 31.6734 80.2039 31.676C80.9165 31.7523 81.6352 31.7523 82.3479 31.676C82.3963 31.6779 82.4425 31.6971 82.4782 31.73C82.5138 31.7629 82.5366 31.8074 82.5424 31.8556C82.5482 31.9037 82.5366 31.9524 82.5097 31.9928C82.4829 32.0332 82.4425 32.0627 82.3959 32.076C82.0123 32.1226 81.6263 32.1466 81.2399 32.148V32.148Z" fill="#231F20"/>
<path d="M81.6519 37.04C80.5599 36.9938 79.4952 36.6851 78.5479 36.14C78.4992 36.1144 78.4626 36.0706 78.4461 36.0181C78.4296 35.9657 78.4346 35.9088 78.4599 35.86C78.4861 35.812 78.5302 35.7762 78.5827 35.7605C78.6351 35.7448 78.6916 35.7503 78.7399 35.776C80.2799 36.576 81.6079 36.82 82.6799 36.472C83.3173 36.2752 83.8581 35.8472 84.1959 35.272C84.2078 35.2476 84.2244 35.2259 84.2448 35.2081C84.2652 35.1903 84.2889 35.1767 84.3146 35.1681C84.3403 35.1596 84.3674 35.1562 84.3944 35.1582C84.4215 35.1603 84.4478 35.1677 84.4719 35.18C84.521 35.2041 84.5586 35.2466 84.5765 35.2983C84.5945 35.3499 84.5914 35.4066 84.5679 35.456C84.1791 36.129 83.5505 36.6305 82.8079 36.86C82.4347 36.9816 82.0444 37.0423 81.6519 37.04V37.04Z" fill="#231F20"/>
<path d="M84.6148 26.5564C84.8661 26.5398 85.039 26.0599 85.0009 25.4846C84.9629 24.9093 84.7284 24.4563 84.4771 24.4729C84.2258 24.4895 84.0529 24.9694 84.0909 25.5447C84.1289 26.1201 84.3635 26.573 84.6148 26.5564Z" fill="#231F20"/>
<path d="M77.8776 27.0436C78.1289 27.027 78.3018 26.5472 78.2638 25.9718C78.2257 25.3965 77.9912 24.9436 77.7399 24.9602C77.4886 24.9768 77.3157 25.4566 77.3537 26.032C77.3918 26.6073 77.6263 27.0602 77.8776 27.0436Z" fill="#231F20"/>
<path d="M51.384 67.912C38.452 67.912 35.384 55.584 35.336 55.46L35.084 54.4L42.156 52L42.932 54.272L38 55.94C38.964 58.624 42.328 65.54 51.388 65.512L51.384 67.912Z" fill="white"/>
<path d="M51.364 68.112C38.332 68.112 35.172 55.632 35.144 55.508L34.888 54.444C34.8782 54.3954 34.8862 54.3449 34.9104 54.3016C34.9346 54.2584 34.9734 54.2252 35.02 54.208L42.092 51.808C42.1424 51.7913 42.1973 51.7949 42.2451 51.818C42.2929 51.8412 42.3298 51.8821 42.348 51.932L43.12 54.204C43.1308 54.2279 43.1364 54.2538 43.1364 54.28C43.1364 54.3062 43.1308 54.3321 43.12 54.356C43.0959 54.4042 43.0544 54.4413 43.004 54.46L38.26 56.06C39.36 58.992 42.736 65.308 51.372 65.308H51.392C51.4447 65.3091 51.495 65.3305 51.5323 65.3677C51.5695 65.405 51.5909 65.4553 51.592 65.508V67.908C51.591 67.9366 51.5842 67.9646 51.5721 67.9905C51.56 68.0164 51.5428 68.0396 51.5215 68.0586C51.5002 68.0777 51.4752 68.0922 51.4482 68.1014C51.4211 68.1106 51.3925 68.1142 51.364 68.112V68.112ZM35.32 54.512L35.532 55.396C35.56 55.52 38.616 67.58 51.184 67.696V65.696C42.236 65.604 38.848 58.896 37.808 55.992C37.7971 55.9681 37.7915 55.9422 37.7915 55.916C37.7915 55.8898 37.7971 55.8639 37.808 55.84C37.8187 55.8154 37.8347 55.7934 37.8547 55.7754C37.8747 55.7575 37.8983 55.7441 37.924 55.736L42.672 54.136L42.024 52.244L35.32 54.512Z" fill="#231F20"/>
<path d="M67.5999 62.4L66.1359 60.5C73.3119 54.972 71.7599 47.46 70.8839 44.74L65.9279 46.4L65.1519 44.128L72.2239 41.728L72.6759 42.724C72.7279 42.84 77.8239 54.496 67.5999 62.4Z" fill="white"/>
<path d="M67.5999 62.588C67.5693 62.5877 67.5392 62.5807 67.5116 62.5675C67.4839 62.5544 67.4595 62.5355 67.4399 62.512L65.9759 60.608C65.9436 60.5661 65.9293 60.5131 65.936 60.4606C65.9428 60.4081 65.9701 60.3605 66.0119 60.328C72.8679 55.048 71.6759 47.98 70.7559 44.984L65.9999 46.604C65.95 46.6206 65.8956 46.6169 65.8485 46.5937C65.8013 46.5705 65.7652 46.5297 65.7479 46.48L64.9719 44.208C64.9539 44.1576 64.9539 44.1025 64.9719 44.052C64.9961 44.0049 65.0377 43.969 65.0879 43.952L72.1599 41.552C72.2073 41.5366 72.2587 41.5391 72.3044 41.559C72.35 41.5789 72.3869 41.6148 72.4079 41.66L72.8559 42.652C72.9079 42.772 78.0559 54.576 67.6999 62.56C67.6698 62.5786 67.6352 62.5883 67.5999 62.588V62.588ZM66.3999 60.524L67.5999 62.124C77.4999 54.336 72.5279 42.924 72.4759 42.824L72.1039 41.992L65.3919 44.284L66.0359 46.176L70.7999 44.54C70.85 44.5202 70.9058 44.5202 70.9559 44.54C71.003 44.5642 71.0389 44.6058 71.0559 44.656C71.9999 47.6 73.4239 54.984 66.3999 60.524Z" fill="#231F20"/>
<path d="M64.9399 41.832L40.8479 49.832C40.8479 49.832 44.1479 60.208 49.0079 65.852C53.0479 70.54 56.4239 71.78 58.9639 71.884C59.5993 72.6132 60.0688 73.4716 60.3399 74.4C60.9799 76.62 60.6079 79.368 60.6079 79.368L67.2679 77.096C67.2679 77.096 65.0999 75.276 64.4079 73.072C64.1304 72.1408 63.9573 71.1815 63.8919 70.212C66.0159 68.124 68.1279 63.932 68.2919 58.88C68.4999 52.044 64.9399 41.832 64.9399 41.832Z" fill="white"/>
<path d="M60.6079 79.548C60.5607 79.5486 60.515 79.5315 60.4799 79.5C60.4539 79.4783 60.4337 79.4505 60.4211 79.4191C60.4086 79.3877 60.404 79.3536 60.4079 79.32C60.4079 79.292 60.7679 76.588 60.1479 74.436C59.8939 73.5624 59.4577 72.7526 58.8679 72.06C55.5639 71.892 52.1959 69.84 48.8679 65.96C44.0399 60.36 40.6999 49.96 40.6679 49.872C40.6598 49.8473 40.6568 49.8213 40.6588 49.7954C40.6609 49.7695 40.6681 49.7443 40.68 49.7212C40.6919 49.6982 40.7083 49.6777 40.7282 49.661C40.7481 49.6443 40.7711 49.6317 40.7959 49.624L64.8879 41.624C64.9378 41.6074 64.9922 41.6111 65.0393 41.6343C65.0865 41.6575 65.1226 41.6984 65.1399 41.748C65.1759 41.852 68.7119 52.068 68.4999 58.844C68.3319 64.184 66.0479 68.308 64.0999 70.252C64.1652 71.1744 64.3329 72.0867 64.5999 72.972C65.2679 75.092 67.3759 76.884 67.3999 76.9C67.4274 76.9227 67.4484 76.9524 67.4606 76.986C67.4728 77.0195 67.4758 77.0557 67.4692 77.0909C67.4627 77.126 67.4469 77.1587 67.4234 77.1856C67.4 77.2125 67.3698 77.2327 67.3359 77.244L60.6759 79.516L60.6079 79.548ZM41.0999 49.948C41.5759 51.376 44.7399 60.58 49.1599 65.708C52.4559 69.532 55.7559 71.54 58.9719 71.672C58.9996 71.6734 59.0267 71.6805 59.0515 71.6929C59.0762 71.7053 59.0982 71.7227 59.1159 71.744C59.7706 72.4933 60.2539 73.3766 60.5319 74.332C60.9091 75.8794 61.0133 77.4808 60.8399 79.064L66.8799 77.004C66.2719 76.44 64.7839 74.916 64.2199 73.12C63.9327 72.1756 63.7555 71.2011 63.6919 70.216C63.6903 70.1872 63.6948 70.1585 63.7052 70.1316C63.7155 70.1047 63.7314 70.0803 63.7519 70.06C65.6479 68.196 67.9199 64.144 68.0879 58.86C68.2799 52.66 65.2879 43.512 64.8119 42.092L41.0999 49.948Z" fill="#231F20"/>
<path d="M56.0543 80.6676L71.6713 75.3421C71.8467 75.2817 72.0324 75.2566 72.2176 75.2682C72.4028 75.2798 72.5839 75.3279 72.7505 75.4097C72.917 75.4916 73.0657 75.6056 73.1881 75.7451C73.3105 75.8846 73.404 76.0469 73.4634 76.2228L75.5536 82.3522L57.2676 88.5879L55.1774 82.4585C55.1171 82.2834 55.092 82.098 55.1035 81.9131C55.1149 81.7283 55.1628 81.5474 55.2442 81.3811C55.3257 81.2147 55.4392 81.0661 55.5782 80.9436C55.7172 80.8212 55.879 80.7274 56.0543 80.6676Z" fill="white"/>
<path d="M57.2679 88.776C57.2263 88.7757 57.1859 88.7624 57.1522 88.7381C57.1185 88.7137 57.0932 88.6794 57.0799 88.64L54.9879 82.512C54.9195 82.3122 54.8914 82.1008 54.9051 81.89C54.9188 81.6793 54.9742 81.4733 55.0679 81.284C55.2579 80.9056 55.5902 80.6179 55.9919 80.484L71.5919 75.156C71.7917 75.0869 72.0032 75.0581 72.2143 75.0713C72.4253 75.0844 72.6316 75.1393 72.8213 75.2326C73.011 75.326 73.1803 75.456 73.3194 75.6152C73.4585 75.7744 73.5648 75.9595 73.6319 76.16L75.7239 82.288C75.7406 82.3384 75.737 82.3934 75.7139 82.4412C75.6907 82.489 75.6498 82.5259 75.5999 82.544L57.3199 88.78L57.2679 88.776ZM72.1279 75.46C71.9919 75.4585 71.8566 75.4802 71.7279 75.524L56.1279 80.848C55.9778 80.8992 55.8394 80.9797 55.7206 81.0848C55.6019 81.1898 55.5051 81.3173 55.4359 81.46C55.3652 81.6024 55.3235 81.7574 55.3132 81.916C55.3029 82.0746 55.3242 82.2337 55.3759 82.384L57.4039 88.324L75.3039 82.216L73.2799 76.276C73.1988 76.0357 73.0436 75.8273 72.8366 75.6807C72.6296 75.5341 72.3815 75.4568 72.1279 75.46V75.46Z" fill="#231F20"/>
<path d="M76.9465 81.6911L55.7567 88.9171C55.0583 89.1552 54.6852 89.9144 54.9234 90.6128L55.751 93.0396C55.9891 93.7379 56.7483 94.111 57.4467 93.8729L78.6365 86.6469C79.3348 86.4087 79.7079 85.6495 79.4698 84.9512L78.6422 82.5244C78.4041 81.826 77.6449 81.453 76.9465 81.6911Z" fill="white"/>
<path d="M57.024 94.14C56.7031 94.1405 56.39 94.0405 56.1289 93.8539C55.8678 93.6674 55.6716 93.4038 55.568 93.1L54.74 90.676C54.6745 90.4848 54.6475 90.2826 54.6603 90.081C54.6732 89.8793 54.7257 89.6821 54.8149 89.5008C54.9041 89.3195 55.0282 89.1575 55.18 89.0242C55.3319 88.8909 55.5086 88.7889 55.7 88.724V88.724L76.9 81.496C77.2865 81.3644 77.7096 81.3918 78.076 81.572C78.2574 81.6606 78.4195 81.7844 78.5527 81.9361C78.6859 82.0879 78.7876 82.2646 78.852 82.456L79.68 84.88C79.7454 85.0712 79.7725 85.2734 79.7596 85.4751C79.7468 85.6768 79.6942 85.8739 79.6051 86.0552C79.5159 86.2366 79.3918 86.3985 79.2399 86.5318C79.088 86.6651 78.9113 86.7671 78.72 86.832L57.52 94.06C57.3603 94.1142 57.1926 94.1413 57.024 94.14V94.14ZM55.824 89.1C55.538 89.1982 55.3023 89.4051 55.168 89.676C55.1023 89.8101 55.0639 89.9558 55.055 90.1048C55.046 90.2538 55.0668 90.4031 55.116 90.544L55.94 92.972C56.0382 93.2569 56.2453 93.4914 56.5159 93.6241C56.7865 93.7567 57.0986 93.7769 57.384 93.68L78.584 86.452C78.7254 86.4038 78.8559 86.3282 78.968 86.2295C79.0801 86.1308 79.1717 86.011 79.2375 85.8769C79.3032 85.7427 79.3419 85.597 79.3513 85.4479C79.3606 85.2988 79.3405 85.1493 79.292 85.008L78.464 82.584C78.3657 82.2991 78.1587 82.0647 77.8881 81.932C77.6175 81.7993 77.3054 81.7792 77.02 81.876L55.824 89.1Z" fill="#231F20"/>
<path d="M37.5759 73.064C43.0839 73.384 53.3919 76.464 56.4599 76.84C56.4599 76.84 59.1119 72.184 59.6919 71.836C60.2719 71.488 63.7959 70.064 64.4239 70.32C65.0519 70.576 67.0119 72.32 66.7279 72.936C66.4439 73.552 65.7959 73.264 65.5519 72.832C65.3079 72.4 64.6719 71.784 64.4839 71.816C64.2959 71.848 63.2319 73.072 63.2319 73.072C63.9258 73.1428 64.589 73.3938 65.1559 73.8C65.9839 74.444 66.1159 75.432 65.3959 75.94C65.5146 76.0728 65.5958 76.2346 65.6313 76.4091C65.6667 76.5836 65.6552 76.7643 65.5978 76.9328C65.5404 77.1013 65.4392 77.2516 65.3047 77.3681C65.1701 77.4846 65.0069 77.5633 64.8319 77.596C64.1079 77.74 62.8599 77.492 62.2679 77.82C61.9319 78.004 61.6359 78.62 61.4119 78.916C60.7079 79.852 59.9239 81.048 58.8319 81.576C57.4479 82.244 43.2319 88.036 33.2319 87.284" fill="white"/>
<path d="M35.1439 87.56C34.4879 87.56 33.8479 87.536 33.2159 87.488C33.173 87.4725 33.1364 87.4434 33.1117 87.405C33.087 87.3667 33.0756 87.3213 33.0793 87.2758C33.0829 87.2304 33.1014 87.1873 33.1319 87.1534C33.1623 87.1195 33.2031 87.0965 33.2479 87.088C42.9239 87.82 56.9599 82.264 58.7439 81.4C59.6559 80.96 60.3439 80.004 60.9839 79.156C61.0759 79.036 61.1599 78.916 61.2479 78.804C61.3359 78.692 61.3759 78.612 61.4479 78.496C61.6199 78.1631 61.8663 77.8743 62.1679 77.652C62.6776 77.4582 63.226 77.3883 63.7679 77.448C64.1059 77.4659 64.4448 77.4511 64.7799 77.404C64.9285 77.3696 65.0653 77.2968 65.1769 77.1929C65.2885 77.089 65.3709 76.9577 65.4159 76.812C65.4558 76.6884 65.46 76.5561 65.4282 76.4302C65.3964 76.3043 65.3297 76.1899 65.2359 76.1C65.2155 76.0781 65.1996 76.0523 65.1893 76.0241C65.179 75.9959 65.1745 75.966 65.1759 75.936C65.1798 75.9061 65.1896 75.8773 65.2047 75.8512C65.2198 75.8251 65.24 75.8023 65.2639 75.784C65.3819 75.7099 65.48 75.6082 65.5497 75.4876C65.6194 75.367 65.6586 75.2312 65.6639 75.092C65.6508 74.8696 65.587 74.653 65.4775 74.4589C65.368 74.2648 65.2156 74.0983 65.0319 73.972C64.4964 73.5934 63.8723 73.3592 63.2199 73.292C63.1816 73.289 63.1449 73.2755 63.1139 73.2529C63.0828 73.2303 63.0586 73.1995 63.0439 73.164C63.0288 73.1283 63.0241 73.089 63.0305 73.0508C63.0369 73.0125 63.054 72.9769 63.0799 72.948C64.1959 71.664 64.3839 71.636 64.4559 71.624C64.8199 71.564 65.5239 72.372 65.7319 72.74C65.7846 72.8385 65.8606 72.9225 65.9534 72.9845C66.0462 73.0466 66.1529 73.0849 66.2639 73.096C66.3079 73.096 66.4399 73.096 66.5439 72.864C66.5615 72.7867 66.5502 72.7055 66.5119 72.636C66.2319 71.924 64.8359 70.72 64.3519 70.524C63.8679 70.328 60.4799 71.6 59.7999 72C59.3999 72.232 57.6519 75.144 56.6399 76.928C56.6201 76.9634 56.59 76.9919 56.5535 77.0098C56.5171 77.0277 56.4761 77.034 56.4359 77.028C55.2759 76.888 53.0839 76.36 50.5519 75.752C46.2919 74.728 40.9919 73.452 37.5639 73.252C37.5368 73.251 37.5101 73.2446 37.4855 73.2331C37.4609 73.2217 37.4388 73.2054 37.4205 73.1853C37.4022 73.1651 37.3882 73.1416 37.3792 73.1159C37.3701 73.0903 37.3663 73.0631 37.3679 73.036C37.3689 73.0085 37.3755 72.9815 37.3872 72.9566C37.3989 72.9317 37.4156 72.9094 37.4361 72.8911C37.4567 72.8728 37.4807 72.8588 37.5068 72.85C37.5329 72.8413 37.5605 72.8379 37.5879 72.84C41.0519 73.044 46.3879 74.324 50.6479 75.352C53.0719 75.932 55.1799 76.44 56.3479 76.6C56.9239 75.6 59.0159 71.988 59.5879 71.644C60.1599 71.3 63.7439 69.804 64.5039 70.112C65.0479 70.336 66.5599 71.616 66.9039 72.456C66.945 72.5417 66.9682 72.6347 66.9724 72.7296C66.9765 72.8244 66.9614 72.9192 66.9279 73.008C66.878 73.1392 66.7915 73.2532 66.6788 73.3369C66.5662 73.4205 66.4319 73.4702 66.2919 73.48C66.1042 73.4749 65.9212 73.42 65.7616 73.3209C65.6021 73.2218 65.4718 73.082 65.3839 72.916C65.1643 72.5585 64.8712 72.2517 64.5239 72.016C64.2123 72.2934 63.9196 72.5914 63.6479 72.908C64.2446 73.0158 64.8085 73.2594 65.2959 73.62C65.5339 73.7832 65.7303 74 65.8692 74.2528C66.0081 74.5057 66.0858 74.7877 66.0959 75.076C66.0911 75.2413 66.0531 75.404 65.9844 75.5544C65.9158 75.7049 65.8177 75.8401 65.6959 75.952C65.7897 76.0891 65.8507 76.2458 65.8743 76.4102C65.8979 76.5746 65.8834 76.7422 65.8319 76.9C65.7674 77.1183 65.6454 77.3152 65.4786 77.47C65.3118 77.6248 65.1064 77.7319 64.8839 77.78C64.5199 77.8335 64.1514 77.8509 63.7839 77.832C63.3105 77.7812 62.8316 77.833 62.3799 77.984C62.1448 78.1777 61.9515 78.4172 61.8119 78.688C61.7319 78.816 61.6559 78.932 61.5879 79.024L61.3279 79.372C60.6759 80.256 59.9399 81.26 58.9279 81.744C58.7999 81.824 45.6359 87.56 35.1439 87.56Z" fill="#231F20"/>
<path d="M96.372 62.844H91.736C90.9274 62.844 90.272 63.4995 90.272 64.308C90.272 65.1166 90.9274 65.772 91.736 65.772H96.372C97.1805 65.772 97.836 65.1166 97.836 64.308C97.836 63.4995 97.1805 62.844 96.372 62.844Z" fill="white"/>
<path d="M96.372 66H91.736C91.3072 65.979 90.9029 65.7939 90.6069 65.483C90.3109 65.1721 90.1458 64.7593 90.1458 64.33C90.1458 63.9007 90.3109 63.4879 90.6069 63.177C90.9029 62.8661 91.3072 62.681 91.736 62.66H96.372C96.5982 62.6489 96.8242 62.6839 97.0365 62.7628C97.2488 62.8418 97.4428 62.963 97.6068 63.1192C97.7708 63.2753 97.9013 63.4632 97.9905 63.6713C98.0797 63.8794 98.1257 64.1035 98.1257 64.33C98.1257 64.5564 98.0797 64.7805 97.9905 64.9887C97.9013 65.1968 97.7708 65.3847 97.6068 65.5408C97.4428 65.697 97.2488 65.8182 97.0365 65.8971C96.8242 65.9761 96.5982 66.0111 96.372 66V66ZM91.736 63.072C91.4146 63.0901 91.1124 63.2306 90.8913 63.4645C90.6702 63.6984 90.547 64.0081 90.547 64.33C90.547 64.6519 90.6702 64.9616 90.8913 65.1955C91.1124 65.4294 91.4146 65.5699 91.736 65.588H96.372C96.5432 65.5976 96.7145 65.5723 96.8755 65.5134C97.0365 65.4546 97.1839 65.3635 97.3085 65.2457C97.4331 65.1279 97.5323 64.986 97.6001 64.8285C97.668 64.6711 97.703 64.5014 97.703 64.33C97.703 64.1585 97.668 63.9889 97.6001 63.8315C97.5323 63.674 97.4331 63.5321 97.3085 63.4143C97.1839 63.2965 97.0365 63.2054 96.8755 63.1466C96.7145 63.0877 96.5432 63.0623 96.372 63.072H91.736Z" fill="#231F20"/>
<path d="M95.3039 65.772H92.7999V68.276H95.3039V65.772Z" fill="white"/>
<path d="M95.3079 68.484H92.7999C92.7458 68.484 92.694 68.4625 92.6557 68.4242C92.6174 68.386 92.5959 68.3341 92.5959 68.28V65.772C92.5959 65.7179 92.6174 65.666 92.6557 65.6277C92.694 65.5895 92.7458 65.568 92.7999 65.568H95.3079C95.3624 65.568 95.4147 65.5893 95.4536 65.6275C95.4925 65.6656 95.5149 65.7175 95.5159 65.772V68.28C95.5149 68.3344 95.4925 68.3863 95.4536 68.4245C95.4147 68.4626 95.3624 68.484 95.3079 68.484V68.484ZM93.0079 68.084H95.0999V66H93.0079V68.084Z" fill="#231F20"/>
<path d="M94.0559 85.244C99.0308 85.244 103.064 81.211 103.064 76.236C103.064 71.261 99.0308 67.228 94.0559 67.228C89.0809 67.228 85.0479 71.261 85.0479 76.236C85.0479 81.211 89.0809 85.244 94.0559 85.244Z" fill="white"/>
<path d="M94.056 85.448C92.2364 85.448 90.4576 84.9084 88.9447 83.8975C87.4318 82.8866 86.2526 81.4498 85.5563 79.7687C84.8599 78.0876 84.6778 76.2378 85.0327 74.4531C85.3877 72.6685 86.2639 71.0292 87.5506 69.7426C88.8372 68.456 90.4765 67.5797 92.2611 67.2248C94.0457 66.8698 95.8956 67.052 97.5766 67.7483C99.2577 68.4446 100.695 69.6238 101.705 71.1367C102.716 72.6497 103.256 74.4284 103.256 76.248C103.25 78.686 102.278 81.0224 100.554 82.7464C98.8304 84.4703 96.494 85.4416 94.056 85.448V85.448ZM94.056 67.448C92.3155 67.448 90.6141 67.9641 89.1669 68.931C87.7198 69.898 86.5919 71.2724 85.9258 72.8804C85.2598 74.4884 85.0855 76.2577 85.4251 77.9648C85.7646 79.6718 86.6027 81.2398 87.8334 82.4705C89.0641 83.7012 90.6321 84.5393 92.3392 84.8789C94.0462 85.2184 95.8156 85.0442 97.4236 84.3781C99.0316 83.7121 100.406 82.5842 101.373 81.137C102.34 79.6898 102.856 77.9885 102.856 76.248C102.858 75.091 102.632 73.945 102.191 72.8755C101.749 71.8059 101.102 70.8339 100.284 70.0151C99.4668 69.1962 98.496 68.5466 97.4273 68.1034C96.3586 67.6601 95.2129 67.432 94.056 67.432V67.448Z" fill="#231F20"/>
<path d="M94.0559 82.608C92.7955 82.6088 91.5632 82.2358 90.5148 81.5361C89.4664 80.8364 88.649 79.8415 88.1661 78.6773C87.6832 77.513 87.5565 76.2317 87.8019 74.9954C88.0473 73.759 88.6539 72.6233 89.5448 71.7317C90.4358 70.8402 91.5712 70.2329 92.8073 69.9867C94.0435 69.7406 95.3249 69.8665 96.4895 70.3487C97.654 70.8308 98.6494 71.6476 99.3498 72.6955C100.05 73.7435 100.424 74.9756 100.424 76.236C100.422 77.9246 99.7504 79.5436 98.5567 80.738C97.363 81.9324 95.7446 82.6049 94.0559 82.608V82.608ZM94.0559 70.264C92.8746 70.2632 91.7196 70.6128 90.737 71.2685C89.7544 71.9243 88.9883 72.8567 88.5357 73.9479C88.0831 75.039 87.9642 76.2399 88.1942 77.3987C88.4242 78.5574 88.9926 79.6219 89.8277 80.4575C90.6627 81.2931 91.7268 81.8622 92.8854 82.093C94.0439 82.3237 95.2449 82.2057 96.3364 81.7538C97.4279 81.3019 98.3608 80.5365 99.0172 79.5543C99.6736 78.5721 100.024 77.4173 100.024 76.236C100.017 74.6551 99.3856 73.141 98.2681 72.0227C97.1506 70.9044 95.6368 70.2724 94.0559 70.264V70.264Z" fill="#D1D3D4"/>
<path d="M95.96 64.084C95.96 64.084 99.6 53.66 98.972 52.06C98.344 50.46 97.436 48.3 96.64 47.188C95.3803 45.4439 93.877 43.8894 92.176 42.572L88.176 42.172C88.176 42.172 92.932 46.696 94.716 48.328C96.5 49.96 95.96 50.728 95.916 53.08C95.872 55.432 93.444 61.392 92.88 64.096L95.96 64.084Z" fill="#231F20"/>
<path d="M95.96 64.284H92.896C92.8667 64.2835 92.8378 64.2764 92.8115 64.2635C92.7852 64.2505 92.7621 64.2319 92.7438 64.209C92.7254 64.1861 92.7124 64.1595 92.7055 64.131C92.6986 64.1024 92.6981 64.0728 92.704 64.044C92.928 62.952 93.452 61.356 94.004 59.668C94.804 57.22 95.708 54.444 95.732 53.064C95.732 52.58 95.768 52.164 95.796 51.796C95.896 50.3561 95.944 49.7 94.596 48.464C92.832 46.8641 88.104 42.3481 88.056 42.3041C88.0253 42.2757 88.0045 42.2383 87.9966 42.1973C87.9887 42.1563 87.9941 42.1138 88.012 42.0761C88.0292 42.0384 88.0577 42.007 88.0935 41.9862C88.1294 41.9654 88.1707 41.9563 88.212 41.9601L92.212 42.3601C92.247 42.3618 92.2805 42.3743 92.308 42.396C94.0184 43.735 95.5308 45.3093 96.8 47.072C97.432 47.952 98.2 49.56 99.156 51.988C99.792 53.608 96.52 63.076 96.144 64.148C96.1304 64.1865 96.1056 64.22 96.0728 64.2443C96.04 64.2685 96.0007 64.2824 95.96 64.284ZM93.16 63.884H95.832C96.868 60.904 99.288 53.368 98.804 52.132C97.864 49.732 97.108 48.16 96.496 47.304C95.2544 45.5942 93.7802 44.0661 92.116 42.7641L88.764 42.4161C89.964 43.5641 93.428 46.84 94.876 48.168C96.324 49.496 96.308 50.396 96.208 51.824C96.184 52.188 96.152 52.6 96.144 53.072C96.12 54.512 95.244 57.196 94.396 59.788C93.872 61.348 93.388 62.828 93.144 63.884H93.16Z" fill="#231F20"/>
<path d="M121.5 69.096C116.784 66.228 103.872 60.504 101.132 59.072C101.132 59.072 101.6 53.736 101.316 53.12C100.812 52.008 99.7479 50.06 98.5159 49.652C97.2119 49.216 94.8919 49.908 93.6759 50.34C92.6479 50.704 91.5999 51.308 91.2199 52.34C91.0324 52.9743 90.986 53.6419 91.0839 54.296C91.0817 54.463 91.1245 54.6274 91.2079 54.772C91.3839 55.012 91.7319 55.02 92.0279 55.02C94.3119 55.02 95.7719 55.664 95.8639 57.98C95.9119 59.152 95.8639 60.58 96.4719 61.636C97.2319 62.972 107.424 76.944 114.956 81.304C118.652 83.44 122.156 84.184 124.192 83.304" fill="white"/>
<path d="M122.216 83.848C120.172 83.848 117.552 83.02 114.868 81.448C107.42 77.136 97.1879 63.252 96.3079 61.7C95.7599 60.728 95.7199 59.484 95.6879 58.388V57.952C95.6119 56.008 94.5599 55.208 92.0599 55.192C91.8814 55.2163 91.6997 55.199 91.529 55.1414C91.3583 55.0838 91.2032 54.9875 91.0759 54.86C90.9662 54.685 90.908 54.4826 90.9079 54.276C90.8084 53.592 90.8589 52.8945 91.0559 52.232C91.3999 51.32 92.2559 50.632 93.6359 50.128C94.9119 49.672 97.2359 48.984 98.6119 49.44C99.9879 49.896 101.1 52.088 101.52 53.012C101.8 53.62 101.464 57.784 101.368 58.932C102.296 59.412 104.168 60.28 106.48 61.364C111.52 63.724 118.424 66.964 121.624 68.896C121.671 68.9246 121.705 68.9709 121.718 69.0245C121.731 69.0781 121.723 69.1348 121.694 69.182C121.665 69.2292 121.619 69.2631 121.565 69.2762C121.512 69.2894 121.455 69.2806 121.408 69.252C118.232 67.32 111.336 64.096 106.304 61.74C103.868 60.6 101.944 59.7 101.052 59.236C101.016 59.2161 100.987 59.1862 100.968 59.15C100.949 59.1138 100.94 59.0728 100.944 59.032C101.12 56.992 101.344 53.596 101.144 53.184C100.836 52.504 99.7239 50.244 98.4799 49.828C97.2359 49.412 94.7599 50.164 93.7759 50.516C92.5279 50.96 91.7439 51.584 91.4439 52.376C91.2713 52.9829 91.229 53.6196 91.3199 54.244C91.3188 54.3733 91.349 54.5009 91.4079 54.616C91.5159 54.764 91.7679 54.776 92.0599 54.78C93.9959 54.78 95.9919 55.18 96.0999 57.936V58.372C96.1319 59.424 96.1679 60.616 96.6679 61.496C97.5439 63.04 107.692 76.816 115.068 81.096C118.668 83.184 122.144 83.944 124.12 83.096C124.145 83.0847 124.171 83.0784 124.198 83.0776C124.225 83.0767 124.252 83.0812 124.278 83.0909C124.303 83.1006 124.326 83.1152 124.346 83.134C124.365 83.1527 124.381 83.1751 124.392 83.2C124.413 83.2504 124.414 83.3073 124.394 83.3582C124.374 83.4091 124.334 83.45 124.284 83.472C123.627 83.7368 122.924 83.8647 122.216 83.848Z" fill="#231F20"/>
<path d="M55.4359 61.44H55.3759C55.3409 61.4282 55.3097 61.407 55.2857 61.3789C55.2618 61.3507 55.2459 61.3165 55.2399 61.28L54.6639 57.6L51.2959 56C51.2625 55.9832 51.2344 55.9575 51.2147 55.9257C51.1949 55.894 51.1843 55.8574 51.1839 55.82C51.183 55.7829 51.1926 55.7462 51.2118 55.7143C51.2309 55.6825 51.2587 55.6567 51.2919 55.64L54.6239 53.952L55.1199 50.252C55.1253 50.2148 55.1408 50.1798 55.1648 50.1509C55.1888 50.1219 55.2203 50.1002 55.2559 50.088C55.2911 50.0768 55.3286 50.0754 55.3645 50.0838C55.4005 50.0923 55.4334 50.1103 55.4599 50.136L58.0959 52.784L61.7679 52.112C61.8044 52.1048 61.8422 52.1081 61.877 52.1215C61.9117 52.135 61.9418 52.158 61.9639 52.188C61.9833 52.22 61.9936 52.2566 61.9936 52.294C61.9936 52.3314 61.9833 52.3681 61.9639 52.4L60.2639 55.724L62.0359 59.008C62.0553 59.04 62.0656 59.0766 62.0656 59.114C62.0656 59.1514 62.0553 59.1881 62.0359 59.22C62.0134 59.2497 61.9833 59.2727 61.9488 59.2868C61.9144 59.3009 61.8767 59.3055 61.8399 59.3L58.1559 58.708L55.5999 61.376C55.5796 61.399 55.5542 61.4168 55.5257 61.4279C55.4971 61.4391 55.4664 61.4432 55.4359 61.44V61.44ZM51.8359 55.78L54.9319 57.268C54.9606 57.282 54.9854 57.3028 55.0043 57.3286C55.0231 57.3544 55.0353 57.3844 55.0399 57.416L55.5719 60.808L57.9399 58.324C57.962 58.3002 57.9896 58.2823 58.0203 58.2718C58.0511 58.2613 58.0839 58.2587 58.1159 58.264L61.5079 58.808L59.8759 55.788C59.8601 55.7592 59.8519 55.7269 59.8519 55.694C59.8519 55.6612 59.8601 55.6288 59.8759 55.6L61.4399 52.544L58.0639 53.164C58.0316 53.1689 57.9986 53.1664 57.9675 53.1567C57.9363 53.147 57.9077 53.1304 57.8839 53.108L55.4639 50.676L55.0039 54.076C55.0007 54.1086 54.989 54.1397 54.9701 54.1664C54.9511 54.193 54.9256 54.2143 54.8959 54.228L51.8359 55.78Z" fill="#D1D3D4"/>
<path d="M93.3399 75.104L92.0239 76L90.7839 74.076L93.5599 72.304H95.9999V80.144H93.3439L93.3399 75.104Z" fill="#D1D3D4"/>
<path d="M100.536 104.176H62.1L64.844 95.92H97.792L100.536 104.176Z" fill="#231F20"/>
<path d="M100.536 104.376H62.1C62.069 104.376 62.0385 104.368 62.0108 104.355C61.983 104.341 61.9588 104.321 61.94 104.296C61.9211 104.271 61.9087 104.241 61.9038 104.209C61.8989 104.178 61.9017 104.146 61.912 104.116L64.652 95.856C64.666 95.8163 64.692 95.7819 64.7264 95.7576C64.7608 95.7332 64.8019 95.7201 64.844 95.72H97.792C97.8341 95.7201 97.8752 95.7332 97.9096 95.7576C97.944 95.7819 97.97 95.8163 97.984 95.856L100.724 104.116C100.734 104.146 100.737 104.178 100.732 104.209C100.727 104.241 100.715 104.271 100.696 104.296C100.677 104.321 100.653 104.341 100.625 104.355C100.598 104.368 100.567 104.376 100.536 104.376V104.376ZM62.376 103.976H100.26L97.648 96.112H64.988L62.376 103.976Z" fill="#231F20"/>
<path d="M65.6719 103.1C65.6534 103.104 65.6344 103.104 65.6159 103.1C65.5651 103.086 65.522 103.052 65.4958 103.007C65.4696 102.961 65.4624 102.907 65.4759 102.856L67.0079 97.3C67.0222 97.247 67.057 97.2018 67.1047 97.1744C67.1523 97.147 67.2089 97.1397 67.2619 97.154C67.315 97.1683 67.3601 97.2031 67.3875 97.2508C67.4149 97.2984 67.4222 97.355 67.4079 97.408L65.8799 102.964C65.8663 103.007 65.8381 103.044 65.8002 103.069C65.7623 103.094 65.717 103.105 65.6719 103.1Z" fill="white"/>
<path d="M107.464 32.12C107.423 32.1256 107.381 32.1256 107.34 32.12C107.228 32.0963 107.127 32.038 107.05 31.9532C106.973 31.8685 106.925 31.7617 106.912 31.648L106.8 30.628C106.797 30.6051 106.789 30.5831 106.777 30.5637C106.764 30.5443 106.748 30.528 106.728 30.516L105.868 30C105.771 29.9394 105.696 29.8502 105.652 29.7447C105.608 29.6393 105.597 29.5228 105.622 29.4113C105.647 29.2998 105.706 29.1989 105.791 29.1223C105.876 29.0458 105.983 28.9975 106.096 28.984L107.1 28.864C107.12 28.8608 107.14 28.8535 107.157 28.8425C107.174 28.8315 107.189 28.817 107.2 28.8L107.732 27.944C107.793 27.8472 107.882 27.7716 107.987 27.7276C108.093 27.6836 108.209 27.6734 108.321 27.6984C108.432 27.7234 108.533 27.7824 108.61 27.8672C108.686 27.9521 108.735 28.0586 108.748 28.172V28.172L108.868 29.172C108.869 29.1948 108.876 29.217 108.888 29.2365C108.9 29.256 108.916 29.2723 108.936 29.284L109.792 29.82C109.89 29.879 109.968 29.9677 110.012 30.0735C110.057 30.1792 110.067 30.2964 110.04 30.408C110.01 30.5118 109.95 30.6045 109.867 30.6742C109.785 30.744 109.683 30.7877 109.576 30.8L108.576 30.916C108.553 30.9181 108.531 30.9258 108.511 30.9383C108.492 30.9508 108.476 30.9679 108.464 30.988L107.928 31.844C107.882 31.9267 107.814 31.9957 107.733 32.0442C107.652 32.0926 107.559 32.1188 107.464 32.12ZM108.212 28.064C108.186 28.0634 108.161 28.0698 108.138 28.0825C108.116 28.0951 108.097 28.1136 108.084 28.136L107.552 28.992C107.508 29.0614 107.45 29.1203 107.381 29.1645C107.311 29.2088 107.233 29.2373 107.152 29.248L106.148 29.364C106.117 29.3675 106.087 29.3806 106.063 29.4016C106.04 29.4226 106.023 29.4505 106.016 29.4813C106.009 29.5121 106.012 29.5443 106.024 29.5734C106.036 29.6026 106.057 29.6273 106.084 29.644L106.94 30.176C107.01 30.2192 107.069 30.2776 107.114 30.3469C107.158 30.4161 107.186 30.4944 107.196 30.576L107.316 31.576C107.319 31.6075 107.331 31.6374 107.352 31.6611C107.373 31.6849 107.401 31.7013 107.432 31.708C107.463 31.7147 107.495 31.7118 107.525 31.6996C107.554 31.6875 107.579 31.6667 107.596 31.64L108.124 30.8C108.167 30.7299 108.225 30.6704 108.295 30.6261C108.364 30.5817 108.442 30.5537 108.524 30.544L109.528 30.428C109.559 30.4228 109.587 30.4084 109.61 30.3868C109.633 30.3651 109.648 30.3371 109.655 30.3065C109.661 30.2758 109.658 30.2439 109.646 30.215C109.634 30.186 109.614 30.1613 109.588 30.144L108.736 29.6C108.666 29.5564 108.607 29.4979 108.563 29.4287C108.519 29.3596 108.491 29.2815 108.48 29.2L108.364 28.196C108.361 28.1652 108.347 28.1363 108.327 28.1133C108.306 28.0904 108.278 28.0745 108.248 28.068L108.212 28.064Z" fill="#D1D3D4"/>
<path d="M130 43.116C129.88 43.1163 129.762 43.0817 129.661 43.0164C129.56 42.951 129.481 42.8578 129.432 42.748L128.92 41.624C128.906 41.5928 128.885 41.5653 128.859 41.5438C128.832 41.5222 128.801 41.5072 128.768 41.5L127.568 41.2C127.441 41.1682 127.327 41.0976 127.241 40.9979C127.156 40.8983 127.104 40.7746 127.092 40.644C127.08 40.514 127.109 40.3835 127.175 40.2708C127.241 40.1581 127.341 40.069 127.46 40.016L128.58 39.504C128.611 39.4897 128.639 39.4687 128.661 39.4424C128.683 39.4161 128.699 39.3852 128.708 39.352L129.004 38.152C129.036 38.0248 129.106 37.9106 129.206 37.8253C129.306 37.74 129.429 37.6879 129.56 37.676C129.69 37.6639 129.82 37.6929 129.933 37.759C130.046 37.825 130.135 37.9247 130.188 38.044V38.044L130.7 39.164C130.715 39.1951 130.737 39.2225 130.764 39.2446C130.791 39.2666 130.822 39.2828 130.856 39.292L132.056 39.592C132.184 39.6214 132.299 39.6908 132.384 39.7901C132.47 39.8893 132.522 40.0133 132.532 40.144C132.544 40.2745 132.515 40.4054 132.449 40.5186C132.383 40.6319 132.283 40.7218 132.164 40.776L131.044 41.284C131.013 41.2992 130.986 41.321 130.964 41.348C130.943 41.375 130.928 41.4064 130.92 41.44L130.62 42.64C130.589 42.7678 130.519 42.8826 130.419 42.9681C130.319 43.0536 130.195 43.1053 130.064 43.116H130ZM129.6 38.08C129.553 38.0838 129.508 38.1025 129.472 38.1335C129.436 38.1644 129.411 38.2059 129.4 38.252L129.1 39.452C129.074 39.5398 129.03 39.621 128.97 39.69C128.91 39.759 128.835 39.8143 128.752 39.852L127.62 40.4C127.576 40.4187 127.54 40.451 127.516 40.4921C127.492 40.5332 127.482 40.5809 127.488 40.628C127.492 40.6758 127.51 40.7212 127.541 40.7578C127.572 40.7944 127.613 40.8204 127.66 40.832L128.86 41.132C128.952 41.1536 129.038 41.1963 129.111 41.2566C129.184 41.317 129.242 41.3935 129.28 41.48L129.792 42.6C129.81 42.6441 129.842 42.6809 129.883 42.7048C129.925 42.7287 129.973 42.7382 130.02 42.732C130.068 42.7297 130.114 42.7115 130.151 42.6805C130.188 42.6494 130.213 42.6071 130.224 42.56L130.524 41.36C130.549 41.2718 130.593 41.1901 130.653 41.1209C130.713 41.0518 130.788 40.9968 130.872 40.96L132 40.4C132.044 40.3806 132.08 40.3476 132.104 40.3058C132.128 40.264 132.138 40.2157 132.132 40.168C132.129 40.1206 132.11 40.0754 132.079 40.0394C132.048 40.0033 132.006 39.9783 131.96 39.968L130.76 39.668C130.668 39.6444 130.583 39.6005 130.51 39.5396C130.437 39.4787 130.379 39.4023 130.34 39.316L129.828 38.196C129.807 38.1553 129.773 38.1223 129.733 38.1015C129.692 38.0807 129.645 38.0732 129.6 38.08Z" fill="#D1D3D4"/>
<path d="M48.048 30.132C47.9207 30.1318 47.7964 30.0936 47.691 30.0223C47.5855 29.9511 47.5037 29.85 47.456 29.732L46.916 28.556C46.9014 28.5209 46.8784 28.4898 46.8492 28.4654C46.8199 28.441 46.7852 28.4241 46.748 28.416L45.492 28.1C45.3614 28.0668 45.2443 27.9939 45.1569 27.8914C45.0694 27.7889 45.0158 27.6618 45.0036 27.5276C44.9913 27.3934 45.0209 27.2587 45.0883 27.142C45.1557 27.0254 45.2576 26.9324 45.38 26.876L46.58 26.336C46.6143 26.3201 46.6446 26.2968 46.6688 26.2677C46.693 26.2387 46.7105 26.2046 46.72 26.168L47.032 24.912C47.0672 24.7844 47.1403 24.6705 47.2418 24.5855C47.3432 24.5005 47.4682 24.4483 47.6 24.436C47.7348 24.4227 47.8704 24.4523 47.9875 24.5205C48.1045 24.5888 48.1971 24.6922 48.252 24.816V24.816L48.776 26C48.7912 26.0348 48.8143 26.0656 48.8434 26.0899C48.8726 26.1142 48.907 26.1314 48.944 26.14L50.2 26.456C50.3323 26.4864 50.4514 26.5583 50.54 26.6612C50.6285 26.7641 50.6818 26.8927 50.692 27.028C50.7065 27.1631 50.6779 27.2992 50.6104 27.417C50.5429 27.5348 50.4398 27.6283 50.316 27.684L49.116 28.22C49.0817 28.236 49.0514 28.2593 49.0271 28.2883C49.0029 28.3174 48.9855 28.3514 48.976 28.388L48.664 29.644C48.6312 29.7758 48.558 29.8941 48.4548 29.9823C48.3515 30.0705 48.2233 30.1242 48.088 30.136L48.048 30.132ZM47.648 24.832H47.624C47.5714 24.835 47.5211 24.8549 47.4807 24.8888C47.4403 24.9226 47.412 24.9687 47.4 25.02L47.088 26.276C47.0647 26.3717 47.0198 26.4607 46.9567 26.5363C46.8936 26.6119 46.814 26.672 46.724 26.712L45.548 27.252C45.501 27.2737 45.4619 27.3094 45.4359 27.3541C45.4099 27.3988 45.3983 27.4505 45.4027 27.502C45.407 27.5536 45.4272 27.6026 45.4603 27.6423C45.4935 27.682 45.538 27.7105 45.588 27.724L46.848 28.04C46.9427 28.0632 47.0308 28.1077 47.1056 28.17C47.1805 28.2324 47.2401 28.3111 47.28 28.4L47.82 29.6C47.8405 29.6483 47.8763 29.6884 47.9218 29.7144C47.9673 29.7404 48.02 29.7508 48.072 29.744C48.1243 29.7416 48.1744 29.7217 48.2142 29.6877C48.254 29.6537 48.2814 29.6073 48.292 29.556L48.608 28.3C48.6311 28.2049 48.6756 28.1162 48.7379 28.0407C48.8003 27.9652 48.8789 27.9048 48.968 27.864L50.168 27.328C50.2165 27.3064 50.2569 27.27 50.2835 27.224C50.3101 27.178 50.3214 27.1249 50.316 27.072C50.312 27.0196 50.2911 26.9698 50.2565 26.9301C50.2219 26.8905 50.1754 26.8631 50.124 26.852L48.868 26.536C48.7731 26.5123 48.6847 26.4677 48.6092 26.4054C48.5338 26.3431 48.4732 26.2648 48.432 26.176L47.896 24.976C47.8751 24.9289 47.8399 24.8896 47.7954 24.8638C47.7508 24.8379 47.6992 24.8268 47.648 24.832V24.832Z" fill="#D1D3D4"/>
<path d="M58.5999 33.572C58.5469 33.572 58.496 33.5509 58.4585 33.5134C58.421 33.4759 58.3999 33.425 58.3999 33.372V32.096C58.3999 32.043 58.421 31.9921 58.4585 31.9546C58.496 31.9171 58.5469 31.896 58.5999 31.896C58.6529 31.896 58.7038 31.9171 58.7413 31.9546C58.7788 31.9921 58.7999 32.043 58.7999 32.096V33.372C58.7999 33.3983 58.7947 33.4243 58.7847 33.4485C58.7746 33.4728 58.7599 33.4948 58.7413 33.5134C58.7228 33.532 58.7007 33.5467 58.6764 33.5568C58.6522 33.5668 58.6262 33.572 58.5999 33.572Z" fill="#D1D3D4"/>
<path d="M58.5999 36.24C58.5469 36.24 58.496 36.219 58.4585 36.1814C58.421 36.1439 58.3999 36.0931 58.3999 36.04V34.764C58.3999 34.711 58.421 34.6601 58.4585 34.6226C58.496 34.5851 58.5469 34.564 58.5999 34.564C58.6529 34.564 58.7038 34.5851 58.7413 34.6226C58.7788 34.6601 58.7999 34.711 58.7999 34.764V36.04C58.7999 36.0931 58.7788 36.1439 58.7413 36.1814C58.7038 36.219 58.6529 36.24 58.5999 36.24Z" fill="#D1D3D4"/>
<path d="M60.5719 34.268H59.2959C59.2429 34.268 59.192 34.247 59.1545 34.2095C59.117 34.172 59.0959 34.1211 59.0959 34.068C59.0959 34.015 59.117 33.9641 59.1545 33.9266C59.192 33.8891 59.2429 33.868 59.2959 33.868H60.5719C60.625 33.868 60.6759 33.8891 60.7134 33.9266C60.7509 33.9641 60.7719 34.015 60.7719 34.068C60.7719 34.1211 60.7509 34.172 60.7134 34.2095C60.6759 34.247 60.625 34.268 60.5719 34.268Z" fill="#D1D3D4"/>
<path d="M57.9078 34.268H56.6279C56.5748 34.268 56.5239 34.247 56.4864 34.2095C56.4489 34.172 56.4279 34.1211 56.4279 34.068C56.4279 34.015 56.4489 33.9641 56.4864 33.9266C56.5239 33.8891 56.5748 33.868 56.6279 33.868H57.9078C57.9609 33.868 58.0118 33.8891 58.0493 33.9266C58.0868 33.9641 58.1078 34.015 58.1078 34.068C58.1078 34.1211 58.0868 34.172 58.0493 34.2095C58.0118 34.247 57.9609 34.268 57.9078 34.268Z" fill="#D1D3D4"/>
<path d="M40.848 41.2361C40.7949 41.2361 40.744 41.215 40.7065 41.1775C40.669 41.14 40.6479 41.0891 40.6479 41.0361V39.7601C40.6479 39.707 40.669 39.6561 40.7065 39.6186C40.744 39.5811 40.7949 39.5601 40.848 39.5601C40.901 39.5601 40.9519 39.5811 40.9894 39.6186C41.0269 39.6561 41.048 39.707 41.048 39.7601V41.0361C41.0469 41.0888 41.0255 41.1391 40.9882 41.1763C40.951 41.2136 40.9007 41.235 40.848 41.2361Z" fill="#D1D3D4"/>
<path d="M40.848 43.9001C40.7949 43.9001 40.744 43.879 40.7065 43.8415C40.669 43.804 40.6479 43.7531 40.6479 43.7001V42.4241C40.6479 42.371 40.669 42.3201 40.7065 42.2826C40.744 42.2451 40.7949 42.2241 40.848 42.2241C40.901 42.2241 40.9519 42.2451 40.9894 42.2826C41.0269 42.3201 41.048 42.371 41.048 42.4241V43.7001C41.048 43.7531 41.0269 43.804 40.9894 43.8415C40.9519 43.879 40.901 43.9001 40.848 43.9001Z" fill="#D1D3D4"/>
<path d="M42.7999 41.928H41.5239C41.4708 41.928 41.4199 41.9069 41.3824 41.8694C41.3449 41.8319 41.3239 41.7811 41.3239 41.728C41.3249 41.6753 41.3463 41.625 41.3836 41.5877C41.4209 41.5504 41.4711 41.529 41.5239 41.528H42.7999C42.8529 41.528 42.9038 41.5491 42.9413 41.5866C42.9788 41.6241 42.9999 41.675 42.9999 41.728C42.9999 41.7811 42.9788 41.8319 42.9413 41.8694C42.9038 41.9069 42.8529 41.928 42.7999 41.928Z" fill="#D1D3D4"/>
<path d="M40.152 41.928H38.876C38.823 41.928 38.7721 41.9069 38.7346 41.8694C38.6971 41.8319 38.676 41.7811 38.676 41.728C38.676 41.675 38.6971 41.6241 38.7346 41.5866C38.7721 41.5491 38.823 41.528 38.876 41.528H40.152C40.2051 41.528 40.2559 41.5491 40.2934 41.5866C40.331 41.6241 40.352 41.675 40.352 41.728C40.352 41.7811 40.331 41.8319 40.2934 41.8694C40.2559 41.9069 40.2051 41.928 40.152 41.928Z" fill="#D1D3D4"/>
<path d="M116.128 39.9041C116.075 39.9041 116.024 39.883 115.987 39.8455C115.949 39.808 115.928 39.7571 115.928 39.7041V38.4241C115.928 38.371 115.949 38.3201 115.987 38.2826C116.024 38.2451 116.075 38.2241 116.128 38.2241C116.181 38.2251 116.231 38.2465 116.268 38.2838C116.306 38.3211 116.327 38.3713 116.328 38.4241V39.7041C116.327 39.7568 116.306 39.8071 116.268 39.8443C116.231 39.8816 116.181 39.903 116.128 39.9041Z" fill="#D1D3D4"/>
<path d="M116.128 42.568C116.075 42.568 116.024 42.547 115.987 42.5094C115.949 42.4719 115.928 42.4211 115.928 42.368V41.092C115.928 41.039 115.949 40.9881 115.987 40.9506C116.024 40.9131 116.075 40.892 116.128 40.892C116.181 40.892 116.232 40.9131 116.269 40.9506C116.307 40.9881 116.328 41.039 116.328 41.092V42.368C116.328 42.4211 116.307 42.4719 116.269 42.5094C116.232 42.547 116.181 42.568 116.128 42.568Z" fill="#D1D3D4"/>
<path d="M118.1 40.596H116.82C116.767 40.596 116.716 40.575 116.678 40.5375C116.641 40.5 116.62 40.4491 116.62 40.396C116.621 40.3433 116.642 40.293 116.68 40.2558C116.717 40.2185 116.767 40.1971 116.82 40.196H118.1C118.153 40.1971 118.203 40.2185 118.24 40.2558C118.277 40.293 118.299 40.3433 118.3 40.396C118.3 40.4491 118.279 40.5 118.241 40.5375C118.204 40.575 118.153 40.596 118.1 40.596Z" fill="#D1D3D4"/>
<path d="M115.432 40.596H114.156C114.103 40.596 114.052 40.575 114.015 40.5375C113.977 40.5 113.956 40.4491 113.956 40.396C113.956 40.343 113.977 40.2921 114.015 40.2546C114.052 40.2171 114.103 40.196 114.156 40.196H115.432C115.485 40.196 115.536 40.2171 115.573 40.2546C115.611 40.2921 115.632 40.343 115.632 40.396C115.632 40.4491 115.611 40.5 115.573 40.5375C115.536 40.575 115.485 40.596 115.432 40.596Z" fill="#D1D3D4"/>
</svg>
