<svg width="240" height="157" viewBox="0 0 240 157" fill="none" xmlns="http://www.w3.org/2000/svg">
<path d="M48.8519 150.312H191.148V153.516C191.148 154.312 190.832 155.075 190.269 155.637C189.707 156.2 188.944 156.516 188.148 156.516H51.8579C51.0623 156.516 50.2992 156.2 49.7366 155.637C49.174 155.075 48.8579 154.312 48.8579 153.516V150.312H48.8519Z" fill="black"/>
<path d="M188.712 153H51.312C50.9233 153.007 50.5388 152.92 50.1913 152.746C49.8438 152.572 49.5439 152.316 49.3172 152C49.0906 151.684 48.944 151.318 48.8902 150.933C48.8363 150.548 48.8767 150.156 49.008 149.79L61.356 113.346C61.895 111.768 62.9146 110.399 64.2716 109.431C65.6286 108.462 67.2548 107.943 68.922 107.946H171.102C172.769 107.943 174.395 108.462 175.752 109.431C177.109 110.399 178.129 111.768 178.668 113.346L191.016 149.79C191.147 150.156 191.188 150.548 191.134 150.933C191.08 151.318 190.933 151.684 190.707 152C190.48 152.316 190.18 152.572 189.833 152.746C189.485 152.92 189.101 153.007 188.712 153Z" fill="white"/>
<path d="M188.712 153.258H51.312C50.8786 153.261 50.451 153.159 50.0653 152.961C49.6795 152.764 49.347 152.477 49.0957 152.124C48.8445 151.771 48.6819 151.362 48.6217 150.933C48.5615 150.504 48.6055 150.067 48.75 149.658L61.092 113.214C61.6457 111.583 62.6951 110.165 64.0934 109.16C65.4918 108.154 67.1694 107.61 68.892 107.604H171.102C172.83 107.604 174.514 108.145 175.918 109.151C177.323 110.157 178.377 111.578 178.932 113.214L191.274 149.658C191.418 150.067 191.462 150.504 191.402 150.933C191.342 151.362 191.179 151.771 190.928 152.124C190.677 152.477 190.344 152.764 189.959 152.961C189.573 153.159 189.145 153.261 188.712 153.258V153.258ZM68.898 108.174C67.2865 108.172 65.7149 108.675 64.4041 109.613C63.0933 110.55 62.1091 111.874 61.59 113.4L49.242 149.856C49.1324 150.181 49.1018 150.527 49.1526 150.866C49.2034 151.205 49.3342 151.527 49.5341 151.806C49.734 152.084 49.9974 152.311 50.3023 152.468C50.6073 152.624 50.9452 152.706 51.288 152.706H188.688C189.031 152.706 189.369 152.624 189.674 152.468C189.979 152.311 190.242 152.084 190.442 151.806C190.642 151.527 190.772 151.205 190.823 150.866C190.874 150.527 190.843 150.181 190.734 149.856L178.41 113.4C177.894 111.871 176.911 110.543 175.6 109.602C174.289 108.661 172.716 108.155 171.102 108.156L68.898 108.174Z" fill="#231F20"/>
<path d="M176.706 131.58H63.3059C63.2592 131.581 63.2129 131.571 63.1711 131.55C63.1293 131.529 63.0932 131.498 63.0659 131.46C63.0392 131.422 63.021 131.379 63.0127 131.333C63.0044 131.288 63.0062 131.241 63.0179 131.196L68.4599 112.872C68.4781 112.81 68.516 112.755 68.5679 112.716C68.6198 112.677 68.683 112.656 68.7479 112.656H171.264C171.329 112.656 171.392 112.677 171.444 112.716C171.496 112.755 171.534 112.81 171.552 112.872L177 131.196C177.012 131.241 177.013 131.288 177.005 131.333C176.997 131.379 176.979 131.422 176.952 131.46C176.924 131.499 176.887 131.53 176.844 131.551C176.801 131.572 176.754 131.582 176.706 131.58V131.58ZM63.6959 130.98H176.304L171.036 113.256H68.9639L63.6959 130.98Z" fill="#D1D3D4"/>
<path d="M141.186 148.044H98.8139C98.7695 148.043 98.7258 148.033 98.6855 148.015C98.6452 147.996 98.6092 147.969 98.5799 147.936C98.5524 147.901 98.5332 147.86 98.5238 147.816C98.5145 147.773 98.5152 147.727 98.5259 147.684L101.328 134.94C101.342 134.874 101.378 134.814 101.43 134.772C101.483 134.729 101.548 134.706 101.616 134.706H138.384C138.451 134.706 138.517 134.729 138.569 134.772C138.622 134.814 138.658 134.874 138.672 134.94L141.474 147.684C141.485 147.727 141.485 147.773 141.476 147.816C141.467 147.86 141.447 147.901 141.42 147.936C141.391 147.969 141.355 147.996 141.314 148.015C141.274 148.033 141.23 148.043 141.186 148.044V148.044ZM99.1859 147.444H140.802L138.132 135.306H101.862L99.1859 147.444Z" fill="#D1D3D4"/>
<path d="M172.608 23.478H67.2959C64.9631 23.478 63.0719 25.3691 63.0719 27.702V103.68C63.0719 106.013 64.9631 107.904 67.2959 107.904H172.608C174.941 107.904 176.832 106.013 176.832 103.68V27.702C176.832 25.3691 174.941 23.478 172.608 23.478Z" fill="white"/>
<path d="M172.608 108.174H67.2899C66.0985 108.172 64.9564 107.698 64.1139 106.856C63.2715 106.014 62.7975 104.871 62.7959 103.68V27.702C62.7959 26.5096 63.2692 25.3659 64.1118 24.5221C64.9544 23.6784 66.0975 23.2036 67.2899 23.202H172.608C173.801 23.2036 174.945 23.6782 175.788 24.5218C176.632 25.3653 177.106 26.509 177.108 27.702V103.68C177.105 104.872 176.629 106.014 175.786 106.856C174.943 107.699 173.8 108.172 172.608 108.174V108.174ZM67.2899 23.754C66.2433 23.7556 65.2401 24.172 64.5 24.9121C63.76 25.6521 63.3435 26.6554 63.3419 27.702V103.68C63.3435 104.727 63.76 105.73 64.5 106.47C65.2401 107.21 66.2433 107.626 67.2899 107.628H172.608C173.655 107.626 174.658 107.21 175.398 106.47C176.138 105.73 176.554 104.727 176.556 103.68V27.702C176.554 26.6554 176.138 25.6521 175.398 24.9121C174.658 24.172 173.655 23.7556 172.608 23.754H67.2899Z" fill="#231F20"/>
<path d="M172.506 28.044H67.1459V103.218H172.506V28.044Z" fill="black"/>
<path d="M118.068 33.882H69.2519V62.682H118.068V33.882Z" fill="white"/>
<path d="M170.376 33.882H121.56V62.682H170.376V33.882Z" fill="white"/>
<path d="M144.222 65.016H95.406V93.816H144.222V65.016Z" fill="white"/>
<path d="M172.44 96.894H67.2C67.1204 96.894 67.0441 96.8624 66.9879 96.8061C66.9316 96.7499 66.9 96.6736 66.9 96.594C66.9 96.5144 66.9316 96.4381 66.9879 96.3819C67.0441 96.3256 67.1204 96.294 67.2 96.294H172.44C172.52 96.294 172.596 96.3256 172.652 96.3819C172.708 96.4381 172.74 96.5144 172.74 96.594C172.74 96.6736 172.708 96.7499 172.652 96.8061C172.596 96.8624 172.52 96.894 172.44 96.894Z" fill="#D1D3D4"/>
<path d="M72.168 101.226C72.9401 101.226 73.566 100.6 73.566 99.828C73.566 99.0559 72.9401 98.43 72.168 98.43C71.3959 98.43 70.77 99.0559 70.77 99.828C70.77 100.6 71.3959 101.226 72.168 101.226Z" fill="#D1D3D4"/>
<path d="M77.424 101.226C78.1961 101.226 78.822 100.6 78.822 99.828C78.822 99.0559 78.1961 98.43 77.424 98.43C76.6519 98.43 76.026 99.0559 76.026 99.828C76.026 100.6 76.6519 101.226 77.424 101.226Z" fill="#D1D3D4"/>
<path d="M82.686 101.226C83.4581 101.226 84.084 100.6 84.084 99.828C84.084 99.0559 83.4581 98.43 82.686 98.43C81.9139 98.43 81.288 99.0559 81.288 99.828C81.288 100.6 81.9139 101.226 82.686 101.226Z" fill="#D1D3D4"/>
<path d="M87.948 101.226C88.7201 101.226 89.346 100.6 89.346 99.828C89.346 99.0559 88.7201 98.43 87.948 98.43C87.1759 98.43 86.55 99.0559 86.55 99.828C86.55 100.6 87.1759 101.226 87.948 101.226Z" fill="#D1D3D4"/>
<path d="M122.766 98.466C122.691 98.4159 122.604 98.3853 122.514 98.3769C122.424 98.3685 122.333 98.3826 122.25 98.418L121.398 98.772C121.328 98.8015 121.265 98.8457 121.213 98.9015C121.161 98.9574 121.122 99.0237 121.098 99.096V98.436C121.098 98.3007 121.044 98.171 120.949 98.0754C120.853 97.9797 120.723 97.926 120.588 97.926H117.168C117.033 97.926 116.903 97.9797 116.807 98.0754C116.712 98.171 116.658 98.3007 116.658 98.436V100.992C116.658 101.128 116.711 101.258 116.807 101.355C116.902 101.451 117.032 101.506 117.168 101.508H120.6C120.736 101.506 120.865 101.451 120.961 101.355C121.056 101.258 121.11 101.128 121.11 100.992V100.338C121.134 100.41 121.173 100.477 121.225 100.532C121.277 100.588 121.34 100.633 121.41 100.662L122.262 101.016C122.328 101.045 122.4 101.059 122.472 101.058C122.581 101.059 122.687 101.027 122.778 100.968C122.85 100.922 122.909 100.858 122.95 100.782C122.991 100.707 123.012 100.622 123.012 100.536V98.898C123.011 98.811 122.988 98.7256 122.945 98.65C122.902 98.5744 122.84 98.511 122.766 98.466V98.466ZM120.498 100.908H117.258V98.508H120.498V100.908ZM122.4 100.428L121.674 100.128V99.306L122.4 99V100.428Z" fill="#A3A3A3"/>
<path d="M152.748 47.256C152.604 46.308 153.294 45.324 153.48 44.328C153.738 42.924 152.982 41.658 152.376 40.458C151.77 39.258 151.71 37.962 150.942 36.972C149.484 35.106 146.466 33.87 144.174 34.746C142.883 35.2099 141.782 36.09 141.046 37.2479C140.309 38.4058 139.979 39.7757 140.106 41.142C140.262 41.7815 140.309 42.4429 140.244 43.098C139.956 44.466 138.252 45.462 138.576 46.824C138.742 47.2689 138.943 47.7002 139.176 48.114C139.776 49.512 138.642 50.988 138.354 52.47C138.102 53.772 138.492 55.11 138.912 56.37C139.278 57.462 139.734 58.644 140.742 59.202C141.392 59.5063 142.107 59.6464 142.824 59.61C145.998 59.658 149.346 59.04 151.734 56.952C154.122 54.864 155.172 51 153.36 48.42C153.16 48.1722 152.989 47.9025 152.85 47.616C152.802 47.5003 152.768 47.3795 152.748 47.256V47.256Z" fill="white"/>
<path d="M143.202 59.886H142.854C142.091 59.9253 141.33 59.7748 140.64 59.448C139.548 58.848 139.056 57.588 138.684 56.448C138.252 55.152 137.85 53.766 138.114 52.41C138.232 51.8936 138.393 51.3879 138.594 50.898C138.954 49.944 139.29 49.05 138.954 48.216C138.88 48.0448 138.792 47.8802 138.69 47.724C138.523 47.4637 138.393 47.1808 138.306 46.884C138.096 45.972 138.636 45.24 139.158 44.526C139.529 44.0889 139.807 43.5805 139.974 43.032C140.041 42.578 140.018 42.1154 139.908 41.67C139.908 41.502 139.854 41.334 139.83 41.172C139.699 39.7442 140.045 38.3132 140.813 37.1028C141.582 35.8924 142.73 34.9707 144.078 34.482C146.586 33.522 149.706 34.938 151.158 36.798C151.596 37.4377 151.915 38.1511 152.1 38.904C152.236 39.391 152.411 39.8665 152.622 40.326L152.814 40.698C153.366 41.784 154.014 43.02 153.75 44.37C153.661 44.7799 153.536 45.1814 153.378 45.57C153.12 46.0826 152.998 46.6528 153.024 47.226C153.037 47.3289 153.063 47.4298 153.102 47.526C153.192 47.7413 153.311 47.9432 153.456 48.126L153.582 48.306C155.586 51.168 154.29 55.152 151.944 57.204C149.898 58.944 146.88 59.886 143.202 59.886ZM145.8 34.734C145.282 34.7299 144.768 34.8194 144.282 34.998C143.051 35.4436 142.002 36.2848 141.299 37.39C140.597 38.4952 140.281 39.802 140.4 41.106C140.4 41.268 140.448 41.424 140.472 41.586C140.596 42.0987 140.618 42.6307 140.538 43.152C140.355 43.778 140.042 44.3585 139.62 44.856C139.134 45.522 138.708 46.104 138.864 46.764C138.936 47.0074 139.045 47.2382 139.188 47.448C139.3 47.6283 139.398 47.8168 139.482 48.012C139.908 49.044 139.482 50.088 139.134 51.096C138.941 51.5578 138.788 52.0356 138.678 52.524C138.438 53.724 138.804 55.002 139.224 56.286C139.566 57.312 140.01 58.452 140.928 58.962C141.541 59.2392 142.212 59.3667 142.884 59.334C146.592 59.394 149.604 58.5 151.608 56.748C153.786 54.846 154.926 51.108 153.156 48.576L153.036 48.408C152.867 48.1969 152.726 47.965 152.616 47.718C152.563 47.5826 152.524 47.4418 152.502 47.298V47.298C152.463 46.6318 152.596 45.9668 152.886 45.366C153.034 45.0131 153.151 44.6477 153.234 44.274C153.45 43.11 152.892 42.012 152.346 40.956L152.16 40.578C151.93 40.0933 151.743 39.5894 151.602 39.072C151.435 38.3815 151.144 37.727 150.744 37.14C150.138 36.411 149.384 35.8194 148.531 35.4046C147.679 34.9897 146.748 34.7611 145.8 34.734V34.734Z" fill="#231F20"/>
<path d="M140.928 62.742C142.128 61.038 143.052 59.574 143.052 59.574L139.662 50.658L130.8 62.742H140.958H140.928Z" fill="#BB86FC"/>
<path d="M155.838 62.742C156.126 58.422 156.21 52.416 154.776 50.232C153.888 48.216 151.53 48.216 146.142 48.432C146.142 48.432 140.484 48.954 139.146 51.258C138.318 52.692 138.138 58.518 138.126 62.712L155.838 62.742Z" fill="#BB86FC"/>
<path d="M149.16 62.748L149.484 48.714L144.468 49.626L143.64 62.748H149.16Z" fill="white"/>
<path d="M144.486 46.566V49.872C144.531 50.1246 144.632 50.3639 144.782 50.5722C144.932 50.7806 145.126 50.9527 145.351 51.0759C145.576 51.1991 145.826 51.2702 146.083 51.2841C146.339 51.298 146.595 51.2542 146.832 51.156C147.428 50.9805 147.977 50.6738 148.439 50.2585C148.901 49.8432 149.264 49.3299 149.502 48.756L149.274 43.032C149.007 42.0329 148.896 40.9989 148.944 39.966C147.319 39.8423 145.781 39.1792 144.576 38.082C144.576 38.082 143.736 39.342 143.376 39.744C143.07 40.0578 142.809 40.4133 142.602 40.8C142.319 41.4719 142.211 42.205 142.29 42.93C142.297 43.7657 142.379 44.5991 142.536 45.42C142.86 46.95 144.486 46.566 144.486 46.566Z" fill="white"/>
<path d="M146.1 51.534C145.745 51.5404 145.396 51.4468 145.092 51.264C144.632 50.9479 144.312 50.4664 144.198 49.92V46.878C143.779 46.9114 143.36 46.815 142.998 46.602C142.802 46.4702 142.635 46.2993 142.508 46.1C142.381 45.9008 142.297 45.6774 142.26 45.444C142.094 44.608 142.008 43.7582 142.002 42.906C141.924 42.1333 142.042 41.3534 142.344 40.638C142.569 40.2591 142.841 39.9103 143.154 39.6C143.502 39.222 144.324 37.986 144.354 37.974C144.376 37.9403 144.405 37.9116 144.439 37.8899C144.474 37.8682 144.512 37.8539 144.552 37.848C144.592 37.8438 144.633 37.8487 144.672 37.8622C144.71 37.8756 144.745 37.8974 144.774 37.926C144.774 37.926 146.652 39.726 148.974 39.726C149.01 39.7265 149.045 39.7342 149.078 39.7486C149.111 39.763 149.141 39.7839 149.166 39.81C149.216 39.8639 149.244 39.9346 149.244 40.008C149.198 40.928 149.287 41.8497 149.508 42.744C149.539 42.8459 149.561 42.9503 149.574 43.056C149.574 43.104 149.802 48.78 149.802 48.78C149.808 48.8137 149.808 48.8483 149.802 48.882C149.548 49.4937 149.159 50.0402 148.665 50.4807C148.17 50.9212 147.583 51.2443 146.946 51.426C146.671 51.5036 146.386 51.54 146.1 51.534V51.534ZM144.744 49.872C144.787 50.0832 144.877 50.2821 145.007 50.4537C145.138 50.6254 145.305 50.7654 145.497 50.8634C145.689 50.9615 145.901 51.0149 146.116 51.0199C146.332 51.0248 146.546 50.9811 146.742 50.892C147.283 50.7306 147.784 50.4548 148.209 50.0831C148.635 49.7115 148.975 49.2528 149.208 48.738C148.98 43.068 148.98 43.068 148.98 43.062C148.98 43.056 148.98 42.954 148.938 42.876C148.722 42.0194 148.625 41.1371 148.65 40.254C147.156 40.097 145.744 39.4926 144.6 38.52C144.273 39.016 143.921 39.4946 143.544 39.954C143.269 40.2386 143.03 40.5548 142.83 40.896C142.572 41.5283 142.477 42.2154 142.554 42.894C142.557 43.7137 142.638 44.5313 142.794 45.336C142.818 45.4968 142.875 45.6509 142.96 45.7891C143.046 45.9273 143.159 46.0467 143.292 46.14C143.636 46.3228 144.033 46.378 144.414 46.296C144.455 46.288 144.496 46.2887 144.537 46.298C144.577 46.3073 144.615 46.325 144.648 46.35C144.68 46.3761 144.706 46.409 144.723 46.4464C144.741 46.4838 144.75 46.5247 144.75 46.566V49.872H144.744Z" fill="#231F20"/>
<path d="M145.656 41.814C145.656 41.814 144.594 43.404 144.846 43.68C145.098 43.956 145.8 43.8 145.8 43.8" fill="white"/>
<path d="M145.344 44.1C145.219 44.109 145.093 44.0924 144.974 44.0511C144.856 44.0098 144.747 43.9448 144.654 43.86C144.552 43.752 144.258 43.428 145.44 41.67C145.459 41.6406 145.483 41.6154 145.512 41.5957C145.541 41.5761 145.573 41.5625 145.608 41.5558C145.642 41.549 145.677 41.5493 145.711 41.5566C145.745 41.5638 145.777 41.5779 145.806 41.598C145.864 41.637 145.904 41.6975 145.918 41.7661C145.931 41.8347 145.917 41.9059 145.878 41.964C145.53 42.4388 145.259 42.9652 145.074 43.524C145.291 43.5868 145.522 43.5868 145.74 43.524C145.773 43.5149 145.808 43.5125 145.843 43.517C145.877 43.5214 145.91 43.5326 145.94 43.5498C145.971 43.5671 145.997 43.5901 146.018 43.6176C146.039 43.6451 146.055 43.6765 146.064 43.71C146.073 43.7439 146.075 43.7792 146.07 43.814C146.065 43.8487 146.054 43.8821 146.036 43.9123C146.018 43.9424 145.994 43.9687 145.966 43.9896C145.938 44.0105 145.906 44.0256 145.872 44.034C145.7 44.0802 145.522 44.1024 145.344 44.1V44.1Z" fill="#231F20"/>
<path d="M144.323 41.5407C144.331 41.352 144.256 41.1958 144.157 41.1919C144.057 41.188 143.971 41.3379 143.963 41.5266C143.956 41.7153 144.03 41.8715 144.13 41.8754C144.229 41.8793 144.316 41.7295 144.323 41.5407Z" fill="#231F20"/>
<path d="M146.981 41.1423C146.988 40.9535 146.914 40.7973 146.814 40.7933C146.715 40.7894 146.628 40.9391 146.621 41.1279C146.613 41.3166 146.688 41.4728 146.787 41.4768C146.886 41.4808 146.973 41.331 146.981 41.1423Z" fill="#231F20"/>
<path d="M138.126 62.196H138.096C138.061 62.1923 138.028 62.1817 137.997 62.1649C137.966 62.148 137.939 62.1253 137.918 62.0979C137.896 62.0706 137.88 62.0392 137.87 62.0055C137.861 61.9719 137.858 61.9367 137.862 61.902C137.982 60.864 138.312 59.304 138.636 57.792C138.96 56.28 139.284 54.738 139.398 53.724C139.402 53.6892 139.412 53.6556 139.429 53.6249C139.446 53.5943 139.469 53.5673 139.496 53.5456C139.523 53.5238 139.555 53.5077 139.588 53.4981C139.622 53.4886 139.657 53.4858 139.692 53.49C139.762 53.499 139.825 53.5347 139.869 53.5896C139.912 53.6445 139.933 53.7142 139.926 53.784C139.806 54.822 139.476 56.388 139.152 57.9C138.828 59.412 138.504 60.954 138.39 61.962C138.383 62.0267 138.352 62.0864 138.303 62.1296C138.254 62.1728 138.191 62.1964 138.126 62.196V62.196Z" fill="#231F20"/>
<path d="M148.152 41.4C148.272 40.9886 148.477 40.6066 148.752 40.278C148.897 40.1105 149.091 39.993 149.306 39.9424C149.522 39.8917 149.748 39.9105 149.952 39.996C150.146 40.126 150.302 40.3061 150.402 40.5174C150.503 40.7287 150.544 40.9632 150.522 41.196C150.507 41.7375 150.41 42.2736 150.234 42.786C150.153 43.0936 149.996 43.3762 149.778 43.608C149.667 43.7212 149.521 43.7949 149.364 43.8176C149.207 43.8404 149.047 43.811 148.908 43.734" fill="white"/>
<path d="M149.22 44.094C149.048 44.0942 148.881 44.0418 148.74 43.944C148.71 43.9239 148.685 43.8982 148.666 43.8683C148.646 43.8385 148.632 43.805 148.626 43.7699C148.619 43.7348 148.619 43.6987 148.627 43.6638C148.634 43.6288 148.648 43.5955 148.668 43.566C148.688 43.5365 148.714 43.5112 148.744 43.4915C148.774 43.4719 148.807 43.4584 148.842 43.4517C148.877 43.445 148.913 43.4453 148.948 43.4526C148.983 43.4598 149.016 43.4739 149.046 43.494C149.135 43.5347 149.234 43.5468 149.329 43.5285C149.425 43.5102 149.513 43.4625 149.58 43.392C149.765 43.1925 149.895 42.9486 149.958 42.684C150.128 42.2016 150.221 41.6954 150.234 41.184C150.234 41.004 150.234 40.398 149.82 40.212C149.67 40.1616 149.509 40.1563 149.357 40.1968C149.204 40.2374 149.067 40.322 148.962 40.44C148.711 40.7416 148.523 41.0905 148.41 41.466C148.383 41.5332 148.331 41.5872 148.265 41.6164C148.199 41.6456 148.124 41.6476 148.056 41.622C147.988 41.5964 147.932 41.5448 147.902 41.4784C147.872 41.4121 147.869 41.3364 147.894 41.268C148.034 40.8253 148.265 40.4166 148.572 40.068C148.756 39.8671 148.997 39.7272 149.263 39.6672C149.529 39.6071 149.807 39.6297 150.06 39.732C150.309 39.8815 150.509 40.0998 150.637 40.3606C150.765 40.6215 150.814 40.9136 150.78 41.202C150.768 41.7703 150.667 42.3331 150.48 42.87C150.387 43.2239 150.206 43.5482 149.952 43.812C149.75 43.991 149.49 44.0911 149.22 44.094Z" fill="#231F20"/>
<path d="M160.518 62.742C159.918 59.628 158.856 54.84 158.172 53.472C157.128 51.384 153.972 49.182 153.972 49.182L153.564 62.742H160.518Z" fill="#BB86FC"/>
<path d="M153.204 62.196C153.137 62.1962 153.072 62.1708 153.023 62.1251C152.974 62.0795 152.945 62.0169 152.94 61.95L152.304 53.772C152.301 53.7368 152.305 53.7014 152.315 53.6677C152.326 53.634 152.343 53.6028 152.366 53.576C152.389 53.5491 152.417 53.5272 152.449 53.5114C152.48 53.4956 152.515 53.4863 152.55 53.484C152.585 53.4807 152.62 53.4846 152.653 53.4953C152.687 53.506 152.717 53.5234 152.744 53.5464C152.77 53.5694 152.792 53.5976 152.807 53.6291C152.822 53.6607 152.831 53.695 152.832 53.73L153.468 61.908C153.473 61.9787 153.45 62.0485 153.404 62.1024C153.358 62.1562 153.293 62.1899 153.222 62.196H153.204Z" fill="#231F20"/>
<path d="M143.94 44.688C143.94 44.688 145.74 45.852 147.066 44.352Z" fill="white"/>
<path d="M145.41 45.384C144.839 45.3768 144.28 45.2128 143.796 44.91C143.738 44.8709 143.698 44.8109 143.683 44.7427C143.669 44.6745 143.681 44.6033 143.718 44.544C143.736 44.5141 143.76 44.4883 143.789 44.4681C143.818 44.4479 143.85 44.4337 143.884 44.4264C143.918 44.4191 143.954 44.4189 143.988 44.4257C144.022 44.4325 144.055 44.4462 144.084 44.466C144.15 44.502 145.716 45.486 146.868 44.172C146.893 44.1468 146.922 44.1267 146.954 44.1131C146.987 44.0994 147.022 44.0923 147.057 44.0923C147.092 44.0923 147.127 44.0994 147.159 44.1131C147.192 44.1267 147.221 44.1468 147.246 44.172C147.271 44.1961 147.291 44.225 147.305 44.2569C147.318 44.2889 147.325 44.3233 147.325 44.358C147.325 44.3927 147.318 44.4271 147.305 44.4591C147.291 44.491 147.271 44.5199 147.246 44.544C147.019 44.809 146.738 45.0214 146.421 45.1665C146.103 45.3115 145.759 45.3858 145.41 45.384V45.384Z" fill="#231F20"/>
<path d="M130.8 37.482H126.156C126.076 37.482 126 37.4504 125.944 37.3941C125.888 37.3379 125.856 37.2616 125.856 37.182C125.856 37.1024 125.888 37.0261 125.944 36.9699C126 36.9136 126.076 36.882 126.156 36.882H130.8C130.88 36.882 130.956 36.9136 131.012 36.9699C131.068 37.0261 131.1 37.1024 131.1 37.182C131.1 37.2616 131.068 37.3379 131.012 37.3941C130.956 37.4504 130.88 37.482 130.8 37.482Z" fill="#D1D3D4"/>
<path d="M76.2779 37.482H71.6339C71.5544 37.482 71.4781 37.4504 71.4218 37.3941C71.3655 37.3379 71.3339 37.2616 71.3339 37.182C71.3339 37.1024 71.3655 37.0261 71.4218 36.9699C71.4781 36.9136 71.5544 36.882 71.6339 36.882H76.2779C76.3575 36.882 76.4338 36.9136 76.4901 36.9699C76.5463 37.0261 76.5779 37.1024 76.5779 37.182C76.5779 37.2616 76.5463 37.3379 76.4901 37.3941C76.4338 37.4504 76.3575 37.482 76.2779 37.482Z" fill="#D1D3D4"/>
<path d="M104.106 69.12H99.462C99.3824 69.12 99.3061 69.0884 99.2499 69.0321C99.1936 68.9759 99.162 68.8996 99.162 68.82C99.162 68.7404 99.1936 68.6641 99.2499 68.6079C99.3061 68.5516 99.3824 68.52 99.462 68.52H104.106C104.186 68.52 104.262 68.5516 104.318 68.6079C104.374 68.6641 104.406 68.7404 104.406 68.82C104.406 68.8996 104.374 68.9759 104.318 69.0321C104.262 69.0884 104.186 69.12 104.106 69.12Z" fill="#D1D3D4"/>
<path d="M90.456 44.184C90.1713 43.1375 89.9568 42.0731 89.814 40.998C89.6738 39.9125 89.9088 38.8117 90.48 37.878C90.7116 37.5075 91.0599 37.2247 91.47 37.074C91.6808 36.9998 91.9095 36.9929 92.1244 37.0542C92.3393 37.1154 92.5299 37.2418 92.67 37.416C92.9788 37.0077 93.3939 36.6922 93.87 36.504C94.9468 35.9666 96.1508 35.7362 97.35 35.838C98.5562 35.9501 99.6732 36.5215 100.47 37.434C100.758 37.837 101.069 38.2236 101.4 38.592C101.706 38.881 102.078 39.091 102.484 39.2039C102.889 39.3168 103.317 39.3292 103.728 39.24C103.592 40.0402 103.294 40.8042 102.853 41.4851C102.411 42.1661 101.835 42.7496 101.16 43.2C99.8244 44.1039 98.3138 44.7172 96.726 45C95.9049 45.206 95.0541 45.2669 94.212 45.18C93.7898 45.1352 93.381 45.0059 93.0099 44.7997C92.6388 44.5936 92.313 44.3148 92.052 43.98" fill="white"/>
<path d="M94.89 45.486C94.6491 45.4879 94.4084 45.4719 94.17 45.438C93.7072 45.3883 93.2591 45.2464 92.8521 45.0207C92.445 44.795 92.0873 44.4901 91.8 44.124C91.7763 44.0913 91.7594 44.0543 91.75 44.015C91.7407 43.9758 91.7392 43.935 91.7456 43.8952C91.752 43.8554 91.7662 43.8172 91.7874 43.7828C91.8086 43.7485 91.8363 43.7186 91.869 43.695C91.9017 43.6714 91.9387 43.6544 91.978 43.6451C92.0172 43.6357 92.0579 43.6342 92.0978 43.6406C92.1376 43.6471 92.1758 43.6612 92.2101 43.6824C92.2445 43.7036 92.2743 43.7313 92.298 43.764C92.537 44.0622 92.8331 44.3097 93.169 44.492C93.5049 44.6744 93.8737 44.7879 94.254 44.826C95.0584 44.9036 95.8702 44.8428 96.654 44.646C98.1992 44.3857 99.6704 43.7964 100.968 42.918C102.126 42.1343 102.959 40.9543 103.308 39.6C102.912 39.627 102.515 39.571 102.142 39.4357C101.769 39.3003 101.428 39.0886 101.142 38.814C100.921 38.5839 100.72 38.335 100.542 38.07C100.434 37.92 100.332 37.77 100.212 37.632C99.4682 36.7795 98.4231 36.2483 97.296 36.15C96.1523 36.0484 95.003 36.2687 93.978 36.786C93.5601 36.9572 93.1941 37.2343 92.916 37.59C92.8878 37.6312 92.8502 37.6651 92.8065 37.6891C92.7627 37.7131 92.7139 37.7264 92.664 37.728C92.6141 37.7254 92.5653 37.7124 92.5209 37.6896C92.4764 37.6669 92.4372 37.635 92.406 37.596C92.3062 37.4802 92.1738 37.3971 92.0262 37.3575C91.8785 37.3179 91.7223 37.3237 91.578 37.374C91.235 37.506 90.9444 37.7461 90.75 38.058C90.2258 38.9341 90.0143 39.9621 90.15 40.974C90.2397 41.7516 90.386 42.5217 90.588 43.278C90.66 43.554 90.726 43.836 90.786 44.118C90.7946 44.1574 90.7955 44.1981 90.7884 44.2378C90.7813 44.2775 90.7665 44.3155 90.7448 44.3495C90.7231 44.3834 90.6948 44.4128 90.6618 44.4359C90.6287 44.459 90.5914 44.4753 90.552 44.484C90.5126 44.4927 90.4719 44.4935 90.4322 44.4864C90.3924 44.4793 90.3545 44.4645 90.3205 44.4428C90.2865 44.4211 90.2572 44.3929 90.2341 44.3598C90.211 44.3267 90.1946 44.2894 90.186 44.25C90.126 43.974 90.054 43.698 89.988 43.422C89.777 42.6343 89.6246 41.8321 89.532 41.022C89.3894 39.8645 89.6432 38.6928 90.252 37.698C90.5219 37.2675 90.9303 36.9416 91.41 36.774C91.6162 36.7084 91.8346 36.6905 92.0487 36.7217C92.2628 36.7529 92.4671 36.8323 92.646 36.954C92.9566 36.6441 93.3231 36.3957 93.726 36.222C94.8534 35.6547 96.1169 35.4136 97.374 35.526C98.6586 35.6451 99.8485 36.253 100.698 37.224C100.824 37.38 100.944 37.536 101.058 37.698C101.217 37.9361 101.398 38.1591 101.598 38.364C101.87 38.6152 102.198 38.7975 102.555 38.8956C102.912 38.9938 103.288 39.0049 103.65 38.928C103.698 38.9172 103.749 38.9181 103.797 38.9306C103.845 38.9431 103.889 38.9669 103.926 39C103.963 39.0337 103.991 39.076 104.008 39.1231C104.024 39.1701 104.029 39.2206 104.022 39.27C103.884 40.1046 103.577 40.9025 103.122 41.6152C102.666 42.3279 102.07 42.9406 101.37 43.416C99.9987 44.3315 98.4484 44.9451 96.822 45.216C96.1891 45.373 95.5416 45.4634 94.89 45.486Z" fill="#231F20"/>
<path d="M104.118 62.742C102.918 57.192 99.9779 50.706 99.4499 50.466C98.1719 49.866 91.4219 49.224 89.8979 51.822C89.4179 52.638 89.6999 58.026 90.3119 62.742H104.118Z" fill="#231F20"/>
<path d="M92.712 62.742L91.374 50.88L98.4 51.822L99.978 62.742H109.65C108 57.084 103.8 51.84 103.002 51C100.002 47.748 91.908 48 91.908 48C91.908 48 85.074 49.554 83.322 52.8C82.884 53.616 82.434 59.28 82.38 62.784L92.712 62.742Z" fill="#BB86FC"/>
<path d="M98.106 48.99L98.424 51.822C98.424 51.822 97.278 55.248 94.782 54.666C92.286 54.084 91.374 50.88 91.374 50.88L91.338 44.88C91.338 44.88 93.174 43.878 92.598 39.876C94.6433 40.7331 96.8818 41.0233 99.078 40.716C99.078 40.716 100.278 45.054 99.966 46.986C99.9451 47.4867 99.7463 47.9636 99.4054 48.3309C99.0645 48.6982 98.6038 48.9319 98.106 48.99V48.99Z" fill="white"/>
<path d="M95.328 55.044C95.126 55.0414 94.9248 55.0173 94.728 54.972C92.082 54.372 91.128 51.108 91.092 50.97C91.0895 50.9421 91.0895 50.9139 91.092 50.886L91.056 44.886C91.0568 44.8299 91.0721 44.775 91.1005 44.7266C91.1289 44.6782 91.1694 44.638 91.218 44.61C91.218 44.61 92.856 43.626 92.322 39.918C92.3042 39.863 92.3021 39.8041 92.3159 39.7479C92.3297 39.6918 92.3588 39.6406 92.4 39.6C92.4456 39.5674 92.4991 39.5474 92.5549 39.5422C92.6108 39.5369 92.667 39.5465 92.718 39.57C94.7093 40.4006 96.8868 40.6824 99.024 40.386C99.0977 40.3733 99.1735 40.3892 99.236 40.4304C99.2984 40.4717 99.3428 40.5352 99.36 40.608C99.414 40.788 100.56 45.036 100.26 47.004C100.224 47.5146 100.032 48.0018 99.7098 48.3999C99.3879 48.7979 98.9517 49.0877 98.46 49.23L98.742 51.762C98.7537 51.8073 98.7537 51.8547 98.742 51.9C98.328 53.07 97.164 55.044 95.328 55.044ZM91.68 50.844C91.794 51.192 92.706 53.844 94.848 54.372C96.864 54.84 97.944 52.23 98.106 51.792L97.8 49.032C97.795 48.9899 97.7988 48.9472 97.8111 48.9066C97.8235 48.8661 97.8442 48.8285 97.8718 48.7964C97.8994 48.7642 97.9335 48.7381 97.9717 48.7198C98.01 48.7015 98.0516 48.6914 98.094 48.69C98.5196 48.6343 98.9113 48.4284 99.1985 48.1093C99.4856 47.7903 99.6493 47.3791 99.66 46.95C99.888 45.366 99.06 42.018 98.844 41.064C96.8679 41.2852 94.8674 41.0449 93 40.362C93.306 43.476 92.124 44.7 91.68 45.042V50.844Z" fill="#231F20"/>
<path d="M96.3719 43.128C96.3719 43.128 97.5719 45.306 97.1939 45.63C96.8159 45.954 95.9459 45.63 95.9459 45.63" fill="white"/>
<path d="M96.696 46.08C96.4049 46.0738 96.117 46.019 95.844 45.918C95.8059 45.9054 95.7707 45.8853 95.7405 45.8589C95.7103 45.8325 95.6857 45.8003 95.6682 45.7643C95.6507 45.7282 95.6405 45.689 95.6384 45.6489C95.6363 45.6089 95.6422 45.5688 95.6559 45.5311C95.6695 45.4934 95.6906 45.4588 95.7178 45.4293C95.7451 45.3999 95.778 45.3762 95.8145 45.3597C95.8511 45.3432 95.8906 45.3342 95.9307 45.3332C95.9708 45.3322 96.0107 45.3393 96.048 45.354C96.348 45.462 96.846 45.54 96.996 45.408C96.7999 44.6585 96.5011 43.9396 96.108 43.272C96.0835 43.2375 96.0666 43.1983 96.0584 43.1569C96.0502 43.1154 96.0508 43.0727 96.0602 43.0315C96.0696 42.9903 96.0876 42.9516 96.113 42.9179C96.1385 42.8841 96.1707 42.8561 96.2077 42.8357C96.2447 42.8153 96.2856 42.803 96.3277 42.7994C96.3698 42.7959 96.4122 42.8013 96.452 42.8153C96.4919 42.8293 96.5284 42.8516 96.559 42.8807C96.5897 42.9097 96.6139 42.9449 96.63 42.984C97.494 44.568 97.752 45.528 97.398 45.852C97.2009 46.0135 96.9503 46.0949 96.696 46.08V46.08Z" fill="#231F20"/>
<path d="M96.336 47.532H96.18C95.8122 47.4993 95.4549 47.392 95.13 47.2166C94.805 47.0412 94.5192 46.8015 94.29 46.512C94.2382 46.4515 94.2127 46.373 94.2189 46.2937C94.2251 46.2143 94.2625 46.1407 94.323 46.089C94.3834 46.0373 94.462 46.0117 94.5413 46.0179C94.6206 46.0241 94.6943 46.0615 94.746 46.122C94.922 46.3496 95.1426 46.5389 95.3943 46.6781C95.6461 46.8174 95.9236 46.9038 96.21 46.932C96.8871 46.9316 97.5413 46.6866 98.052 46.242C98.0815 46.2156 98.116 46.1953 98.1534 46.1822C98.1908 46.1691 98.2304 46.1635 98.2699 46.1658C98.3095 46.168 98.3482 46.178 98.3839 46.1952C98.4196 46.2124 98.4516 46.2364 98.478 46.266C98.5044 46.2955 98.5247 46.33 98.5378 46.3674C98.5509 46.4048 98.5564 46.4444 98.5542 46.484C98.552 46.5235 98.542 46.5623 98.5248 46.5979C98.5076 46.6336 98.4835 46.6656 98.454 46.692C97.8605 47.1989 97.1155 47.4944 96.336 47.532V47.532Z" fill="#231F20"/>
<path d="M95.0849 42.7732C95.1053 42.4657 95.0118 42.2092 94.8763 42.2002C94.7407 42.1913 94.6143 42.4333 94.594 42.7408C94.5737 43.0483 94.6671 43.3049 94.8027 43.3138C94.9383 43.3228 95.0646 43.0808 95.0849 42.7732Z" fill="#231F20"/>
<path d="M98.4185 42.7745C98.4388 42.467 98.3453 42.2105 98.2098 42.2015C98.0742 42.1925 97.9478 42.4346 97.9275 42.7421C97.9072 43.0496 98.0006 43.3061 98.1362 43.3151C98.2718 43.324 98.3981 43.082 98.4185 42.7745Z" fill="#231F20"/>
<path d="M92.9399 43.854C92.7187 43.4764 92.4275 43.1445 92.0819 42.876C91.9001 42.7223 91.6766 42.6263 91.4399 42.6C91.2465 42.603 91.0577 42.659 90.8939 42.762C90.6482 42.9071 90.4357 43.1023 90.2703 43.3348C90.1049 43.5674 89.9903 43.8322 89.9339 44.112C89.8777 44.3703 89.888 44.6387 89.964 44.892C90.1057 45.2843 90.3793 45.6151 90.7379 45.828C91.0976 46.0356 91.4802 46.2007 91.8779 46.32" fill="white"/>
<path d="M91.8719 46.62C91.8402 46.6257 91.8077 46.6257 91.7759 46.62C91.3558 46.4965 90.9527 46.3211 90.5759 46.098C90.1531 45.8497 89.8304 45.4613 89.6639 45C89.5763 44.6976 89.564 44.3783 89.6279 44.07C89.6918 43.7469 89.8239 43.4412 90.0153 43.1733C90.2067 42.9053 90.4531 42.6812 90.7379 42.516C90.9484 42.3742 91.1983 42.3028 91.4519 42.312C91.7524 42.3403 92.0371 42.4596 92.2679 42.654C92.6471 42.9426 92.9653 43.3035 93.2039 43.716C93.2458 43.7869 93.2579 43.8714 93.2377 43.9512C93.2174 44.031 93.1665 44.0996 93.0959 44.142C93.0247 44.1823 92.9406 44.1935 92.8613 44.1734C92.7819 44.1533 92.7134 44.1034 92.6699 44.034C92.4699 43.6903 92.205 43.3887 91.8899 43.146C91.7618 43.0282 91.6005 42.9528 91.4279 42.93C91.2931 42.9332 91.1619 42.9748 91.0499 43.05C90.8413 43.1719 90.6608 43.3364 90.5202 43.5329C90.3796 43.7293 90.282 43.9532 90.2339 44.19C90.1872 44.3873 90.1872 44.5927 90.2339 44.79C90.3555 45.1112 90.5845 45.3804 90.8819 45.552C91.2187 45.7471 91.5772 45.9021 91.9499 46.014C92.0227 46.0344 92.0853 46.0811 92.1258 46.1449C92.1662 46.2088 92.1816 46.2854 92.1689 46.3599C92.1562 46.4344 92.1164 46.5016 92.0572 46.5485C91.9979 46.5954 91.9234 46.6188 91.8479 46.614L91.8719 46.62Z" fill="#231F20"/>
<path d="M105.6 62.4C105.533 62.4007 105.469 62.3801 105.415 62.3412C105.361 62.3024 105.32 62.2473 105.3 62.184C105.084 61.464 104.574 60.09 104.1 58.758C103.626 57.426 103.086 56.028 102.864 55.29C102.852 55.2506 102.848 55.2093 102.852 55.1683C102.857 55.1274 102.869 55.0877 102.888 55.0515C102.908 55.0153 102.934 54.9833 102.966 54.9573C102.998 54.9313 103.035 54.9118 103.074 54.9C103.113 54.8882 103.155 54.8842 103.196 54.8884C103.237 54.8926 103.276 54.9047 103.312 54.9242C103.349 54.9437 103.381 54.9702 103.407 55.002C103.433 55.0339 103.452 55.0706 103.464 55.11C103.68 55.83 104.196 57.21 104.664 58.542C105.132 59.874 105.678 61.266 105.9 61.998C105.924 62.0768 105.917 62.162 105.878 62.2351C105.84 62.3082 105.775 62.3632 105.696 62.388L105.6 62.4Z" fill="#231F20"/>
<path d="M88.23 62.4C88.1893 62.4008 88.1488 62.3935 88.111 62.3784C88.0732 62.3634 88.0388 62.341 88.0097 62.3125C87.9807 62.284 87.9576 62.25 87.9418 62.2125C87.9261 62.175 87.918 62.1347 87.918 62.094V54.294C87.9366 54.2288 87.9759 54.1714 88.0301 54.1306C88.0842 54.0898 88.1502 54.0677 88.218 54.0677C88.2858 54.0677 88.3517 54.0898 88.4059 54.1306C88.46 54.1714 88.4993 54.2288 88.518 54.294V62.094C88.5181 62.1721 88.4883 62.2474 88.4348 62.3042C88.3813 62.3611 88.308 62.3954 88.23 62.4V62.4Z" fill="#231F20"/>
<path d="M80.346 57C80.346 57 79.47 53.562 79.47 53.196C79.5392 51.985 79.5392 50.771 79.47 49.56C79.332 48.96 78.456 48.912 78.228 50.388C78.228 50.388 77.724 47.118 77.262 47.028C76.8 46.938 75.516 47.712 75.192 48.36C74.868 49.008 76.848 57.84 76.848 57.84" fill="white"/>
<path d="M76.848 58.14C76.7773 58.14 76.7087 58.1155 76.654 58.0706C76.5993 58.0258 76.5619 57.9634 76.548 57.894C75.948 55.206 74.58 48.894 74.916 48.21C75.252 47.526 76.716 46.584 77.316 46.71C77.478 46.746 77.88 46.824 78.336 49.218C78.4151 49.1117 78.5159 49.0235 78.6318 48.9594C78.7477 48.8952 78.876 48.8566 79.008 48.846C79.1858 48.8384 79.3604 48.8947 79.5002 49.0048C79.64 49.1149 79.7357 49.2714 79.77 49.446C79.8504 50.5045 79.8504 51.5675 79.77 52.626C79.77 52.884 79.77 53.07 79.77 53.154C79.77 53.4 80.28 55.482 80.634 56.88C80.6424 56.9551 80.6233 57.0307 80.5802 57.0928C80.5371 57.1548 80.4729 57.1991 80.3996 57.2175C80.3263 57.2358 80.2488 57.2269 80.1816 57.1924C80.1144 57.1579 80.0619 57.1002 80.034 57.03C79.824 56.214 79.152 53.532 79.152 53.154C79.152 53.07 79.152 52.872 79.152 52.608C79.2148 51.609 79.2148 50.607 79.152 49.608C79.152 49.542 79.104 49.47 79.02 49.458C78.936 49.446 78.624 49.728 78.516 50.418C78.5045 50.4906 78.4672 50.5566 78.411 50.604C78.3549 50.6513 78.2835 50.6769 78.21 50.676V50.676C78.1368 50.6757 78.0661 50.6497 78.0102 50.6025C77.9543 50.5554 77.9167 50.4901 77.904 50.418C77.784 49.3531 77.5258 48.3083 77.136 47.31C76.4495 47.4974 75.8519 47.9227 75.45 48.51C75.312 49.02 76.212 53.676 77.13 57.786C77.1397 57.8258 77.1414 57.8672 77.1348 57.9077C77.1282 57.9481 77.1136 57.9868 77.0918 58.0215C77.0699 58.0562 77.0414 58.0862 77.0077 58.1096C76.9741 58.1331 76.9361 58.1495 76.896 58.158L76.848 58.14Z" fill="#231F20"/>
<path d="M83.118 62.748L80.562 55.998L76.05 56.982L76.5 62.748H83.118Z" fill="#BB86FC"/>
<path d="M78.228 50.4C78.228 50.4 77.088 51.432 77.754 52.44Z" fill="white"/>
<path d="M77.7539 52.728C77.702 52.7283 77.6508 52.7159 77.6048 52.6918C77.5588 52.6678 77.5193 52.6328 77.4899 52.59C76.8539 51.618 77.5559 50.568 78.0179 50.148C78.0464 50.1188 78.0805 50.0956 78.1181 50.0797C78.1557 50.0639 78.1961 50.0557 78.2369 50.0557C78.2778 50.0557 78.3182 50.0639 78.3558 50.0797C78.3934 50.0956 78.4274 50.1188 78.4559 50.148C78.5135 50.2064 78.5457 50.285 78.5457 50.367C78.5457 50.449 78.5135 50.5276 78.4559 50.586C78.4199 50.622 77.5199 51.456 78.0299 52.23C78.0737 52.2997 78.0888 52.3836 78.0721 52.4641C78.0553 52.5447 78.0079 52.6156 77.9399 52.662C77.8853 52.7009 77.8209 52.7238 77.7539 52.728V52.728Z" fill="#231F20"/>
<path d="M135 83.682C135 83.682 138.096 79.074 138.042 80.148C137.996 80.8308 137.821 81.4986 137.526 82.116C137.526 82.116 141.084 80.538 141.306 81.27C141.528 82.002 138.828 83.886 138.606 84.186C138.384 84.486 137.526 85.89 137.526 85.89" fill="white"/>
<path d="M137.538 86.166C137.489 86.1639 137.442 86.1495 137.4 86.124C137.337 86.0866 137.292 86.0257 137.274 85.9549C137.256 85.884 137.267 85.8089 137.304 85.746C137.34 85.686 138.174 84.324 138.402 84.018C138.598 83.82 138.808 83.6375 139.032 83.472C140.802 82.02 141.114 81.522 141.066 81.354C140.832 81.204 139.23 81.666 137.652 82.368C137.6 82.3916 137.541 82.3978 137.485 82.386C137.429 82.3741 137.378 82.3447 137.34 82.302C137.301 82.2609 137.276 82.2087 137.269 82.1528C137.261 82.0968 137.271 82.0399 137.298 81.99C137.521 81.5143 137.674 81.0092 137.754 80.49C136.845 81.5498 136.008 82.6682 135.246 83.838C135.202 83.8906 135.141 83.9251 135.073 83.9349C135.005 83.9447 134.936 83.929 134.88 83.8909C134.823 83.8529 134.782 83.7951 134.766 83.7287C134.749 83.6624 134.758 83.5923 134.79 83.532C137.484 79.524 137.892 79.662 138.09 79.728C138.175 79.7592 138.247 79.8197 138.292 79.8988C138.337 79.978 138.353 80.0705 138.336 80.16C138.305 80.6533 138.206 81.1399 138.042 81.606C139.05 81.192 140.706 80.604 141.306 80.88C141.373 80.9079 141.433 80.9504 141.482 81.0044C141.531 81.0583 141.567 81.1224 141.588 81.192C141.792 81.858 140.706 82.806 139.374 83.892C139.146 84.084 138.888 84.294 138.84 84.354C138.666 84.582 138.012 85.644 137.772 86.034C137.748 86.0749 137.714 86.1088 137.673 86.132C137.632 86.1552 137.585 86.167 137.538 86.166V86.166Z" fill="#231F20"/>
<path d="M134.91 82.674C134.91 82.674 130.056 89.22 129.45 89.136C128.844 89.052 122.958 80.52 122.958 80.52V80.688C122.046 79.488 120.312 78.99 116.55 79.488C116.55 79.488 109.176 79.662 107.55 82.314C106.62 83.844 103.35 89.304 101.796 93.942H133.878C135.513 91.3623 136.994 88.6876 138.312 85.932L134.91 82.674Z" fill="#BB86FC"/>
<path d="M112.2 68.4C113.904 64.968 118.716 64.878 121.416 67.254C124.116 69.63 124.272 74.124 124.266 77.412C122.176 78.7549 119.754 79.4883 117.27 79.5296C114.787 79.571 112.341 78.9186 110.208 77.646C110.514 75.9 111.648 69.534 112.2 68.4Z" fill="white"/>
<path d="M117.042 79.8C114.586 79.8194 112.173 79.1591 110.07 77.892C110.023 77.8629 109.986 77.8205 109.964 77.7703C109.941 77.72 109.934 77.6642 109.944 77.61C110.088 76.788 111.336 69.546 111.96 68.292C112.326 67.5608 112.859 66.9258 113.516 66.4381C114.172 65.9504 114.934 65.6236 115.74 65.484C116.773 65.2894 117.836 65.3302 118.851 65.6034C119.866 65.8766 120.806 66.3752 121.602 67.062C124.206 69.348 124.554 73.584 124.548 77.424C124.547 77.4693 124.535 77.5137 124.513 77.5534C124.491 77.5931 124.46 77.6269 124.422 77.652C122.224 79.0728 119.659 79.8194 117.042 79.8V79.8ZM110.514 77.52C112.574 78.699 114.915 79.2986 117.289 79.2553C119.662 79.212 121.98 78.5273 123.996 77.274C123.996 73.596 123.648 69.588 121.242 67.47C120.508 66.8386 119.642 66.3807 118.707 66.1303C117.772 65.88 116.793 65.8436 115.842 66.024C115.119 66.1472 114.435 66.4383 113.846 66.8739C113.256 67.3095 112.776 67.8774 112.446 68.532V68.532C111.984 69.468 111.03 74.532 110.514 77.514V77.52Z" fill="#231F20"/>
<path d="M112.962 79.8C112.962 79.8 112.362 82.968 112.53 84.108C112.728 85.662 112.644 88.134 116.034 88.02C118.698 87.924 121.62 79.758 121.62 79.758C121.62 79.758 116.754 78.906 112.962 79.8Z" fill="#231F20"/>
<path d="M115.8 88.254C112.698 88.254 112.464 86.04 112.308 84.564L112.254 84.114C112.104 82.944 112.662 79.854 112.686 79.722C112.696 79.6711 112.721 79.6242 112.757 79.5869C112.793 79.5497 112.839 79.5237 112.89 79.512C116.688 78.648 121.452 79.434 121.656 79.464C121.694 79.4719 121.729 79.4878 121.76 79.5105C121.791 79.5333 121.817 79.5624 121.836 79.596C121.853 79.6307 121.861 79.6686 121.861 79.707C121.861 79.7454 121.853 79.7833 121.836 79.818C121.53 80.67 118.77 88.158 116.004 88.254H115.8ZM113.178 79.992C112.912 81.3276 112.777 82.6861 112.776 84.048C112.776 84.192 112.812 84.348 112.83 84.504C112.998 86.058 113.19 87.816 116.01 87.726C117.96 87.654 120.348 82.326 121.248 79.926C120.15 79.8 116.31 79.332 113.19 79.992H113.178Z" fill="#231F20"/>
<path d="M113.538 73.626C113.459 73.3539 113.322 73.1022 113.136 72.888C113.043 72.7814 112.919 72.7062 112.782 72.6729C112.644 72.6396 112.5 72.6497 112.368 72.702C112.275 72.755 112.196 72.8305 112.14 72.9217C112.083 73.0129 112.05 73.1168 112.044 73.224C112.034 73.429 112.069 73.6337 112.146 73.824C112.264 74.2007 112.47 74.544 112.746 74.826C112.886 74.9668 113.054 75.0769 113.239 75.1492C113.424 75.2216 113.622 75.2545 113.82 75.246" fill="white"/>
<path d="M113.748 75.522C113.315 75.5102 112.904 75.3343 112.596 75.03C112.285 74.7247 112.054 74.3476 111.924 73.932C111.831 73.6998 111.79 73.4498 111.804 73.2C111.817 73.0539 111.865 72.9131 111.945 72.7898C112.024 72.6665 112.132 72.5643 112.26 72.492C112.437 72.4149 112.633 72.3954 112.822 72.4363C113.01 72.4773 113.181 72.5765 113.31 72.72C113.516 72.9597 113.669 73.2397 113.76 73.542C113.782 73.6009 113.779 73.6659 113.753 73.7231C113.728 73.7803 113.68 73.8252 113.622 73.848C113.563 73.8696 113.498 73.8672 113.441 73.8414C113.384 73.8156 113.339 73.7684 113.316 73.71C113.244 73.4712 113.126 73.249 112.968 73.056C112.909 72.9865 112.831 72.9362 112.743 72.9116C112.655 72.887 112.562 72.8892 112.476 72.918C112.419 72.9532 112.371 73.0016 112.337 73.059C112.303 73.1164 112.282 73.1812 112.278 73.248C112.271 73.4289 112.304 73.609 112.374 73.776C112.481 74.1174 112.668 74.4281 112.92 74.682C113.037 74.7988 113.177 74.8909 113.33 74.9527C113.484 75.0146 113.648 75.0449 113.814 75.042C113.846 75.0387 113.878 75.0419 113.908 75.0514C113.939 75.0609 113.967 75.0766 113.991 75.0974C114.015 75.1181 114.035 75.1436 114.049 75.1723C114.063 75.201 114.071 75.2322 114.072 75.264C114.074 75.3263 114.052 75.387 114.011 75.4338C113.969 75.4806 113.912 75.5099 113.85 75.516L113.748 75.522Z" fill="#231F20"/>
<path d="M115.032 77.4L114.696 80.754C114.718 81.0151 114.797 81.2681 114.93 81.4943C115.062 81.7205 115.243 81.9141 115.46 82.0609C115.677 82.2077 115.925 82.304 116.184 82.3426C116.443 82.3812 116.708 82.3612 116.958 82.284C117.577 82.168 118.162 81.9142 118.67 81.5413C119.178 81.1685 119.596 80.6861 119.892 80.13L120.21 74.298C120.21 74.052 119.316 73.026 119.556 70.896C118.837 70.8216 118.142 70.5987 117.514 70.2413C116.886 69.8839 116.339 69.3999 115.908 68.82C115.908 68.82 114.936 70.02 114.528 70.392C114.201 70.6652 113.91 70.9798 113.664 71.328C113.022 72.312 113.064 73.908 113.196 75.024C113.328 75.954 113.868 77.4 115.032 77.4Z" fill="white"/>
<path d="M116.43 82.608C115.986 82.6148 115.552 82.471 115.2 82.2C114.766 81.8343 114.487 81.3175 114.42 80.754L114.732 77.628C113.574 77.424 113.052 75.942 112.932 75.036C112.824 74.268 112.656 72.348 113.442 71.154C113.701 70.7871 114.005 70.4545 114.348 70.164C114.738 69.81 115.692 68.634 115.704 68.622C115.733 68.5902 115.768 68.5647 115.807 68.5472C115.846 68.5296 115.889 68.5204 115.932 68.52C115.975 68.5238 116.017 68.5371 116.054 68.5589C116.091 68.5807 116.123 68.6104 116.148 68.646C116.556 69.191 117.073 69.6456 117.666 69.9811C118.259 70.3167 118.914 70.5261 119.592 70.596C119.664 70.6077 119.729 70.6437 119.778 70.698C119.824 70.7556 119.845 70.8288 119.838 70.902C119.699 71.906 119.873 72.9285 120.336 73.83C120.427 73.9654 120.479 74.1231 120.486 74.286C120.486 74.346 120.174 80.124 120.174 80.124C120.18 80.1577 120.18 80.1923 120.174 80.226C119.856 80.8199 119.409 81.3352 118.866 81.7339C118.323 82.1325 117.698 82.4046 117.036 82.53C116.837 82.5746 116.634 82.6007 116.43 82.608V82.608ZM114.966 80.778C115.034 81.1714 115.235 81.5294 115.536 81.792C115.736 81.9224 115.961 82.0096 116.196 82.0478C116.432 82.086 116.673 82.0745 116.904 82.014C117.472 81.9048 118.009 81.6732 118.478 81.3354C118.948 80.9977 119.338 80.5617 119.622 80.058C119.934 74.274 119.934 74.274 119.934 74.262C119.934 74.25 119.88 74.178 119.838 74.088C119.361 73.1791 119.153 72.153 119.238 71.13C117.928 70.9326 116.735 70.2676 115.878 69.258C115.56 69.642 114.99 70.32 114.678 70.596C114.366 70.8548 114.09 71.1533 113.856 71.484C113.178 72.516 113.334 74.274 113.436 74.982C113.544 75.78 113.994 77.124 114.966 77.124H114.996C115.033 77.1245 115.07 77.1327 115.104 77.1482C115.138 77.1637 115.169 77.1861 115.194 77.214C115.221 77.2412 115.242 77.2742 115.254 77.3106C115.267 77.347 115.271 77.3858 115.266 77.424L114.93 80.778H114.966Z" fill="#231F20"/>
<path d="M116.85 71.724C116.85 71.724 115.62 73.236 115.854 73.524C116.088 73.812 116.82 73.71 116.82 73.71" fill="white"/>
<path d="M116.502 74.016C116.343 74.0295 116.184 74.008 116.035 73.9531C115.885 73.8981 115.75 73.8111 115.638 73.698C115.554 73.584 115.284 73.23 116.646 71.556C116.668 71.5287 116.694 71.506 116.725 71.4891C116.755 71.4723 116.789 71.4616 116.823 71.4577C116.858 71.4538 116.893 71.4567 116.926 71.4664C116.96 71.4761 116.991 71.4922 117.018 71.514C117.072 71.5596 117.107 71.6243 117.114 71.6946C117.122 71.765 117.103 71.8356 117.06 71.892C116.66 72.3426 116.332 72.8527 116.088 73.404C116.308 73.4868 116.547 73.5076 116.778 73.464C116.812 73.458 116.847 73.4589 116.88 73.4666C116.914 73.4742 116.946 73.4886 116.974 73.5087C117.001 73.5288 117.025 73.5544 117.043 73.5838C117.061 73.6132 117.073 73.6459 117.078 73.68C117.084 73.7143 117.083 73.7494 117.076 73.7834C117.068 73.8174 117.054 73.8495 117.034 73.8779C117.014 73.9064 116.988 73.9306 116.959 73.9491C116.929 73.9677 116.896 73.9802 116.862 73.986C116.743 74.007 116.623 74.017 116.502 74.016Z" fill="#231F20"/>
<path d="M115.632 72.0806C115.657 71.8901 115.595 71.7246 115.493 71.711C115.392 71.6974 115.288 71.8408 115.263 72.0313C115.237 72.2218 115.299 72.3872 115.401 72.4009C115.503 72.4145 115.606 72.2711 115.632 72.0806Z" fill="#231F20"/>
<path d="M118.523 72.2976C118.525 72.1054 118.444 71.9486 118.341 71.9474C118.238 71.9462 118.153 72.101 118.151 72.2932C118.149 72.4854 118.23 72.6422 118.333 72.6434C118.435 72.6446 118.521 72.4897 118.523 72.2976Z" fill="#231F20"/>
<path d="M119.496 73.014C119.567 72.7254 119.696 72.4541 119.874 72.216C119.973 72.0778 120.103 71.9653 120.255 71.888C120.406 71.8108 120.574 71.771 120.744 71.772C120.847 71.7768 120.948 71.8045 121.04 71.8533C121.131 71.9021 121.21 71.9707 121.272 72.054C121.347 72.1762 121.394 72.3135 121.41 72.456C121.487 72.8506 121.449 73.2591 121.3 73.6325C121.151 74.006 120.897 74.3287 120.57 74.562C120.451 74.6352 120.314 74.674 120.174 74.674C120.034 74.674 119.897 74.6352 119.778 74.562" fill="white"/>
<path d="M120.132 74.922C119.952 74.9256 119.777 74.8685 119.634 74.76C119.604 74.7432 119.578 74.7202 119.558 74.6925C119.537 74.6648 119.523 74.633 119.516 74.5994C119.509 74.5657 119.509 74.5309 119.517 74.4974C119.525 74.4639 119.539 74.4324 119.56 74.4051C119.581 74.3777 119.607 74.3552 119.638 74.3389C119.668 74.3227 119.701 74.3132 119.736 74.311C119.77 74.3088 119.804 74.314 119.837 74.3263C119.869 74.3385 119.898 74.3575 119.922 74.382C120.003 74.4289 120.095 74.4535 120.189 74.4535C120.283 74.4535 120.375 74.4289 120.456 74.382C120.738 74.1704 120.955 73.8839 121.082 73.5551C121.21 73.2263 121.242 72.8683 121.176 72.522C121.166 72.4154 121.131 72.3127 121.074 72.222C121.035 72.1675 120.984 72.1229 120.924 72.0916C120.865 72.0604 120.799 72.0434 120.732 72.042C120.6 72.0424 120.471 72.0742 120.354 72.1347C120.237 72.1953 120.136 72.2828 120.06 72.39C119.906 72.6078 119.792 72.8517 119.724 73.11C119.705 73.1705 119.662 73.2212 119.607 73.2514C119.551 73.2816 119.485 73.289 119.424 73.272C119.394 73.2632 119.365 73.2483 119.341 73.2282C119.317 73.2081 119.296 73.1834 119.282 73.1553C119.267 73.1273 119.259 73.0966 119.256 73.0651C119.254 73.0336 119.258 73.0019 119.268 72.972C119.35 72.6568 119.491 72.3597 119.682 72.096C119.806 71.9285 119.968 71.7928 120.155 71.7C120.341 71.6071 120.547 71.5599 120.756 71.562C120.897 71.5678 121.035 71.6059 121.159 71.6736C121.282 71.7412 121.389 71.8365 121.47 71.952C121.567 72.1019 121.626 72.2726 121.644 72.45C121.728 72.8929 121.682 73.3507 121.512 73.7681C121.342 74.1854 121.054 74.5446 120.684 74.802C120.512 74.8854 120.323 74.9265 120.132 74.922V74.922Z" fill="#231F20"/>
<path d="M115.002 75L118.236 75.09C118.236 75.09 117.804 76.812 116.436 76.728C115.068 76.644 115.002 75 115.002 75Z" fill="#231F20"/>
<path d="M108.696 93.174C108.616 93.1709 108.541 93.1375 108.485 93.0806C108.429 93.0237 108.397 92.9477 108.396 92.868C108.396 92.622 109.464 86.904 109.92 84.468C109.936 84.3869 109.983 84.3154 110.052 84.2693C110.121 84.2231 110.205 84.2061 110.286 84.222C110.326 84.2292 110.364 84.2443 110.398 84.2663C110.432 84.2884 110.461 84.317 110.484 84.3505C110.507 84.384 110.523 84.4217 110.531 84.4615C110.54 84.5012 110.54 84.5422 110.532 84.582C109.932 87.762 109.038 92.598 109.014 92.892C109.006 92.9705 108.969 93.0432 108.91 93.0955C108.851 93.1478 108.775 93.1759 108.696 93.174V93.174Z" fill="#231F20"/>
<path d="M122.214 93.708C122.131 93.708 122.052 93.6751 121.993 93.6166C121.935 93.5581 121.902 93.4787 121.902 93.396V84.186C121.889 84.1396 121.886 84.0907 121.895 84.0432C121.904 83.9957 121.924 83.951 121.953 83.9124C121.982 83.8739 122.02 83.8426 122.063 83.8211C122.106 83.7995 122.154 83.7883 122.202 83.7883C122.25 83.7883 122.298 83.7995 122.341 83.8211C122.384 83.8426 122.422 83.8739 122.451 83.9124C122.48 83.951 122.5 83.9957 122.509 84.0432C122.518 84.0907 122.515 84.1396 122.502 84.186V93.396C122.504 93.4752 122.475 93.5519 122.421 93.6101C122.367 93.6683 122.293 93.7034 122.214 93.708V93.708Z" fill="#231F20"/>
</svg>
